<mxfile host="app.diagrams.net" modified="2024-03-27T10:47:33.398Z" agent="Mozilla/5.0 (Windows NT 10.0; Win64; x64; rv:124.0) Gecko/20100101 Firefox/124.0" etag="EEPigrCTFtEZ32WsqZUj" version="23.1.5" type="device">
  <diagram name="Page-1" id="C6moTrOIJ08ilzovIsBU">
    <mxGraphModel dx="717" dy="373" grid="1" gridSize="10" guides="1" tooltips="1" connect="1" arrows="1" fold="1" page="1" pageScale="1" pageWidth="827" pageHeight="1169" background="#000000" math="0" shadow="0">
      <root>
        <mxCell id="0" />
        <mxCell id="1" parent="0" />
        <mxCell id="PB-LY1mBNskSgPcxwGSi-50" value="" style="shape=image;verticalLabelPosition=bottom;labelBackgroundColor=default;verticalAlign=top;aspect=fixed;imageAspect=0;image=data:image/png,iVBORw0KGgoAAAANSUhEUgAAAgAAAAIACAYAAAD0eNT6AAAABHNCSVQICAgIfAhkiAAAAAlwSFlzAAAOxAAADsQBlSsOGwAAABl0RVh0U29mdHdhcmUAd3d3Lmlua3NjYXBlLm9yZ5vuPBoAACAASURBVHic7d199G/XfCfw9+/eSyuGRpZKEavVTh9mRpmxag0z6IOa0SlGjRAVD4lGEomEeEgkqLZCuzRIRIIQUQxC0KKqMep5lCaWh5phaLVmQsZIgmiQ3Hvnj3N/y83Nffj+ft+z9z7nu1+vtc5K/rj37H3O93u/+30+e59z1sLcrSX5tSQPSXKfJD+R5NCmPQKm4Ook70pyZpIvNO4LE7TWugMs5ZeT/HGSX2rdEWCyvp/k2UnOSrKjcV+YEAFgvk5O8qIkW1p3BJiF9yR5ZJJvte4I0yAAzNOZSU5v3Qlgdj6T5EFJ/rF1R2hPAJifRyR5Y3x2wOZ8Ncn9Y11A9wwi83LLJF/KsNAPYLP+b5IHJPlU647QjvnjeTkhBn9gebdL8ldJ7t26I7QjAMzLEa07AKyMH0vy3gyVADpkCmA+Dk3ytfjMgHH9IMmRSd7SuiPUpQIwHz8Vgz8wvptnWFh8dOuOUJcAMB/m/oFStiZ5VZJjW3eEegSA+bh56w4AK20tyflJntS6I9QhAACwbi3J2RmeNMqKEwAA2N1akhcneXLrjlCWAADAntZDwDNbd4RyBAAA9uX5Sc5o3QnKEAAA2J/nJXlW604wPgEAgAP5gyTPad0JxiUAALCI30vyu607wXgEAAAW9dwkf9i6E4xDAABgI05N8ketO8HytrXuAM09vHUHgKWcluTuldt8RpLrMlQEgMIOT7KzwAbM28FJPpEyvw8H2qwJgAoEAGBfhABYYQIAsD9CAKwoAQA4kJYhwHMCoBABAFiEEAArRgAAFtUyBDy7wvFBVwQAYCOEAFgRAgCwUS1DgBcIwUgEAGAzhACYOQEA2KyWIeCMCscHK00AAJYhBMBMCQDAsoQAmCEBABhDyxBweoXjg5UjAABjOSTJZWkTAp5W4fhgpQgAwJhaVgKeWeH4YGUIAMDYhACYAQEAKEEIgIkTAIBSWoaA0yocH8yaAACUJATARAkAQGlCAEyQAADU0DIEnFrh+GB2BACgFiEAJkQAAGpqFQJ2JDm5wvHBbAgAQG0tQ8BJFY4PZkEAAFoQAqAxAQBoRQiAhgQAoKWWIeBJFY4PJksAAFoTAqABAQCYAiEAKhMAgKloGQJOrHB8MCkCADAlQgBUIgAAUyMEQAUCADBFLUPACRWOD5oTAICpEgKgIAEAmLKWIeCJFY4PmhEAgKkTAqAAAQCYAyEARiYAAHMhBMCIBABgToQAGIkAAMxNyxBwfIXjgyoEAGCOhICJ2ta6A6y8WyT50dadWNJBSX6kdSc2YS3Dj+/UbE/y7QX/7Ld3/fkk+U6SG4r0iJKuSfKAJJcmuXvFdteSnJvk+0kurNjubKy17sAI1pL8WpKHJLlPkp9IcmjTHgGlXZvk+j3+/7okV++2/UOSLyf5VJLPRsWrtUNSPwQkQyXgmAgBK+eXk3wy9UtLNpttXts/JHlYaO2QJJel/ue/PcnRFY6PSk7O8KG2/mGx2Wzz2HYkOSq01nJNwHEVjo/Czkz7HxObzTa/7fqoBExBy0rA48ofHqU8IkOSa/1DYrPZ5rldn+GuGtoSAhqb2yLAWyb5UoaFfgCbtT3JY5O8oXVHOndwkr9Mco/K7e7IsCbgtZXbnZQtrTuwQSfE4A8sb2uSi5I8vHE/erd+i+DlldvdkuGugMdUbndS5hYAjmjdAWBlbEvyX5M8qnVHOndVkvtluKOrpi1JXpOhEtSlOU0BHJrka5lXn4HpuyHJkUne3LojnWv1nIDtGe4OeV3ldpubUwXgzjH4A+PblmEtwJGtO9K5VpWA9emg7qYD5hQAPN0PKGVrhnKwaca2Wq8J6CoEzikA3Lx1B4CVti3J69PZIDBBrSsBj67cbjNzCgAApa0PAkJAW9ck+Q9pEwJek05CgAAAcGNCwDQIAYUJAAA31V05eKJah4CVDoECAMDedXMlOHEtQ8BFWeEQIAAA7JsQMA1CQAECAMD+rYeA7u4TnxghYGQCAMCBbY1nx0+BEDAiAQBgMULANLQOASvz7ggBAGBx6yGg2xfITETLEPDarEgI2Na6AxPgdaAwffdMckrrTuyyNcmrM7xTvrsXyEzI+mODa79AaL0ScH2Siyu227XDk+wssAHTV+rf/zLb9qgETMHBST6R+p//DUl+u8LxEQEAejbFACAETIcQsOIEAOjXVAOAEDAdhyS5LPU//+tjYWhxAgD0a8oBQAiYjlYhYGeSZ1c4vm4JANCvqQeA9RDwuELHz+JaVgLuXOH4RuM2QIBxbMlwi+BxrTvSuauS3C/1bxHcluTXK7e5FAEAYDxrSc6LENBaq+cE/JvK7S1FAAAY11qSlyU5qnVHOrf+nIDLK7b5sxXbWpoAADC+LRkeFqQS0Fbt6YAfr9TOKAQAgDLWpwOOb92RztWcDrhthTZGIwAAlLM+HSAEtFUrBPx4hs98FgQAgLLWkpyb5PGtO9K5GmsCbp7kFgX3PyoBAKC8LUkuSPLE1h3pXI01AQIAADeyXgkQAtoqPR1wUKH9jk4AAHpW8xaxZAgBL01yTOV2ubH16YASBACAGWjxxLgtSV4RlYDWriq0XwEAYAZaPTHOdMDqsgYAYCZaPDEu+WEIeELldilLBQBgRlq9QGYtycuTnFC5XcrZ1roDixIAAAYtpwNeGiFgVWxt3YFFCQAAP9Q6BJxYuV3GJwAAzFTLEHBOhIC5EwAAZkwIYLMEAICZEwLYDAEAYAW0DgFPqtwuyxMAAFZEyxBwdoSAuREAAFaIEMCiBACAFdM6BJxUuV02RwAAWEEtQ8BLIgTMgQAAsKKEAPZHAABYYa1DwMmV22VxAgDAimsZAl4cIWCqBACADggB7EkAAOjENUkekOTyyu0KAdPkdcAAHbkqyf3Sbk3AaZXbZd9mM67OpqMAE9dqOiBJXhAhYCpMAQB0qHUIeGaDdrkxAQCgUy1DwPMjBLQmAAB0TAjolwAA0LnWIeD0Bu0iAACQdrcIJsmZSZ7WoN3eCQAAJGl3i2CSvDAqAeyDAABQXsvpgDOTnNGgXSZOAACoo2UIeF6EgFrWWndgUQIAQD2tQ8CzGrTLRAkAAHW1DAF/ECGAXQQAgPqEAJoTAADaaB0Cnt2g3R5YAwDAAbUMAb8fIaBrAgBAWy0fFvT78ZyAsakAALCwlg8LOjNCwJh2tu7AogQAgGlo/bAgLxAahwoAABvW+gVCpzZol0YEAIBpaRkC/jDJMxq0SwMCAMD0tA4BJzZod1WYAgBgKa1CwFqSc5I8sXK7VCYAAExXyxBwbpLjK7dLRQIAwLS1DAEvS3Jc5XapRAAAmL6WIeC8JE+o3O6cWQMAwKiuSfIfU/+JgWtJzk9yZOV2KUwAAJiPq9PmiYFbklyU5PDK7VKQAAAwL62mA7YmeX2G9xawb6YAACimVQi4eZJLkty7crsUsK11BwAaurh1B5b0rQZtHpTkT5P8SpLPNmh/6mZTARAAgJ6Z096cQ5K8L8l9k3yhcV+mxtsAAVhpt0tyaZKfbN2RiZlNBUAAAGCz7pTkXUlu1bojbJwAAMAy7pJhLcXW1h1hYwQAAJb1gCTPad2JiTAFAEBXTk9yr9adYHECAABj2Jbk7MzoCrh3AgAAY7lHkn/RuhMsRgAAYEz/vHUHGptNBUQAAGBMHjA3EwIAMAffad0BFuZ2wJkQAIA5uKJ1B2DVCADAHHwpyXWtOwELsAYAYET/lOHlM8BIBABgLi5o3QFYgAoAwMjemeTDrTsBq0IAAObk6CRXte4ErAIBAJiTLyX5L3FbICxNAADm5gNJ/n2SLzfuB+zNztYdWJQAAMzRZzO8h/4ZSa5s3BeYJY9sBObqe0lemORFGV5De98kt09yaMtOzczhrTtAOwIAMHfbk3xk18bGzKZcPSOzOaemAABgPAIAADBdAgAAdEgAAIDxmAIAAKZLAACADgkAADAeUwAAwHQJAADQIQEAAMZjCgAAmC4BAAA6JAAAwHhMAQAA0yUAAECHBAAAGI8pAABgugQAAOiQAAAA4zEFAABMlwAAAB0SAABgPKYAAIDpEgAAoEMCAACMxxQAADBdAgAAdEgAAIDxmAIAAKZLAACADgkAADAeUwAAwHQJAADQIQEAAMZjCgAAmC4BAAA6JAAAwHhMAQAA0yUAAECHBAAAGI8pAABgura17gCwtJsluX+Suyf5hQz/rq9O8rdJPpTkM+26BkyVAADzdYskpyU5Nsmh+/lzn0zywiRvqdEp6JwpAKCoeyX5XJLnZP+Df5LcI8nFSS5JckjhfgEzIQDA/Nw/yaVJfnqDf++hST4YIQCIAABz83NJ3p7klpv8+3dJ8s6Y/oNSTAEAo9uS5A3Z/OC/7t8lOWn57gBzJgDAfDw4yS+NtK/nJrnVSPsCZkgAgPl48oj7ulWSh4+4P2BgCgAY1WFJ7jvyPh888v6AGREAYB4OT7I28j5/ceT9ASoAwMgeVmCfhxXYJzATAgBM32EZHvwztusL7BOYCQEApu9hGb/8nyTfLLBP6J0pAGA0pVbrf7zQfoEZEABg2g5Lcs9C+/5wof0CMyAAwLSVWP2fDGXKdxTYLzATAgBM2+GF9vvRJF8ttG9gBgQAmK6S5f+3FNovMBMCAExXyfL/2wvsF5gRAQCmS/kf5sdtgMBSlP+Bora17gAcwM8k+ekkt01ybZIrknw6yQ0tO1XB3Mr/25LcLckdkvyzJP8vyZeT/F2BtoDOHJ7hx2vsjem5TZLfS/LF7P0zuyrJ67PaL7P5WMp838e+9/+uSd6Q5Op9tPeFJM9NcvDI7TKOEt+xUlNXJZQ4/t+tegSdEAD68PgMA/win932JK9OclCTnpZzWJIdKfN9P2mkPh6U5DUZPoNF2r0qydEjtc14BAABYBYEgNW2Nck52dxneFmG0vOqeErKfNd3JLnTCP27Q5LLN9mHszN81kyDADD+9pyqR9AJAWB1bU3y2iz3OX4qyS1rd7yQKZf/b5HkE0v2402x/mgqBICOA4C7AGhta4ZS8mOW3M+/znB1OXdTX/1/XpJ7LLmPRyS5MCoB0JQAQEtbMwwEjx5pf0dlCAJzNuXV/7+Y5YPaukdnWDyoEgCNCAC0MtaV/+62JHnqiPtrYcoP/zk14/5mqARAQwIALYx95b+738x8ryqnXP6/WYZzOzaVAFbNbNaWCQDUVuLKf3e3yXyfDzDl8v9dU+5efpUAaEAAoKaSV/67m+stgVMu/99xjI7sh0oAVCYAUEvpK//d3bpCG2Obcvk/GR7vW5pKAFQkAFBDrSv/dV+v1M6Yplz+T5JvjLCPRagEMHfWAMAuNa/81/19xbbGMuXyfzK82KcWlQCoQACgpNpX/knyP5J8pWJ7Y5h6+T8Z3ur3xZH2tQiVAChMAKCUFlf+SXJx5fbGMPXy/7o3jbivRagEAEm8C2BOxni2/2a2qzLcBjg3U372/+4OTvLNQn3d3+bdAeWU+Lx6fxfAs6oewRJUABhbqyv/ZHiL3tUN2l3GHMr/665J8vSR97kIlQDmZDYXlgIAY1of/GvO+a87J0PVYW7mUv5fd2GGc13bozN8t4QA6JApgGlrVfbfmeSNmW+JeC7l/91tSXJRoX4faDMdMK4Sn1HvUwBnVD2CJfiHxBjWV/u3KPu/KcmRSbY3aHtZcyr/725HkqN3/f9jC7azN4/Y9d8jk9xQuW1YKaYAWJbBf/PmVv7f3XoIaDHt8ogkr48LGFiKAMAyWg7+FyV5VOY7+CfTf/jPgexIclSSV1Roa09CAFM1m6llAYDNajn4vybJ4zMMQHM11/L/nnYmOT7Jyyu2uU4IgCUIAGxG68H/dzLvwT+Zd/l/b20+MUIAUIi7AKah5Wr/C7M6obXU6v+P1DyIPawlOX8f/Sq9uTtgc0p8Fr3fBXB61SNYwqr8mFJHyyv/C7MaV/7J6pT/97QzQyXg/AZtqwTABgkALKr14H9MVmPwT8qW/99WYL8b7cMJEQLol8pyAaYA2mlZ9n91Vi+ormL5f09rSV6WNt8Z0wGLK3H+e58CeGbVI1jCqv2wMr6WV/6vzmpd+SerW/7f084kJyY5r0HbKgGwAAGA/Wk9+D8hqzX4J6td/t+TEACMwhRAXS3L/q/K6obTHsr/ezIdMF0lznnvUwCnVT2CJazqjyzLaXnl/6qs5pV/0k/5f087M1QCXtagbZUA2AcBgD21HvyPzWoO/klf5f897UzypAgBwCaYAiivZdn/gqx+IO2x/L+ntSTnps13zHTATZU4z6YAZmLVf3BZXMsr/wuy2lf+Sb/l/z3tzFAJOLdB2yoBsBsBgKT94H9cVnvwT/ou/+9pZ5KTIgSwmlSWCzAFUEbLsv8rU2ZQnCLl/5taS3JO2nz3TAcMSpzb3qcATq16BEtQAehb6yv/Y9NHCFP+37udSU5O8tIGbasE0D0BoF8tB/9Xpp/BP1H+3x8hADggUwDjaVn2f0X6KfuvU/4/sLUkZ6fNd7Ln6YAS59MUAKMTAMbRcvB/efob/A/LsMCxxPk8ueJx1CAE1FfiXPYeAJ5R9QiWYAqgLy3L/q9Icnz6C13K/4vbmeTJGUJAbaYDYMJUAJbjyr8N5f+NW0vykrT5rvZWCShxDlUAGJ0AsHktB//z0+/gr/y/eUJAHSXOnwDA6ASAzWk5+L84/Q7+SfKUlDmvO5LcqeJxtPSCtPnu9hICSpw7AYDRCQCbc2Ha/ID2Pvgnyv9jWMvwXWrxHb6wwvG1VuK89R4Anl71CDohAGzcqWnzw/niGgc3ccr/42pVCVj1H/MS50wAYHQCwMbcJckNqf+DeVaNg5sB5f/xnZX63+cbkvyrGgfXSIlzJgDMhNsAV9fzM8z/1/SiJE+t3OZUlfoR/FiSrxba99Q9NcN3rKatGf4twcoRAFbTHZI8sHKbBv8f8uz/cp6a+gPyg5LcsXKbzNdsKssCwGp6YOouwPvjGPx35+E/ZZ2R4TtXy1qS36jYHlQhAKymu1Vs60WZ0ZxXJcr/5T09dSsBd63YFlQhAKym21dq56y48t+T8n89ZyQ5s1Jbd6jUDlQjAKymWnNQvd/nvzfK/3XV+g7OZl4XFiUArKYrKrVzStz2tyfl/3rOTHJ6pbZq/Zti/mYTFnt41GWPPlOxrVMy3JtuHYDyf00vTPK0iu3V/DcFVagArKY/yzAo1/K01L8/e4qU/+t4fuoO/juSvLtie1CFALCarkzyrsptPiWmA5T/yzsryTMrt/nOJF+v3CYUJwCsrtOTbK/cZs9rApT/yzsrw3espu2pt84AqhIAVtffps0P1ynp82VAyv9lvSD1B/8kOS3J5xu0y3zNZhHgnHgZ0OZ4HXAdXv1bhtcBl1XivPX+MqAWQXXlCQCbszXJa9PmB/T89BECvPq3jLUkL0mb7+6b08ddUiXOnQDA6ASAzWsZAl6e1Q8BXv07PoN/HSXOnwDA6ASA5QgB5Sj/j2stydlp8129OP0M/kmZcygAMDoBYHlCwPiU/8dl8K+rxHnsPQA8peoRdEIAGEfLEPCKrF4IUP4fT8vB/y3pb/BPypxLAYDRCQDjEQLGo/w/jrUk56TNd7LXwT8pcz4FAEYnAIyrZQh4ZVYjBCj/j6Pl4P/W9Dv4J2XOqQAwEz1/8Xu3PcnRu/7/MZXbPmbXf4/NvEOYh/8sb33wP7FB25ckeWSSGxq0DWyACkAZrSsBc34apfL/ctaSvDRtvnuXJLlZ+UOcvBLntvcKwJOrHkEnBIByhICNU/5fjsF/GkqcXwFgJub4w8v41qcD/qRB28dkWBg4t++i8v/mrQ/+Lcr+b0tyRJLrG7QNbJIKQHktKwEXZF4hQPl/c9aSnJs237F3J/mR8oc4KyXOswrATMzpB5fyWlYCfifzqQR49e/mrF/5n9Cg7T9P8tAk32/QNn2ZzYXlHH5sqat1CJjDmgDl/41bv/JvMfi/JwZ/mDVTAHW1nA54VaYdApT/N2YtycvS5rv051H2358S57z3KYDZLOKd8o8sbbWsBDw+010ToPy/MetX/k9s0PZfJPmtuPKHvZriDyzT0TIEHJ1phgDl/8UZ/IFRmAJop+V0wKszrRCg/L+YtSTnpc135j1JfrT8Ia6EEue/9ymAk6oewRKm9MPKdKkEDJT/F7M+5398g7bfm+HK/3sN2oZZmcKPKvPQOgRMYWGg8v+BrV/5txr8HxKDP6wcUwDTsDXJRWlT2r0wbUOA8v/+rSU5P22+G++Nsv9mlPgsTAHMROsrKuZnvRLw2gZtH5V2lQDl//1bv/I/rkHbfxlX/rBhAgCbsSNtQ8DrM1QianpYlP/3ZUuG6kyLwf/SDIP/dQ3ahr2ZTWVZAGCzWoaAR6Z+CChV1vxYkq8W2ncN64P/4xq0fWmS/xyDP2yKAMAyWoaAI1IvBByW5F6F9j3n8v/64P/YBm2/LwZ/WIoAwLKmEAK2FW5H+f+mWg7+H4qyPyxNAGAMrUPA61I2BCj/39jWJK9Jm8H//Ul+I8l3G7QNK0UAYCw7MjzD/3UN2j4iyVmF9q38f1PnJnlMg3bfn+RBSf6pQduwKIsA6dL2DKv0W4SAk1JmIVrJ8v/bC+y3tOPSZrW/wR865kFA87ElbR4WdHWS24x8LB8t1Nc5Pvzn9km+lfqf6/uTHFTh+HpU4vPq/UFAJ1Y9giWoAFBCq+mAgzPuu7iV/2/spCS3rtzmh5M8OK78YXQCAKVsz1CSr70w8IgR96X8/0NrSR5duc0PJHlAkmsrtwvLmE1lWQCgpBaVgJ9P8lMj7avk6v9/LLTvUn4hyR0rtveBJA+MK38oRgCgtBaVgJ8ZYR/K/zf28xXb+kiGBX9u9YOCBABqqF0JuN0I+1D+v7GDK7XzwSj7QxUCALXUrAR8a4R9KP/f2PcrtPG+JP8prvyhCgGAmmpVAq5Y8u8r/9/Ulwvv/y9itT+rwSJA2IfSlYCrknxuyX0o/9/UZ1PuyvzP4tn+UJ0AQAslKwHvTnLDkvtQ/r+p65K8q8B+35ohcNWYYgB2IwDQSolKwI4s/04A5f99e2HGLW++Ockjk1w/4j6BBQkAtDR2JeDCJJ9ech/K//t2Wcb7rM5N8qgsX60BOuBdAKtrjHcHfCrjPC/es//379YZ1lhs9jxsT/LU6r1mX7wLYPzt+KpHsAQVAKZgvRJwzib//mVJfjPLryBX/j+wbye5fza30PJ7KfvqZmADBACmYnuGF/kclWEl/yJ2JLkgyX2y/K1/ifL/or6W5J5JXpXhM1jEV5L8alYnCAEVmQLox8FJnpvkf2bvn9k3k/xJkruM3K7y/8bdLUMIuyp7P/Zrk7woyY+16iD7ZQqg4ymAba07AHtxTYYA8Nwkd9613S7Jd5L8nwz3pG8fuU3l/835dJJjkhyb5GeT/GSGwX5nkiuTXB5P9oNJEgCYur/ftZWm/L+cHUm+sGuDns2msmwNAAw8/AfoigAAyv9AhwQAUP4HOiQAgPI/MB5rAGAmlP+BLgkA9O63Uq78f0mB/QKMQgCgd79aaL8fS/K/C+0bYGkCAL37t4X2+9ZC+wUYhQBA725bYJ87k7ytwH6B6bMIEGaixNMw/3us/gcmTgCgdyXm6S8usE+AUQkA9O4zI+/P6n9gFgQAevenI+/vg7H6H5gBAYDevTnDa4bH8uIR9wXMj0WAMBPfSfJ7I+3rk0neNdK+AIoSACA5O8PK/WVcm+RRSXYs3x2A8gQASG5I8sAkn9vk3782yUOT/K/RegRQmAAAg6uS3DcbX8H/d0l+Pcmlo/cIoCABAH7o6iQP27V98gB/9usZ1g7cJclfF+4XMB+zWQRY4iloMHeX7NrumuTeGQb5W2f4h/35JJcn+W8Zpg4AZkkAgH37TMZ/UBDAJJgCAIAOCQAAMJ7ZrAEQAACgQwIAAHRIAACADgkAANAhAQAAxmMRIAAwXQIAAHRIAACADgkAANAhAQAAxmMRIAAwXQIAAHRIAACADgkAANAhAQAAxmMRIAAwXQIAAHRIAACADgkAADAeawAAgOkSAACgQwIAAHRIAACADgkAADAeiwABgOkSAACgQwIAAHRIAACADgkAADAeiwABgOkSAACgQwIAAHRIAACADgkAADAeiwABgOkSAACgQwIAAHRIAACADgkAADAeiwABgOkSAACgQwIAAHRIAACA8VgDAABMlwAAAB0SAACgQwIAAHRIAACA8VgECABMlwAAAB0SAACgQwIAAHRIAACA8VgECABMlwAAAB0SAACgQwIAAHRIAACA8VgECABMlwAAAB3a1roDAKyUe7buAIsRAAAY0ymtO9CYNQAAwHQJAADQIQEAADokAABAhwQAABiPRYAAwHQJAADQIQEAADokAABAhwQAABjPD1p3YFECAACM54rWHViUAAAA49iZ5CutO7EoAQAAxvE3Sb7RuhOLEgAAYBwXt+7ARggAALC8K5Kc37oTGyEAAMBydiY5Kcl3W3dkIwQAAFjO85Jc0roTG7WtdQcAYKa2JzkjyR+17shmCAAAsHEfT/K0JB9t3ZHNEgAA4MCuzLDQ70NJ3pHkg5nRq3/3RgAAYEwPT/KW1p3gwCwCBIAOCQAA0CEBAAA6JAAAQIcEAADokAAAAB0SAACgQwIAAHRIAACADgkAANAhAQAAOiQAAECHBAAA6JAAAAAdEgAAoEMCAAB0SAAAgA4JAADQIQEAADokAABAhwQAAOiQAAAAHRIAAKBDAgAAdEgAAIAOCQAA0CEBAAA6JAAAQIcEAADokAAAAB0SAACgQwIAAHRIAACADgkAANAhAQAAOiQAAECHBAAA6JAAAAAdEgAAoEMCAAB0SAAAgA5ta92BCTi8dQcAoDYBILm4dQcAoDZTAADQIQEAADokAABAhwQAAOiQAAAAHRIAAKBDAgAAdEgAAIAOCQAA0KE5BYAftO4AAAfkt3om5hQAvt66AwAc0BWtO8Bi5hQAEm5kLAAAANlJREFUvpJkZ+tOALBPOzP8VjMDcwoAVya5vHUnANinv0nyjdadYDFzCgBJ8ubWHQBgn7xddUbWWndgg26R5ItJDmvdEQBu5IokP5fku607wmLmVgG4LskpsRYAYEp2JjkpBv9Z2dq6A5vw+STbkty3dUcASJI8L8l5rTvBxswxACTJXyW5Jsn9M78qBsCq2J7k9AwBgJmZawBIkr/OEAT+ZawJAKjt40l+O8kbW3eEzZnbIsC9WUvyK0kekuQ+Se6Q5NCWHQJYQVdmWOj3oSTvSPLBWI81a/8fAUqgKy9HwV8AAAAASUVORK5CYII=;" vertex="1" parent="1">
          <mxGeometry x="250" y="290" width="62" height="62" as="geometry" />
        </mxCell>
        <mxCell id="PB-LY1mBNskSgPcxwGSi-55" value="" style="shape=image;verticalLabelPosition=bottom;labelBackgroundColor=default;verticalAlign=top;aspect=fixed;imageAspect=0;image=https://upload.wikimedia.org/wikipedia/commons/thumb/1/1b/R_logo.svg/724px-R_logo.svg.png;" vertex="1" parent="1">
          <mxGeometry x="250" y="340" width="31.63" height="24.5" as="geometry" />
        </mxCell>
        <mxCell id="PB-LY1mBNskSgPcxwGSi-61" value="" style="rounded=0;whiteSpace=wrap;html=1;fillColor=none;strokeColor=#FFFFFF;" vertex="1" parent="1">
          <mxGeometry x="220" y="273.25" width="281.26" height="186.75" as="geometry" />
        </mxCell>
        <mxCell id="PB-LY1mBNskSgPcxwGSi-63" value="&lt;b style=&quot;font-size: 14px;&quot;&gt;&lt;font face=&quot;Helvetica&quot; style=&quot;font-size: 14px;&quot; color=&quot;#99ccff&quot;&gt;R 4.1&lt;br&gt;ggplot 3.5.0&lt;br&gt;&lt;/font&gt;&lt;/b&gt;" style="text;html=1;align=center;verticalAlign=middle;whiteSpace=wrap;rounded=0;" vertex="1" parent="1">
          <mxGeometry x="414.94" y="384.36" width="72.65" height="31.25" as="geometry" />
        </mxCell>
        <mxCell id="PB-LY1mBNskSgPcxwGSi-72" value="" style="shape=image;verticalLabelPosition=bottom;labelBackgroundColor=default;verticalAlign=top;aspect=fixed;imageAspect=0;image=data:image/svg+xml,PHN2ZyB2aWV3Qm94PSIwIDAgNTAxMS4zNyA1MDExLjM3IiB4bWxuczp4bGluaz0iaHR0cDovL3d3dy53My5vcmcvMTk5OS94bGluayIgeG1sbnM9Imh0dHA6Ly93d3cudzMub3JnLzIwMDAvc3ZnIiBkYXRhLW5hbWU9IkxheWVyIDEiIGlkPSJMYXllcl8xIj48ZGVmcz48c3R5bGU+LmNscy0xLC5jbHMtMjN7ZmlsbDpub25lO30uY2xzLTJ7Y2xpcC1wYXRoOnVybCgjY2xpcC1wYXRoKTt9LmNscy0ze2ZpbGw6I2NjYzE2NTt9LmNscy00e2ZpbGw6I2ZkZmRmOTt9LmNscy01e2ZpbGw6I2ZhZmVmYzt9LmNscy02e2ZpbGw6I2ZkZmNmNzt9LmNscy03e2ZpbGw6I2ZlZmJmNTt9LmNscy04e2ZpbGw6I2VjZWJjZTt9LmNscy05e2ZpbGw6I2U5ZThjNzt9LmNscy0xMHtmaWxsOiNlNWRmYjA7fS5jbHMtMTF7ZmlsbDojZjZlZmQ4O30uY2xzLTEye2ZpbGw6I2ZlZmNlMTt9LmNscy0xM3tmaWxsOiNhOGRlYjU7fS5jbHMtMTR7ZmlsbDojYTk5Njc4O30uY2xzLTE1e2ZpbGw6IzdjODE3ODt9LmNscy0xNntmaWxsOiMzYjgwNzg7fS5jbHMtMTd7ZmlsbDojN2U4Njg3O30uY2xzLTE4e2ZpbGw6IzU4YWE3Yzt9LmNscy0xOXtmaWxsOiM1N2E5N2M7fS5jbHMtMjB7ZmlsbDojYTJkOWIyO30uY2xzLTIxe2lzb2xhdGlvbjppc29sYXRlO30uY2xzLTIye2ZpbGw6I2ZmZmRlZTt9LmNscy0yM3tzdHJva2U6IzMwNjk2NTtzdHJva2UtbWl0ZXJsaW1pdDoxMDtzdHJva2Utd2lkdGg6NzZweDt9LmNscy0yNHtmaWxsOiMzZDdmNzg7fTwvc3R5bGU+PGNsaXBQYXRoIHRyYW5zZm9ybT0idHJhbnNsYXRlKDAgMC4wMikiIGlkPSJjbGlwLXBhdGgiPjxwb2x5Z29uIHBvaW50cz0iNDQ3My44MyAzNzE4LjQxIDI1MDcuMjEgNDg1NS42MSA1MzkuMDYgMzcyMS4wNyA1MzcuNTIgMTQ0OS4zMyAyNTA0LjE0IDMxMi4xMiA0NDcyLjMgMTQ0Ni42NiA0NDczLjgzIDM3MTguNDEiIGNsYXNzPSJjbHMtMSIvPjwvY2xpcFBhdGg+PC9kZWZzPjxnIGNsYXNzPSJjbHMtMiI+PHBhdGggdHJhbnNmb3JtPSJ0cmFuc2xhdGUoMCAwLjAyKSIgZD0iTTAsMTkwLjM0VjEyLjUyYzQuMTUtLjI2LDguMy0uNzUsMTIuNDUtLjc3cTg4LjI1LS41LDE3Ni40OC0uODYsMTM5LjU3LS40NiwyNzkuMTYtLjc1LDEzNS44Mi0uMjcsMjcxLjY2LS4zOCwxMzcuNy0uMjQsMjc1LjQxLS41NnQyNzUuMzgtLjgzcTEzOS0uNCwyNzcuOTEtLjczLDEzNi40Ni0uMjcsMjcyLjkxLS4zOVExOTc5LjY5LDcsMjExOCw2LjdxMTM3LjA3LS4zNSwyNzQuMTQtLjgzLDEzOS41OC0uNDEsMjc5LjE1LS43MywxMzUuODQtLjI4LDI3MS42Ni0uMzksMTM4LjMzLS4yNCwyNzYuNjYtLjU2LDEzNy4wNy0uMzUsMjc0LjE0LS44MywxNTUuODUtLjQyLDMxMS43MS0uNzIsMjQ0LjEzLS4yNSw0ODguMjUtLjI4YzQuNTgsMCw5LjE3LS4yMiwxMy43NS0uMzQsMi45Mi4xMiw1LjgzLjM0LDguNzUuMzRoMjU3LjgyYzMuNzUsMCw3LjQ5LS4zMiwxMS4yNC0uNSw1LC4yLDEwLC41NiwxNSwuNTZxMTIxLjkyLjA2LDI0My44MywwYTgzLjQ2LDgzLjQ2LDAsMCwwLDEwLS4yYzIuMzktLjI5LDQuNjctMS40Niw3LTIuMjRoMTM3LjcyYy40NSw0Ljk1LDEuMjcsOS44OSwxLjI5LDE0Ljg0cS40MiwxMDUuMTUuNjUsMjEwLjMuMzksMTg5LC42OSwzNzguMDcuMTYsODUuNzUuNDMsMTcxLjUxLjM5LDE1Mi43MS43OSwzMDUuNDQuMzEsMTIzLjMxLjYsMjQ2LjYyLjM4LDE5OS42Ni42OSwzOTkuMzUuMTQsNzUuMTEuNDIsMTUwLjIyLjQxLDE1MC44NC43OSwzMDEuNjkuMzEsMTI1LjE3LjYxLDI1MC4zN2wuNjYsMjgwLjQxcS4yOCwxMzUuODQuNDYsMjcxLjY3LjMyLDEzOC4zMi43NywyNzYuNjQuMzUsMTM3LjcxLjU4LDI3NS40MXQuNDQsMjc1LjQycS4xNiwxNTcuMTMuMTksMzE0LjI0VjQzMzBjMCw1LC4xNiwxMCwuMjQsMTUtLjE1LDUuNDItLjQ0LDEwLjgzLS40NCwxNi4yNXEwLDI2MSwuMSw1MjEuOTVjMCw1LC4yMywxMCwuMjQsMTVxLjA3LDQzLjguMDcsODcuNjJjMCwzLjI3LjM4LDYuNzUtMy41NywxMC4yMy0zLjg1LjEzLTguNzkuNDUtMTMuNzIuNDZxLTcwLjcyLDAtMTQxLjQ1LjA2Yy00Ljk0LDAtMTAuMDUtLjg3LTE0LjcsMS44bC0yODUuNDkuNDEtMzYwLjYyLjQzcS05NC41My4xNS0xODkuMDcuNjRjLTkzLjQ4LjQ5LTE4Ny0uNDQtMjgwLjQ0LjgyLTkwLjU2LDEuMjItMTgxLjE1LjUtMjcxLjcyLjYxbC0zNjguMTQuNDNxLTkwLjc3LjE1LTE4MS41NS42NGMtOTUuNTYuNDctMTkxLjEzLS40NC0yODYuNy44NC04OC4wNiwxLjE3LTE3Ni4xNC40Ny0yNjQuMjEuNmwtMjgwLjQ4LjQycS0xMzUuODYuMjYtMjcxLjcxLjY3Yy05Mi42NC40LTE4NS4yOS0uMzgtMjc3Ljk0Ljc4LTk4LjA3LDEuMjQtMTk2LjE3LjUzLTI5NC4yNi42M3EtMjUxLjY4LjI0LTUwMy4zNy40M2MtNC41OSwwLTkuMTguMjItMTMuNzYuMzQtNC41OC0uMTMtOS4xNi0uNC0xMy43NC0uNHEtMTM2LjkyLjI5LTI3My44NS42MWMtNDYuMjguMDgtOTIuNTUtLjMtMTM4LjgyLjEtNDYuNjQuNDEtOTMuMjctLjY1LTEzOS45NCwxLjQ1LTQxLjYsMS44OC04My4zNS4zNS0xMjUsLjMzLS4xMi0yLjA4LS4zMi00LjE3LS4zNS02LjI1LS41NC00OC0uMjctOTUuOTMtLjkxLTE0My45MS0xLjIxLTkxLjM3LS42Mi0xODIuNzYtLjc3LTI3NC4xNHEtLjIxLTEzNi40NS0uNC0yNzIuOTEtLjIzLTE0My4zMi0uNDYtMjg2LjY3LS4zLTEzMi0uNzgtMjY0LjExLS40My0xMzkuNTctLjg1LTI3OS4xNC0uMzEtMTM2LjQ1LS40Mi0yNzIuOS0uMjEtMTM3LjctLjQ2LTI3NS40MXQtLjc4LTI3NS4zN2wtLjg0LTI3Ny44OXEtLjMxLTEzNy4wOS0uNDItMjc0LjE2VDcsMTgzMi4xNHEtLjMyLTEzOC4zMi0uNzgtMjc2LjYzLS40Mi0xMzcuNy0uODUtMjc1LjM5UTUsMTEzNy40MSw0LjkyLDk5NC43cS0uMjUtMjU3LjI1LS40Ny01MTQuNTJjMC00LjU4LS4yMi05LjE3LS4zNS0xMy43NS4yMS00LjU3LjYtOS4xNC42LTEzLjdxLjA2LTEyMy41MywwLTI0Ny4wNmMwLTMuMzItLjA3LTYuNjUtLjMtMTBBNS43NSw1Ljc1LDAsMCwwLDAsMTkwLjM0Wm0yNTA3LjYsODkyYy00NS45My0uMzYtOTEuNjgsMi41OC0xMzcuNDIsNi43cS02MS43Nyw1LjU4LTEyMi43MywxNi40NWMtNjQuMTMsMTEuNC0xMjcuNCwyNi4yNy0xODkuMzgsNDYuNjMtNjcuMDgsMjItMTMyLjk0LDQ3LTE5Ni41Miw3Ny43OS02Mi40MywzMC4yNC0xMjIuODgsNjMuOTMtMTgwLjQ2LDEwMi43LTUxLjYzLDM0Ljc3LTEwMS41NSw3MS43My0xNDguNCwxMTIuODEtNTAsNDMuNzktOTcuNzgsODkuNjQtMTQxLjUzLDEzOS43NC00NCw1MC4zNy04NS40OSwxMDIuNTItMTIyLjQyLDE1OC4zMy0zNiw1NC4zNi02OS4zNywxMTAuMTMtOTgsMTY4Ljc4LTMyLjU5LDY2Ljg4LTYxLjc1LDEzNS4xMi04My41NSwyMDYuMzMtOC40MywyNy41My0xNi42OSw1NS4xMi0yNC4yNiw4Mi44OWExMDY2LjY4LDEwNjYuNjgsMCwwLDAtMjQuNjEsMTEyLjQ2Yy01LjY5LDM1LjgzLTEwLjM3LDcxLjg1LTE0LjQ2LDEwNy45LTMuMTEsMjcuMzQtNS4zOSw1NC44My02LjU3LDgyLjMxLTEuMTEsMjUuOC0yLjU4LDUxLjYtMS4yMiw3Ny41NSwxLjUyLDI5LjE0LjQsNTguNDEsMyw4Ny41NSwyLjE1LDI0LjEsMy4yOSw0OC4zMSw2LjEyLDcyLjMzLDUuOCw0OS4zMSwxMyw5OC40MiwyNC40OSwxNDYuODMsOC4xOCwzNC41MSwxNi40MSw2OSwyNi4zMywxMDMuMDdhMTQ5MC43NSwxNDkwLjc1LDAsMCwwLDkxLjYsMjM2LjczYzI0LjM2LDQ5Ljk1LDUyLjExLDk3Ljk0LDgyLDE0NC44YTE0NzUuNjMsMTQ3NS42MywwLDAsMCwxNzkuOTQsMjI5YzIyLjgyLDIzLjc5LDQ2LjMzLDQ2Ljg3LDcwLjgyLDY5LDQ3Ljc2LDQzLjEzLDk3LjI0LDg0LDE1MC4zMywxMjAuNDcsNTcuMTYsMzkuMjQsMTE1LjYxLDc2LjI0LDE3Ny43OCwxMDcuMjIsNjAuMiwzMCwxMjEuMzYsNTcuNDksMTg1LjA5LDc5LjI1LDcxLjE2LDI0LjMsMTQzLjIsNDUuMDksMjE3LjMxLDU4LjMsMzUuNzMsNi4zNyw3MS40OCwxMi41OSwxMDcuNjEsMTYuMjQsMTguNjgsMS44OSwzNy4zNCwzLjkyLDU2LDUuMzQsMjIsMS42OCw0NC4xMSwzLjQzLDY2LjE5LDQsMjcuNTMuNjcsNTUuMDkuMiw4Mi42NC4wOCw4Ljc2LDAsMTcuNTMtLjM0LDI2LjI3LS44NSwxOS41OC0xLjEzLDM5LjE2LTIuMTksNTguNy0zLjc4LDIwLjc4LTEuNyw0MS41Ny0zLjUyLDYyLjI2LTYuMXE0NC4wNy01LjQ3LDg3LjctMTMuODljNjUuMjItMTIuNTcsMTI5LjcxLTI4LDE5Mi43Mi00OSw3NC41LTI0LjgyLDE0Ny4yLTUzLjk0LDIxNi43NC05MC44NSw2MC4xNy0zMS45MywxMTktNjUuOSwxNzQuNTgtMTA1LjMyLDUzLjUxLTM3Ljk1LDEwNS03OC4zLDE1My0xMjMuMDksNDYuNDUtNDMuMzIsOTEtODguNCwxMzEuNTEtMTM3LjM1LDQyLjY1LTUxLjQ3LDgyLjkxLTEwNC42MiwxMTguMjctMTYxLjQ1LDM1Ljc1LTU3LjQ3LDY5LTExNi4yNCw5Ni43Ny0xNzgsMjkuMzEtNjUuMTYsNTUuMzEtMTMxLjUxLDc0LjY5LTIwMC4zOCwxMC43NC0zOC4xNywyMS03Ni40NCwyOS0xMTUuMjksNy4xMS0zNC43NSwxNC4xNi02OS41MSwxOC0xMDQuODJxMy4yNC0yOS44Niw2LjU1LTU5LjcyYzMuNDYtMzAuNyw1LjI3LTYxLjUzLDYuMjctOTIuMzhhMTQxNi42NiwxNDE2LjY2LDAsMCwwLTQtMTYxLjMyYy0yLjg0LTM1LTYuMjItNjkuODMtMTEuNDUtMTA0LjQ4LTkuMDgtNjAuMjgtMjEuMDgtMTE5Ljk0LTM4LjEtMTc4LjU3LTExLjc1LTQwLjUtMjQtODAuNzktMzguNzktMTIwLjI5LTI0LjMxLTY1LTUyLjE4LTEyOC4yOS04NS4zMS0xODkuMzEtNDUuMTItODMuMTMtOTYuNjgtMTYxLjg4LTE1Ny4yNS0yMzQuNjQtMjMuNS0yOC4yNC00Ny40Ny01Ni03Mi43Ny04Mi42OEExNDk2LjEsMTQ5Ni4xLDAsMCwwLDM0MzQsMTQwNi4wOWMtNDguMzktMzguNDctOTguNjctNzQuMjItMTUxLjgzLTEwNS45NC01OC44NC0zNS4xMS0xMTkuMS02Ny4yNy0xODIuMTUtOTQuMjktNzUuMzItMzIuMjgtMTUyLjM5LTU5LjE3LTIzMi03OC43OS0zOC4wOS05LjM5LTc2LjM5LTE3Ljc1LTExNS4wOC0yNC4xOS0yMy40NS0zLjkxLTQ3LTcuNS03MC41OS0xMC4xOXMtNDcuMzYtNC4xMy03MS02QzI1NzYuODQsMTA4My44NiwyNTQyLjI2LDEwODIuMDYsMjUwNy42LDEwODIuMjlaIiBjbGFzcz0iY2xzLTMiLz48cGF0aCB0cmFuc2Zvcm09InRyYW5zbGF0ZSgwIDAuMDIpIiBkPSJNNC4wNiw0NjYuNDljLjEzLDQuNTguMzUsOS4xNy4zNSwxMy43NXEuMjUsMjU3LjI3LjQ3LDUxNC41Mi4xNSwxNDIuNzEuNDEsMjg1LjQyLjMyLDEzNy43Ljg1LDI3NS4zOS40MSwxMzguMzIuNzgsMjc2LjYzLjMxLDEzNy4wNy40NiwyNzQuMTV0LjQyLDI3NC4xNnEuMzIsMTM4Ljk0Ljg0LDI3Ny44OS40MiwxMzcuNjguNzgsMjc1LjM3dC40NiwyNzUuNDFsLjQyLDI3Mi45cS4zMSwxMzkuNTguODUsMjc5LjE0LjQsMTMyLjA2Ljc4LDI2NC4xMS4zMiwxNDMuMzQuNDYsMjg2LjY3LjE5LDEzNi40NS40LDI3Mi45MWMuMTUsOTEuMzgtLjQ0LDE4Mi43Ny43NywyNzQuMTQuNjQsNDgsLjM3LDk1Ljk1LjkxLDE0My45MSwwLDIuMDguMjMsNC4xNy4zNSw2LjI1YTUuNTMsNS41MywwLDAsMCwuMjEsMi4xNEgwVjQ2NS44MloiIGNsYXNzPSJjbHMtNCIvPjxwYXRoIHRyYW5zZm9ybT0idHJhbnNsYXRlKDAgMC4wMikiIGQ9Ik03MDYuMjEsNTAwNy4xMmM0LjU4LS4xMiw5LjE3LS4zNCwxMy43Ni0uMzRxMjUxLjY4LS4yNCw1MDMuMzctLjQzYzk4LjA5LS4xLDE5Ni4xOS42MSwyOTQuMjYtLjYzLDkyLjY1LTEuMTYsMTg1LjMtLjM4LDI3Ny45NC0uNzhxMTM1Ljg2LS42LDI3MS43MS0uNjcsMTQwLjIzLS4yNywyODAuNDgtLjQyYzg4LjA3LS4xMywxNzYuMTUuNTcsMjY0LjIxLS42LDk1LjU3LTEuMjgsMTkxLjE0LS4zNywyODYuNy0uODRxOTAuNzgtLjQ2LDE4MS41NS0uNjQsMTg0LjA3LS4zLDM2OC4xNC0uNDNjOTAuNTctLjExLDE4MS4xNi42MSwyNzEuNzItLjYxLDkzLjQ5LTEuMjYsMTg3LS4zMywyODAuNDQtLjgycTk0LjUzLS41MSwxODkuMDctLjY0LDE4MC4zLS4zLDM2MC42Mi0uNDMsMTQyLjc0LS4xOCwyODUuNDktLjQxYzIuOS4xOCw1LjguNTEsOC43LjUxcTgzLjQ5LDAsMTY3LS4xMXYxMi41Mkg0MjguMjZjNC44Ni0zLjQ1LDEwLjQ1LTIuMjYsMTUuNzctMi4yN3ExMjMuMTItLjEsMjQ2LjI1LS4wOUM2OTUuNjMsNTAwOSw3MDEuMTcsNTAxMCw3MDYuMjEsNTAwNy4xMloiIGNsYXNzPSJjbHMtNSIvPjxwYXRoIHRyYW5zZm9ybT0idHJhbnNsYXRlKDAgMC4wMikiIGQ9Ik01MDA5LjE0LDQzNDVjLS4wOC01LS4yNC0xMC0uMjQtMTVWNDEyMi4yMnEtLjA2LTE1Ny4xMy0uMTktMzE0LjI0LS4xNS0xMzcuNy0uNDQtMjc1LjQydC0uNTgtMjc1LjQxcS0uMzQtMTM4LjMyLS43Ny0yNzYuNjQtLjMtMTM1Ljg0LS40Ni0yNzEuNjctLjI4LTE0MC4yMS0uNjYtMjgwLjQxLS4zLTEyNS4xOS0uNjEtMjUwLjM3LS4zNy0xNTAuODYtLjc5LTMwMS42OS0uMTktNzUuMTEtLjQyLTE1MC4yMi0uMzctMTk5LjY4LS42OS0zOTkuMzUtLjI0LTEyMy4zMi0uNi0yNDYuNjItLjM5LTE1Mi43Mi0uNzktMzA1LjQ0LS4yMS04NS43NS0uNDMtMTcxLjUxLS4zNi0xODktLjY5LTM3OC4wNy0uMjItMTA1LjE1LS42NS0yMTAuM2MwLTUtLjg0LTkuODktMS4yOS0xNC44NGgxMi41MlY0MzQ1LjE4QTE1LDE1LDAsMCwwLDUwMDkuMTQsNDM0NVoiIGNsYXNzPSJjbHMtNiIvPjxwYXRoIHRyYW5zZm9ybT0idHJhbnNsYXRlKDAgMC4wMikiIGQ9Ik00MzA3LjQ4LDJjLTQuNTguMTItOS4xNy4zNC0xMy43NS4zNGwtNDg4LjI1LjI4cS0xNTUuODYuMTgtMzExLjcxLjcyLTEzNy4wNy4zOC0yNzQuMTQuODMtMTM4LjMzLjM2LTI3Ni42Ni41Ni0xMzUuODIuMjMtMjcxLjY2LjM5LTEzOS41Ny4yNy0yNzkuMTUuNzMtMTM3LjA3LjM5LTI3NC4xNC44My0xMzguMzMuMzQtMjc2LjY2LjU1LTEzNi40NS4yNC0yNzIuOTEuMzktMTM5LC4yOS0yNzcuOTEuNzMtMTM3LjY4LjM5LTI3NS4zOC44M3QtMjc1LjQxLjU2cS0xMzUuODQuMjItMjcxLjY2LjM4LTEzOS41OS4yOS0yNzkuMTYuNzUtODguMjUuMjktMTc2LjQ4Ljg2Yy00LjE1LDAtOC4zLjUxLTEyLjQ1Ljc3VjBINDMwNy42MUM0MzA3LjU1LjY3LDQzMDcuNTEsMS4zNCw0MzA3LjQ4LDJaIiBjbGFzcz0iY2xzLTciLz48cGF0aCB0cmFuc2Zvcm09InRyYW5zbGF0ZSgwIDAuMDIpIiBkPSJNNzA2LjIxLDUwMDcuMTJjLTUsMi44OC0xMC41OCwxLjg3LTE1LjkzLDEuODdxLTEyMy4xMi4wOS0yNDYuMjUuMDljLTUuMzIsMC0xMC45MS0xLjE4LTE1Ljc3LDIuMjdIMTVhNS41Myw1LjUzLDAsMCwxLS4yMS0yLjE0YzQxLjY5LDAsODMuNDQsMS41NSwxMjUtLjMzLDQ2LjY3LTIuMSw5My4zLTEsMTM5Ljk0LTEuNDUsNDYuMjctLjQsOTIuNTQsMCwxMzguODItLjFxMTM2LjkyLS4yNCwyNzMuODUtLjYxQzY5Ny4wNSw1MDA2LjcyLDcwMS42Myw1MDA3LDcwNi4yMSw1MDA3LjEyWiIgY2xhc3M9ImNscy04Ii8+PHBhdGggdHJhbnNmb3JtPSJ0cmFuc2xhdGUoMCAwLjAyKSIgZD0iTTUwMDkuMTQsNDM0NWExNC44MiwxNC44MiwwLDAsMSwyLjIxLjE0djY1My42NXEtODMuNDkuMDgtMTY3LC4xMWMtMi45LDAtNS44LS4zMy04LjctLjUxLDQuNjUtMi42Nyw5Ljc2LTEuOCwxNC43LTEuOHE3MC43Mi0uMSwxNDEuNDUtLjA2YzQuOTMsMCw5Ljg3LS4zMywxMy43Mi0uNDYsMy45NS0zLjQ4LDMuNTctNywzLjU3LTEwLjIzcTAtNDMuODEtLjA3LTg3LjYyYzAtNS0uMjMtMTAtLjI0LTE1cS0uMDYtMjYxLS4xLTUyMS45NUM1MDA4LjcsNDM1NS44Nyw1MDA5LDQzNTAuNDYsNTAwOS4xNCw0MzQ1WiIgY2xhc3M9ImNscy05Ii8+PHBhdGggdHJhbnNmb3JtPSJ0cmFuc2xhdGUoMCAwLjAyKSIgZD0iTTQuMDYsNDY2LjQ5LDAsNDY1LjgyVjE5MC4zNGE1Ljc2LDUuNzYsMCwwLDEsNC4zOCw1LjQzYy4yMywzLjMxLjMsNi42NC4zLDEwVjQ1Mi44M0M0LjY2LDQ1Ny4zNSw0LjI3LDQ2MS45Miw0LjA2LDQ2Ni40OVoiIGNsYXNzPSJjbHMtMTAiLz48cGF0aCB0cmFuc2Zvcm09InRyYW5zbGF0ZSgwIDAuMDIpIiBkPSJNNDMwNy40OCwyYzAtLjY4LjA3LTEuMzUuMTMtMmgyNzhhMTEuNzEsMTEuNzEsMCwwLDAtLjMxLDEuODVjLTMuNzUuMTgtNy40OS41LTExLjI0LjVINDMxNi4yNEM0MzEzLjMxLDIuMzYsNDMxMC40LDIuMTQsNDMwNy40OCwyWiIgY2xhc3M9ImNscy0xMSIvPjxwYXRoIHRyYW5zZm9ybT0idHJhbnNsYXRlKDAgMC4wMikiIGQ9Ik00NTg1LjI5LDEuODVBMTEuNzEsMTEuNzEsMCwwLDEsNDU4NS42LDBoMjc1LjQ5Yy0yLjMzLjc4LTQuNjEsMi03LDIuMjRhODMuNDYsODMuNDYsMCwwLDEtMTAsLjJINDYwMC4yNkM0NTk1LjI4LDIuNDEsNDU5MC4yOCwyLjA1LDQ1ODUuMjksMS44NVoiIGNsYXNzPSJjbHMtMTAiLz48cGF0aCB0cmFuc2Zvcm09InRyYW5zbGF0ZSgwIDAuMDIpIiBkPSJNMjUwNy42LDEwODIuMjljMzQuNjYtLjIxLDY5LjI0LDEuNTksMTAzLjc4LDQuMzMsMjMuNjksMS44OSw0Ny40NCwzLjMzLDcxLDZzNDcuMTQsNi4yOCw3MC41OSwxMC4xOWMzOC42OSw2LjQ0LDc3LDE0LjgsMTE1LjA4LDI0LjE5LDc5LjU5LDE5LjYyLDE1Ni42Niw0Ni41MSwyMzIsNzguNzksNjMuMDUsMjcsMTIzLjMxLDU5LjE4LDE4Mi4xNSw5NC4yOSw1My4xNiwzMS43MiwxMDMuNDQsNjcuNDcsMTUxLjgzLDEwNS45NGExNDk3LjQsMTQ5Ny40LDAsMCwxLDE1NC42OSwxNDIuMjdjMjUuMywyNi42OCw0OS4yNyw1NC40NCw3Mi43Nyw4Mi42OCw2MC41Nyw3Mi43NiwxMTIuMTMsMTUxLjUxLDE1Ny4yNSwyMzQuNjQsMzMuMTMsNjEsNjEsMTI0LjM0LDg1LjMxLDE4OS4zMSwxNC43OCwzOS41LDI3LDc5Ljc5LDM4Ljc5LDEyMC4yOSwxNyw1OC42MywyOSwxMTguMjksMzguMSwxNzguNTcsNS4yMywzNC42NSw4LjYxLDY5LjUzLDExLjQ1LDEwNC40OGExNDE2LjY2LDE0MTYuNjYsMCwwLDEsNCwxNjEuMzJjLTEsMzAuODUtMi44MSw2MS42OC02LjI3LDkyLjM4cS0zLjM2LDI5Ljg1LTYuNTUsNTkuNzJjLTMuODQsMzUuMzEtMTAuODksNzAuMDctMTgsMTA0LjgyLTgsMzguODUtMTguMjcsNzcuMTItMjksMTE1LjI5LTE5LjM4LDY4Ljg3LTQ1LjM4LDEzNS4yMi03NC42OSwyMDAuMzgtMjcuNzksNjEuNzktNjEsMTIwLjU2LTk2Ljc3LDE3OC0zNS4zNiw1Ni44My03NS42MiwxMTAtMTE4LjI3LDE2MS40NS00MC41Niw0OS04NS4wNiw5NC0xMzEuNTEsMTM3LjM1LTQ4LDQ0Ljc5LTk5LjUzLDg1LjE0LTE1MywxMjMuMDktNTUuNiwzOS40Mi0xMTQuNDEsNzMuMzktMTc0LjU4LDEwNS4zMi02OS41NCwzNi45MS0xNDIuMjQsNjYtMjE2Ljc0LDkwLjg1LTYzLDIxLTEyNy41LDM2LjQxLTE5Mi43Miw0OXEtNDMuNjUsOC40LTg3LjcsMTMuODljLTIwLjY5LDIuNTgtNDEuNDgsNC40LTYyLjI2LDYuMS0xOS41NCwxLjU5LTM5LjEyLDIuNjUtNTguNywzLjc4LTguNzQuNTEtMTcuNTEuODEtMjYuMjcuODUtMjcuNTUuMTItNTUuMTEuNTktODIuNjQtLjA4LTIyLjA4LS41My00NC4xNS0yLjI4LTY2LjE5LTQtMTguNzEtMS40Mi0zNy4zNy0zLjQ1LTU2LTUuMzQtMzYuMTMtMy42NS03MS44OC05Ljg3LTEwNy42MS0xNi4yNC03NC4xMS0xMy4yMS0xNDYuMTUtMzQtMjE3LjMxLTU4LjMtNjMuNzMtMjEuNzYtMTI0Ljg5LTQ5LjI2LTE4NS4wOS03OS4yNS02Mi4xNy0zMS0xMjAuNjItNjgtMTc3Ljc4LTEwNy4yMi01My4wOS0zNi40NS0xMDIuNTctNzcuMzQtMTUwLjMzLTEyMC40Ny0yNC40OS0yMi4xMi00OC00NS4yLTcwLjgyLTY5YTE0NzUuNjMsMTQ3NS42MywwLDAsMS0xNzkuOTQtMjI5Yy0yOS44Ni00Ni44Ni01Ny42MS05NC44NS04Mi0xNDQuOGExNDkwLjc1LDE0OTAuNzUsMCwwLDEtOTEuNi0yMzYuNzNjLTkuOTItMzQuMDgtMTguMTUtNjguNTYtMjYuMzMtMTAzLjA3LTExLjQ2LTQ4LjQxLTE4LjY5LTk3LjUyLTI0LjQ5LTE0Ni44My0yLjgzLTI0LTQtNDguMjMtNi4xMi03Mi4zMy0yLjYtMjkuMTQtMS40OC01OC40MS0zLTg3LjU1LTEuMzYtMjUuOTUuMTEtNTEuNzUsMS4yMi03Ny41NSwxLjE4LTI3LjQ4LDMuNDYtNTUsNi41Ny04Mi4zMSw0LjA5LTM2LDguNzctNzIuMDcsMTQuNDYtMTA3LjlBMTA2Ni42OCwxMDY2LjY4LDAsMCwxLDEwNjMsMjIwMS40MmM3LjU3LTI3Ljc3LDE1LjgzLTU1LjM2LDI0LjI2LTgyLjg5LDIxLjgtNzEuMjEsNTEtMTM5LjQ1LDgzLjU1LTIwNi4zMywyOC41OC01OC42NSw2Mi0xMTQuNDIsOTgtMTY4Ljc4LDM2LjkzLTU1LjgxLDc4LjQ1LTEwOCwxMjIuNDItMTU4LjMzLDQzLjc1LTUwLjEsOTEuNTgtOTYsMTQxLjUzLTEzOS43NCw0Ni44NS00MS4wOCw5Ni43Ny03OCwxNDguNC0xMTIuODEsNTcuNTgtMzguNzcsMTE4LTcyLjQ2LDE4MC40Ni0xMDIuNyw2My41OC0zMC44MSwxMjkuNDQtNTUuNzQsMTk2LjUyLTc3Ljc5LDYyLTIwLjM2LDEyNS4yNS0zNS4yMywxODkuMzgtNDYuNjNxNjEtMTAuODUsMTIyLjczLTE2LjQ1QzI0MTUuOTIsMTA4NC44NSwyNDYxLjY3LDEwODEuOTEsMjUwNy42LDEwODIuMjlabS0xMjgwLDIxMDMuNGMxLjc4LDQuMjEsMy4zNCw4LjUyLDUuMzYsMTIuNjEsMjAuMTEsNDAuODEsNDEuNjksODAuNzksNjUuODIsMTE5LjQxLDM1LDU2LDcyLjY1LDExMCwxMTUuMTEsMTYwLjU4LDQxLjg5LDQ5LjkyLDg2LjEsOTcuNTYsMTM0LjUzLDE0MS4yNiw0OS4zMiw0NC41LDEwMC41NSw4Ni40NywxNTUuNzIsMTIzLjYxLDU0LjM5LDM2LjYxLDExMC4yMyw3MC41OSwxNjkuMTgsOTkuNSw2OS40MSwzNCwxNDAuNTYsNjMuNDYsMjE0LjU2LDg2LjA1LDYwLjMyLDE4LjQxLDEyMS4zMiwzMy44OCwxODMuNTgsNDMuODEsMzIuOTIsNS4yNSw2Ni4xLDguODcsOTkuMjIsMTIuNzUsMzQuODIsNC4wOCw2OS44Miw1Ljg4LDEwNC44Niw2Ljc0LDMxLjcxLjc5LDYzLjM5LS4xMyw5NS4wOC0xLjYxLDQwLjQ0LTEuODgsODAuNzQtNSwxMjAuODgtMTAuMzEsNTkuNTktNy44OCwxMTguNDctMTksMTc2LjU5LTM0LjY1LDk1LTI1LjU0LDE4Ni43Ny01OS4yLDI3NC42Ni0xMDMuNDEsNTcuNDYtMjguOTEsMTEzLTYxLDE2Ni05Ny41NGExNDE5LjMsMTQxOS4zLDAsMCwwLDE1OC4zMi0xMjYuMzVjNTIuNTEtNDguNTEsMTAxLjU2LTEwMC4xOCwxNDYuNDEtMTU1LjgyLDM2Ljk0LTQ1Ljg1LDcxLjI3LTkzLjU1LDEwMS43Ni0xNDQsMjIuODktMzcuODcsNDQuODEtNzYuMjUsNjQuNDItMTE1LjkyLDEuODMtMy43LDMuMTctNy42NSw0Ljc0LTExLjQ5QTExLjA2LDExLjA2LDAsMCwwLDM3ODYsMzE4OWMxMS42My0yMi42NywyMS4yNy00Ni4yMiwzMC44LTY5LjgxLDEuMDYtMi42MywxLjM0LTUuNTcsMi04LjM2LDMuNzEtMi41OSw0LjU5LTYuODIsNi4xMi0xMC42NiwyMS42OC01NC4zMSw0MC44LTEwOS40Nyw1NC43NS0xNjYuMzEsNi0yNC4zMSwxMi4zNi00OC41NCwxNy4yNS03My4wNyw2LjM1LTMxLjg5LDExLjY0LTY0LDE2Ljg4LTk2LjA5LDIuNDktMTUuMjEsNC4xMy0zMC41OCw1LjU3LTQ1LjkzczIuMjctMzAuNzcsMy4xNy00Ni4xNmMxLjQ5LTI1LjM4LDMuNTEtNTAuNzYsNC03Ni4xNy41Ni0yNy45Mi40NS01NS44NS0xLjI5LTgzLjgxLTEuNjMtMjYuMi0yLjYtNTIuNDItNS41Ni03OC41NS00LTM1LjY0LTguNS03MS4xOC0xNC42My0xMDYuNTRhMTQxNywxNDE3LDAsMCwwLTQ4LjczLTE5Ni42MmMtMTIuNTMtMzguNS0yNy43My03Ni00My4yMi0xMTMuNDMtMjIuMjQtNTMuNjgtNDguNjMtMTA1LjMtNzcuNTItMTU1LjY0LTMyLTU1LjgxLTY4LjItMTA4LjgzLTEwNy41NC0xNTkuNzktMzUuNzctNDYuMzMtNzQuODUtODkuNjQtMTE1LjY2LTEzMS40NS0xMS45NC0xMi4yNC0yNC42Ni0yMy43MS0zNy4wNS0zNS41LTI2LTI0Ljc0LTUyLjg3LTQ4LjUyLTgxLjM5LTcwLjMzLTI1Ljg0LTE5Ljc2LTUxLjc0LTM5LjQ5LTc4LjI3LTU4LjMxYTEwMzUsMTAzNSwwLDAsMC05OS40My02Mi44MmMtMTQuNjItOC0yOS4wNi0xNi40My00My43Ny0yNC4zYTEzOTQuODIsMTM5NC44MiwwLDAsMC0xNzUuOTEtNzguNDdjLTYwLjc4LTIyLjM5LTEyMi41OS00MS4xMi0xODYuMDctNTQuMTgtNy4zNS0xLjUxLTE0LjY0LTMuMzItMjItNC43OXEtNjYuMjctMTMuMjUtMTMzLjQ1LTIwLjdjLTM0LTMuODMtNjguMTctNS41NS0xMDIuMzEtNi41NC00OS42Mi0xLjQ0LTk5LjI5LTEuMjItMTQ4Ljg2LDIuNDctMTIuMDYuODktMjQuMTYsMS41LTM2LjE0LDMtMjguMTIsMy41OC01Ni4yMiw3LjMzLTg0LjI0LDExLjU3LTY2LjEyLDEwLTEzMSwyNS40LTE5NSw0NC45YTEzNjUuNDIsMTM2NS40MiwwLDAsMC0xOTYuNjEsNzcuNDlBMTQ1My4wNywxNDUzLjA3LDAsMCwwLDE3MTYsMTM5NC43N2ExMzc2LDEzNzYsMCwwLDAtMTcxLjc1LDEzNS41MiwxNDY4LjkyLDE0NjguOTIsMCwwLDAtMTM3LjEsMTQ1Ljc3LDE0MTkuMzQsMTQxOS4zNCwwLDAsMC0xMTcsMTY2LjkyYy0yMy42NywzOS4zMS00Ni4yNCw3OS4yOC02NC44MywxMjEuMzYtOS42MSwyMS43NS0xOS44Nyw0My4yMi0yOS4xMyw2NS4xMi0yMS4xNiw1MC0zOS41OCwxMDEtNTMuNDgsMTUzLjU1LTguMjEsMzEtMTYuMjYsNjIuMTYtMjMuNDEsOTMuNDdhMTAxOS4xNCwxMDE5LjE0LDAsMCwwLTE5LjQxLDExMy4zOWMtMS44MSwxNi4xNS00LDMyLjI4LTUuNSw0OC40Ni0xLjM2LDE0LjEtMi4yNSwyOC4yNi0zLjA4LDQyLjQxLTEuNDYsMjUtMi45Miw0OS45NC00LDc0LjkzLTEuMjksMzAsMS40Myw2MCwyLjMyLDkwLC40MiwxNC4xNiwxLjUxLDI4LjMyLDIuODUsNDIuNDMsMS45NCwyMC4zMyw0LDQwLjY2LDYuNjgsNjAuOTEsMy4zNiwyNS42Miw2LjYzLDUxLjI5LDExLjI0LDc2LjcxLDkuNjksNTMuMzksMjEuMzQsMTA2LjM1LDM4LjU1LDE1Ny45MiwxMSwzMi44NCwyMiw2NS42NywzMy4zNyw5OC4zNywzLjEzLDksNy43MiwxNy40NSwxMS42NCwyNi4xNSwxLjMsNC4zNSwyLjIsOC44Nyw0LDEzcTEwLjM4LDI0LDIxLjI2LDQ3LjgzYzIuNTksNS42Niw1LjU5LDExLjEzLDguMzQsMTYuNjhaIiBjbGFzcz0iY2xzLTEyIi8+PHBhdGggdHJhbnNmb3JtPSJ0cmFuc2xhdGUoMCAwLjAyKSIgZD0iTTExOTQsMzEwOC4xNWMtMy45Mi04LjctOC41MS0xNy4xNy0xMS42NC0yNi4xNS0xMS40LTMyLjctMjIuNDEtNjUuNTMtMzMuMzctOTguMzctMTcuMjEtNTEuNTctMjguODYtMTA0LjUzLTM4LjU1LTE1Ny45Mi00LjYxLTI1LjQyLTcuODgtNTEuMDktMTEuMjQtNzYuNzEtMi42Ni0yMC4yNS00Ljc0LTQwLjU4LTYuNjgtNjAuOTEtMS4zNC0xNC4xMS0yLjQzLTI4LjI3LTIuODUtNDIuNDMtLjg5LTMwLTMuNjEtNjAtMi4zMi05MCwxLjA3LTI1LDIuNTMtNTAsNC03NC45My44My0xNC4xNSwxLjcyLTI4LjMxLDMuMDgtNDIuNDEsMS41NS0xNi4xOCwzLjY5LTMyLjMxLDUuNS00OC40NmExMDE5LjE0LDEwMTkuMTQsMCwwLDEsMTkuNDEtMTEzLjM5YzcuMTUtMzEuMzEsMTUuMi02Mi40MiwyMy40MS05My40NywxMy45LTUyLjU0LDMyLjMyLTEwMy41NCw1My40OC0xNTMuNTUsOS4yNi0yMS45LDE5LjUyLTQzLjM3LDI5LjEzLTY1LjEyLDE4LjU5LTQyLjA4LDQxLjE2LTgyLDY0LjgzLTEyMS4zNmExNDIwLjE3LDE0MjAuMTcsMCwwLDEsMTE3LTE2Ni45MiwxNDY5LDE0NjksMCwwLDEsMTM3LjExLTE0NS43NiwxMzc2LDEzNzYsMCwwLDEsMTcxLjgtMTM1LjQ2LDE0NTMuMDcsMTQ1My4wNywwLDAsMSwxNzUuODUtMTAwLjY1LDEzNjUuNDIsMTM2NS40MiwwLDAsMSwxOTYuNjEtNzcuNDljNjMuOTQtMTkuNSwxMjguODMtMzQuOTEsMTk1LTQ0LjksMjgtNC4yNCw1Ni4xMi04LDg0LjI0LTExLjU3LDEyLTEuNTMsMjQuMDgtMi4xNCwzNi4xNC0zLDQ5LjU3LTMuNjksOTkuMjQtMy45MSwxNDguODYtMi40NywzNC4xNCwxLDY4LjI3LDIuNzEsMTAyLjMxLDYuNTRxNjcuMiw3LjU2LDEzMy40NSwyMC43YzcuMzcsMS40NywxNC42NiwzLjI4LDIyLDQuNzksNjMuNDgsMTMuMDYsMTI1LjI5LDMxLjc5LDE4Ni4wNyw1NC4xOGExMzk0LjgyLDEzOTQuODIsMCwwLDEsMTc1LjkxLDc4LjQ3YzE0LjcxLDcuODcsMjkuMTUsMTYuMjUsNDMuNzcsMjQuM2ExMDM1LDEwMzUsMCwwLDEsOTkuNDMsNjIuODJjMjYuNTMsMTguODIsNTIuNDMsMzguNTUsNzguMjcsNTguMzEsMjguNTIsMjEuODEsNTUuMzgsNDUuNTksODEuMzksNzAuMzMsMTIuMzksMTEuNzksMjUuMTEsMjMuMjYsMzcsMzUuNSw0MC44MSw0MS44MSw3OS44OSw4NS4xMiwxMTUuNjYsMTMxLjQ1LDM5LjM0LDUxLDc1LjUxLDEwNCwxMDcuNTQsMTU5Ljc5LDI4Ljg5LDUwLjM0LDU1LjI4LDEwMiw3Ny41MiwxNTUuNjQsMTUuNDksMzcuNCwzMC42OSw3NC45Myw0My4yMiwxMTMuNDNhMTQxNywxNDE3LDAsMCwxLDQ4LjczLDE5Ni42MmM2LjEzLDM1LjM2LDEwLjU5LDcwLjksMTQuNjMsMTA2LjU0LDMsMjYuMTMsMy45Myw1Mi4zNSw1LjU2LDc4LjU1LDEuNzQsMjgsMS44NSw1NS44OSwxLjI5LDgzLjgxLS41MSwyNS40MS0yLjUzLDUwLjc5LTQsNzYuMTctLjksMTUuMzktMS43MywzMC44MS0zLjE3LDQ2LjE2cy0zLjA4LDMwLjcyLTUuNTcsNDUuOTNjLTUuMjQsMzIuMDktMTAuNTMsNjQuMi0xNi44OCw5Ni4wOS00Ljg5LDI0LjUzLTExLjI4LDQ4Ljc2LTE3LjI1LDczLjA3LTEzLjk1LDU2Ljg0LTMzLjA3LDExMi01NC43NSwxNjYuMzEtMS41MywzLjg0LTIuNDEsOC4wNy02LjEyLDEwLjY1LTMuMTgtMS02LjMxLTIuMzEtOS41Ni0yLjg0YTE4OCwxODgsMCwwLDAtNDYuMTQtMS40N2MtOC40NS42OS0xNi41NCwyLjY4LTIyLjYzLDkuMjUtMy40NSwzLjcyLTcuODEsNC43NS0xMi41NCw0LjI0LTcuNDUtLjgyLTE1LTEuNDQtMjIuMjgtM2E0Ny40OSw0Ny40OSwwLDAsMC0yMS4wNS0uM2MtMy44NS44OC03LjI4LjIyLTExLS42NS0xMy4zOC0zLjEyLTI2Ljc1LTYuNDgtNDAuMzItOC41Ni0yMC40LTMuMTItNDAuNjEtMy43OS01OS41Miw3LjQ2LTcuMzksNC4zOS0xNiw0LjMtMjQuMzIsMS40Ni0xMi43Ny00LjM4LTI1LjkzLTYtMzkuNC01LjkzLTQuMTEsMC04LjcxLjA5LTEyLjI2LTEuNi0xMi4yOS01Ljg4LTI1LjI3LTcuOTQtMzguNjItOS41My0xMi4zNC0xLjQ2LTI0LjEzLTEuMDktMzUuNDUsNC4yOWExNS41NSwxNS41NSwwLDAsMS0xMi4xLDEuMDZjLTYuNDgtMi4xNi0xMy4xMy0xLjcxLTE5LjgzLTEuNTFhMTAxLjEsMTAxLjEsMCwwLDEtMTYuMTItMSwxMjMuMiwxMjMuMiwwLDAsMS0xMy40My0yLjk1LDEwNi40NywxMDYuNDcsMCwwLDAtNjEuNiwyLjUzYy03LjQ5LDIuNTctMTUuMTUsNC42NS0yMi43MSw3YTQ2Ljg1LDQ2Ljg1LDAsMCwxLTI4LjE0Ljc1LDc0LjA3LDc0LjA3LDAsMCwwLTQwLjguNTVjLTE0Ljk0LDQuMzItMjkuNDEsNC43My00NC4wOS0uMjMtMTMuNTItNC41Ny0yNi44OS00LjkxLTQwLjI3Ljg4YTI3LjE2LDI3LjE2LDAsMCwxLTEwLjg1LDIuMjNjLTE3LjQ5LS4yOC0zNS0xLTUyLjQ4LTEuNDctMy43NS0uMS03LjUsMC0xMS4yNS4xNC0yLjQ5LjA3LTUsLjctNy40Ni4zOC0xMi0xLjU4LTIzLjkxLTMuNDQtMzUuODctNS4xMXEtNi4xOC0uODUtMTIuNC0xLjNjLTguNzItLjY4LTE3LjQ4LTEtMjYuMTUtMi0xMC43Ni0xLjIzLTIwLjcyLjM3LTMwLDYuMTJhNDAuNzMsNDAuNzMsMCwwLDEtOSw0LjA5Yy0xNS44Niw1LjA2LTMxLjYxLDEwLjc2LTQ4LjY4LDkuOTJhMjIuMTYsMjIuMTYsMCwwLDAtMy43Mi40OWMtMjUuNTYsMy4wNi01MC43OSwzLTc1LTcuNTgtLjM4LS4xNy0uNzgtLjI5LTEuMTctLjQ1YTQzLjQ3LDQzLjQ3LDAsMCwwLTIwLjgtMy4zLDUzLjgzLDUzLjgzLDAsMCwxLTE3LjMzLTEuNjMsMTM1LjI2LDEzNS4yNiwwLDAsMC0zMS0zLjIzYy0xMS4zMSwwLTIyLjQyLDEuNTYtMzMuNjMsMi4zNXEtMjcuNDUsMS45Mi01NSwyLjQ2Yy03LjQyLjE2LTE0LjExLDEuNDctMTkuNzcsNi4yMi00LjUyLDMuNzktOS41Nyw0LjQ3LTE1LjE4LDQuNC04Ljg3LS4xMS0xNy4zNy0yLTI1Ljg3LTQuMTYtNy4yOC0xLjg1LTE0LjUzLTMuNjItMjIuMjEtMi0yLjc1LjU5LTUuNzksMC04LjY5LS4yNi01LjgtLjQxLTExLjU5LS45MS0xNy4zOS0xLjM4LS4zNy00LjU3LTEtOS4xMy0xLjA3LTEzLjcxcS0uNjktMjYuOTEtMS4xMS01My44MmMtLjI4LTE5LjItLjMyLTM4LjQtLjYxLTU3LjU5LS4xNy0xMS42OC0xLjI0LTIzLjM3LS44LTM1LDItNTMsNC40Mi0xMDUuODgsNi41OS0xNTguODIsMS0yNC42MSwyLjY0LTQ5LDcuNTUtNzMuMzMsOS44Mi00OC42MSwyNS4yMy05NS4xLDQ4Ljg0LTEzOC43OGExODguNywxODguNywwLDAsMSwyNC4yMS0zNC45MWMxLjYtMS44MiwzLjUxLTMuMzYsNS40Ni01LjJhMzIsMzIsMCwwLDEsNC40NywzYzYuMjUsNi4xNCwxMi41NywxMi4yMiwxOC41OCwxOC41OSwxNy43NywxOC44MywzNS44NSwzNy4yOCw1NS44OSw1My43OCwyNy40OCwyMi42Miw1Ny42MiwyNi4yMyw5MC4zOSwxNC4xMSwxOC4xMS02LjcsMzQuOTEtMTUuOSw1MS0yNi40OSwyMy0xNS4xNiw0NC43Mi0zMi4xNCw2Ni4xNC00OS40OCwyLjgtMi4yNiw1LjA5LTUuNzIsOS42MS01LjIzYTIyLjM5LDIyLjM5LDAsMCwxLDIuNzMsMi40MmMxMS41LDE0LDI1LjM0LDI1LjM2LDQwLDM1Ljg0LDIxLjc2LDE1LjU4LDQ0LjQ2LDI5LjY3LDY4LjgxLDQwLjgxLDIxLjYyLDkuOSw0My42MywxOC45Myw2NS4zNSwyOC41OSw0NC4zMSwxOS43LDg3LjU5LDQxLjI3LDEyNi4zNCw3MC45YTE5LjY1LDE5LjY1LDAsMCwwLDQuMjUsMi41OWM0LjM5LDEuODYsOS44Ny0uNCwxMS4yNy00Ljk1YTMwLjYxLDMwLjYxLDAsMCwwLDEtOC42M2MuMDktOC43NiwwLTE3LjUzLS4wOS0yNi4yOS0uMjQtMTcuOTQtLjA3LTM1LjkxLTEtNTMuODItMS42Ny0zMy44NC03LjU3LTY3LjEyLTE0LjkxLTEwMC4xNC05LjU3LTQzLjE0LTI0LjYtODQuMDYtNDkuODMtMTIwLjc1YTI0LjQ2LDI0LjQ2LDAsMCwxLTIuNjMtNC4yNWMtLjg5LTIuMTYtMS40Mi00LjQ2LTIuMjYtNy4yMSw0LjI4LTEuMzIsNy43OC0yLjYxLDExLjM5LTMuNDcsMTEuMzctMi43LDIyLjc3LTUuMjcsMzQuMTYtNy44MywxMS0yLjQ3LDIyLTQuNzYsMzMtNy4zNCw0LjMyLTEsOS45Mi0uNzksMTEuNTgtNiwxLjkyLTYtMy43LTguNzMtNy0xMi4yMmExMjUuNjYsMTI1LjY2LDAsMCwwLTEwLjEzLTkuMzFjLTMzLjEzLTI4LjI0LTcxLjQzLTQ3Ljc5LTExMS4yMi02NC4yNi0yMy40NS05LjcxLTQ4LjA4LTE2LjYyLTcyLjMxLTI0LjQxLTM4Ljc4LTEyLjQ2LTc4Ljg2LTE4LTExOS4yOC0yMS4xMi0zMy44Mi0yLjY1LTY3LjU2LS4xOC0xMDEuMjMsMy4wNy0yOS45MywyLjktNTkuNjIsNy4zNi04OC42OCwxNS4zOC0yLjIyLjYxLTQuNjguMzktNy43OS42MWE1NS4xLDU1LjEsMCwwLDEsMC02LjhjMi4zLTE1LjY4LDQuNS0zMS4zOCw3LjExLTQ3LDQuMzQtMjYsMTAuMzgtNTEuNTQsMjAtNzYuMTQsNS44My0xNC45MiwxMy40Ny0yOC42NywyNS41OC0zOS41OGEzMy42MSwzMy42MSwwLDAsMCw1LjQxLTYuNzZjMS4zNS0yLjA5LS40OS01Ljc3LTIuOTItNS43MWEzNS42NywzNS42NywwLDAsMC05Ljc0LDEuMzVjLTExLjE0LDMuNTEtMjIuMjUsNy4xMy0zMy4yMywxMS4wOGE3ODIsNzgyLDAsMCwwLTE0NC4yOCw2OWMtMS41My45NC0zLjQ3LDEuMjEtNi4yOCwyLjE1YTgzLjc3LDgzLjc3LDAsMCwxLDEtOC41MnExOS40NS05MS4yOCw0Ny44Ny0xODAuMTYsMjYuMzctODIuMjcsNTkuNTgtMTYyLjExYzYuODgtMTYuNTcsMTMuNzEtMzMuMTYsMjAuNzItNDkuNjcsMS0yLjQ5LDEuNi01Ljg0LDYuMjEtNiwxLjQsMS4zNSwzLjE5LDMsNC45Myw0Ljc0LDYuOCw2Ljc3LDEzLjM1LDEzLjgyLDIwLjQ0LDIwLjI4LDgsNy4yOCwxNi4xMywxNC4zOSwyNS40OSwyMC4xMSwxOC40MSwxMS4yNSwzOC40NCwxOCw1OS4xOCwyMy4yMSwzMy4xNSw4LjI3LDY2LjE3LDcuNSw5OS0xLjQ3LDIwLjQtNS41NiwzOS4yNC0xNC4zMyw1NC42Ni0yOS4xN2EyNzcsMjc3LDAsMCwwLDMzLTM3LjYxYzE3Ljg0LTI0Ljc4LDMyLjc3LTUxLjM0LDQ3LjkyLTc3Ljc3LDkuNTQtMTYuNjYsMTkuMzktMzMuMTYsMjguMTktNTAuMjEsOS4zNy0xOC4xNiwxOC0zNi43MSwyNi4yNy01NS40Miw0Ljg2LTExLDguNi0yMi42LDEyLjE4LTM0LjEzYTMxLjk0LDMxLjk0LDAsMCwwLC43Ny0xMy41MWMtLjc5LTUuNjUtNS43Ny04LjE5LTExLjMyLTYuNjdhMjIuMTMsMjIuMTMsMCwwLDAtNC42NCwxLjg1Yy05LjM1LDUtMTkuNDQsNy40MS0yOS44NSw4LjgxLTIxLjQ5LDIuODgtNDIuOSw2Ljg0LTY0LjQ4LDguNDUtMjYuMTksMi01Mi41MywxLjc4LTc4LjgsMi44NC0yMC44My44NC00MS43MywxLjMyLTYyLjQ1LDMuNDZhMjUxLjIzLDI1MS4yMywwLDAsMC04Mi42NiwyMy42N2MtMi44OCwxLjM3LTYuMDksMi4wNi05LjksMy4zMS0yLjI2LTQuMTctNC4yNy03LjcyLTYuMTItMTEuMzZhMjYxLjQxLDI2MS40MSwwLDAsMC02OC41OS04NS4xN2MtMzAuOTQtMjUuMjUtNjUuMTUtNDUuMTQtMTAxLjI4LTYxLjc1LTIxLjY2LTEwLTQ0LjI3LTE3LjQ3LTY3LjkxLTIxLjIzLTE3LjQzLTIuNzctMzQuOTMtMi4xMi01Mi4zNS4zNmEzOC4yMiwzOC4yMiwwLDAsMC05LjQzLDMuMDUsMy42OSwzLjY5LDAsMCwwLTEuODcsNC44NiwzLjczLDMuNzMsMCwwLDAsMS4wNiwxLjM3LDc3LjA4LDc3LjA4LDAsMCwwLDkuMjYsNi4zNiw1OS4xMyw1OS4xMywwLDAsMSwyNC4yOCwyNi4yNSwxNDcsMTQ3LDAsMCwxLDksMjJjNS41NCwxOC4zNywxMC41NywzNi45LDE1LjU4LDU1LjQyLDQuNTgsMTYuOTIsOC4zMiwzNC4wOCwxMy4zOCw1MC44NCwxNy43NSw1OC44NCw1MC42MSwxMDYuNjYsMTAzLjI3LDEzOS44M2EzMTQuOSwzMTQuOSwwLDAsMCw0NC4yMywyMy40NWMyLjUzLDEuMDgsNC43OCwyLjgxLDcuNiw0LjUtMS4zMywyLjg3LTIuMiw1LjE5LTMuNDEsNy4zMXEtMTIuMiwyMS4yLTI0LjQ2LDQyLjE5YTE1MzIuNiwxNTMyLjYsMCwwLDAtODkuMjMsMTc3Ljc2Yy0yMS4wOCw1MC4xMS0zNy41OSwxMDEuNzYtNTEuNTYsMTU0LjIxLTksMzMuODYtMTYuODQsNjgtMjUsMTAyLjExLTEuNzEsNy4xNi00Ljc3LDEzLTEwLjQ0LDE3Ljk0YTEzMy4yNywxMzMuMjcsMCwwLDAtMzEuMzUsNDAuMjRjLTkuNywxOC45MS0xNiwzOC41OC0xMy4xNiw2MC4xOSwyLDE1Ljg3LDYsMzEuNDcsMTQuMzUsNDUsNy4xLDExLjYyLDguNTQsMjMsNS40LDM1LjYtLjMsMS4yMS0uMzgsMi40OC0uNTYsMy43Mi02Ljg4LDQ3LjQ5LTExLjksOTUuMi0xNi42MywxNDMtMS43MywxNy40My0zLjQzLDM0Ljg3LTUuMzIsNTIuMjktLjE4LDEuNzItMS41NSwzLjMyLTIuNDMsNS4xLTQtMi42Mi0zLjkxLTYuMTUtNC41Ni05LjM2LTQuMzMtMjEuMjYtOC4yNi00Mi42LTEzLTYzLjc3LTE2LjA4LTcxLjc4LTM2LjI2LTE0Mi4yOC02NS0yMTAuMi0xOS4yNy00NS42MS00Mi43OS04OC42NC03My43Mi0xMjcuNDVhNDkuMzUsNDkuMzUsMCwwLDEtMy4xOC01LjE0YzMuOTItMi44MSw2Ljg3LS4zOCw5LjgyLjU1YTExOC4xMSwxMTguMTEsMCwwLDAsNzEuNDQuNzFjMjkuOTItOSw1My43Ni0yNi4xLDcxLjEtNTIuMjQsMTUuMTYtMjIuODYsMjIuMDYtNDguMzMsMjQuOTEtNzUuMjgsMi40Ni0yMy4zLDIuNTgtNDYuNjUsMi4xOC03MHEtLjg5LTUwLjY4LTIuMy0xMDEuMzZhMzA0Ljg3LDMwNC44NywwLDAsMSwyLjYyLTQ4LjY5YzIuOTQtMjIsMTAuMDktNDIuMTUsMjYuMzgtNTguMTUsMi42OC0yLjYyLDUuMTQtNS40Nyw3LjYzLTguMjgsMS45NC0yLjE5LDQuMTgtNC40OSwyLjY5LTcuNzMtMS4zOS0zLTQuNDgtMy40Ny03LjM4LTMuODgtMS42NS0uMjQtMy4zMy0uMjItNS0uM2ExNTcuMTEsMTU3LjExLDAsMCwwLTQyLjI1LDMuODNjLTM5LjY4LDguOTItNzMuODksMjcuODItMTAzLjM4LDU1LjczLTIyLjYzLDIxLjQxLTQxLjE4LDQ2LTU3LjIxLDcyLjUyLTE2LjQ4LDI3LjIyLTI5LjIsNTYuMjctMzkuMjMsODYuNDctMTAuMjcsMzAuOTItMTkuNjIsNjIuMDgtMjQuNjYsOTQuMzYtLjE5LDEuMjQtLjMzLDIuNDktLjYyLDMuNy0uNTYsMi40LS45Miw1LjUtNCw1LjM3LTEuNTctLjA3LTMuNDEtMi00LjQ3LTMuNThhNjIuNjIsNjIuNjIsMCwwLDEtNC03Ljc3Yy0yMS4zLTQyLjg3LTQ5LjYzLTgwLjA2LTg4LjE3LTEwOWE0MzcuMTQsNDM3LjE0LDAsMCwwLTY5LjE0LTQyLjY0Yy02NS4yNC0zMi4xOC0xMzMuNTQtNDAuMTEtMjA0Ljc3LTI3LjYxLTI3LjE5LDQuNzctNTMuNzUsMTItODAuMTUsMTkuNzYtMjguODIsOC40NS01Ny4zLDE4LjA2LTg1LjkyLDI3LjE4LTIzLjA4LDcuMzUtNDYuMjgsMTQuMy03MC4yMiwxOC4xNy0xNi4xNiwyLjYxLTMyLjM4LDMuMTgtNDguNDQtMS4yMWE1Ny44Niw1Ny44NiwwLDAsMC0xMS0yYy00LjMyLS4zMy03LjQxLDIuMjQtNy42Nyw2LjQ3YTYzLjMyLDYzLjMyLDAsMCwwLC40OSwxMi40NiwyNzMuNjQsMjczLjY0LDAsMCwwLDkuMjcsNDEuNDdjOC4yMiwyNywxOS42OCw1Mi4yOCwzNS42NCw3NS41NmE0MTYuNDksNDE2LjQ5LDAsMCwwLDQ4LDU3LjY4YzM5LjU5LDM5LjkzLDg1LDcwLjg0LDEzOC42MSw4OS41MSw0Mi4xMSwxNC42Niw4NS4xMywyNC4wOCwxMjkuNTksMjYuMWE0NDQuNDcsNDQ0LjQ3LDAsMCwwLDEyMS43LTExLjQ5YzU3LjY4LTEzLjQ1LDExMC4zOC0zNy41NCwxNTkuNTYtNzAuMDcsOS01LjkzLDE4LjE2LTExLjY4LDI4Ljg4LTE1LjE1LDIuMjMsMi4yMSw0LjU5LDQsNi4yNiw2LjI5LDguMzYsMTEuNDUsMTcuMTgsMjIuNjMsMjQuNjYsMzQuNjQsMTQuMzYsMjMuMDgsMjUuNTcsNDcuODQsMzUuNzgsNzMsMTMuNDksMzMuMjcsMjUuODYsNjcsMzUuNDIsMTAxLjYxLDYuMjIsMjIuNTIsMTIuNSw0NSwxOC41Niw2Ny41OSwxLjE1LDQuMywyLjc2LDguNjgsMi4wNiwxNC40Ny0yLjQyLTEuMTUtNC4zMi0xLjY2LTUuNzQtMi43OS01Ljg4LTQuNjUtMTEuMzUtOS44Ny0xNy40Ny0xNC4xOC0yMi4wOS0xNS41NS00Ny4xOS0yMi44NC03My43NS0yNS4yNC02Ljg4LS42Mi0xMS40OS0yLjg3LTE1LjU0LTguNTItOS41NC0xMy4yNy0yMS4xNC0yNC43MS0zMy44LTM1LjA2LTIzLTE4LjgyLTQ4LjkyLTI5LjMxLTc5LjE1LTI5LjkxYTIwNS4zNywyMDUuMzcsMCwwLDAtODMsMTUuNjNjLTM2LjI3LDE0Ljg2LTY4LjYzLDM2LTk4LjMsNjEuNDQtMzUuMzIsMzAuMjgtNjYuNSw2NC40OC05NC43OCwxMDEuMy0yNS40NCwzMy4xMy00Ny43OCw2OC40Mi02OS43OSwxMDMuODgtOS44OSwxNS45My0xOC44MiwzMi40OS0yNy44MSw0OWE4Ni40NCw4Ni40NCwwLDAsMC02LjkxLDE3LjRjLS44NCwyLjk0LS4xNiw2LjU1LjYyLDkuNjZhNS4xMiw1LjEyLDAsMCwwLDUuODksMy42MywyOS4zNiwyOS4zNiwwLDAsMCw3LjE4LTJjNy0yLjgxLDEzLjc4LTYsMjAuNzgtOC42NywzNS4wOS0xMy41OSw3MC45MS0yNC41NywxMDgtMzEuMzhhNTA1LDUwNSwwLDAsMSw4Ny04LjY0YzI0LjYxLS4xOSw0OS4yNC0uOTIsNzMuODEtMi4zMyw0MC42LTIuMzQsNzguODItMTMuODYsMTE0LjY2LTMyLjgzLDQzLjA2LTIyLjc4LDY5LjY3LTU4LjYzLDgxLjU4LTEwNS42NCw0LjIzLTE2LjY2LDYtMzMuNjYsNi42NS01MC43OS4xNS0zLjY0LS43OS03LjYyLDIuNjEtMTAuNDVhMTMuODMsMTMuODMsMCwwLDEsMi40Ni0uNTMsMTkuNTMsMTkuNTMsMCwwLDEsMy43NC4yMmMyNC42NSw0LjQsNDUuNjIsMTUuNDcsNjIuNTgsMzQuMDgsMTguMTgsMjAsMzIuNiw0Mi4yMyw0Mi40LDY3LjQzLDcuNzMsMTkuODYsMTQuNjUsNDAsMTgsNjEuMTMsMy4zOSwyMS40LDYuNzEsNDIuODQsOS4yMyw2NC4zNyw0LDM0LjM4LDcuNTUsNjguODMsMTEsMTAzLjI4LDMuMTYsMzIsNi41NSw2My45MSw4LjYyLDk1Ljk1LDIuNTcsMzkuNTQsNC4xNiw3OS4xNSw1LjYzLDExOC43NiwxLDI3LjUxLDEuMTMsNTUuMDUsMS42NSw4Mi41OC02LjE2LTEtMTIuMzgtMS43Ni0xOC40Ni0zLjE1YTM0Ljg2LDM0Ljg2LDAsMCwwLTIwLjg2LDEuNTJjLTMuMDgsMS4xOC02LjM4LDIuNjctOS41NSwyLjYxLTE1Ljg0LS4yOS0zMS43NS0uMy00Ny41LTEuODQtMTQuNzQtMS40NS0yOS4wOC0xLTQzLjQ0LDIuNTQtMTIuMTQsMy0yNC4zOCw1LjYyLTM2LjU3LDguNDItNS42OCwxLjMtMTEuNDUsMi4yOC0xNyw0LTE3LjU5LDUuNTQtMzUuMDgsNy4xMy01Mi41OS0uMjMtMS45Mi0uODEtNC0xLjI1LTUuOTMtMi0xOC4zMy02Ljg2LTM3LjM0LTguMjctNTYuNjUtNi44Mi00LjM1LjMzLTguMzEtLjE0LTEyLTIuMy0xNS43OC05LjE1LTMyLjgyLTguMTktNTAtNi4yNC05LjY2LDEuMDktMTguODgsMy43MS0yNi45LDkuNDItNS4xNSwzLjY3LTEwLjQzLDQuMDgtMTYuNTgsMy4xNC0xOC45NC0yLjktMzgtNS4yMi01Ny03Ljc3LTguNTYtMS4xNi0xNi43NiwwLTI0LjA5LDQuNjUtOC40Niw1LjM0LTE3LjY4LDYuNzctMjcuNDUsNy4wNy0xMy43NS40Mi0yNy40OCwxLjM0LTQxLjIsMi4zMy04LjA3LjU4LTE1Ljc1LS4xOS0yMy4yNS0zLjQ4YTc5LjU1LDc5LjU1LDAsMCwwLTExLjg3LTMuNjljLTQuODEtMS4yOC05Ljc0LTIuMTYtMTQuNTMtMy41My01LjYxLTEuNi0xMS0zLjkzLTE2LjctNS4yNS0xNS4xMS0zLjUzLTI5Ljc1LTMuMzMtNDMuMjEsNi00LjM4LDMtOSw2LTE0LjA5LDYuNjctMy42Ni0xLjQtNi42OC0zLTkuODgtMy42N3MtNi42NC0uNTItMTAtLjczYy00LjE2LS4yNy04LjM0LS40Mi0xMi40OC0uODVxLTE5LjI5LTItMzguNTUtNC4yMmMtMTAuMzEtMS4xNy0yMC43Ni0xLjY0LTI5LjgzLTcuOTEtMi42NC0xLjgyLTYuMTctMi43LTkuNDItMy4yYTI1Mi40MSwyNTIuNDEsMCwwLDAtMjYtMy4xOGMtMTEuNjYtLjU5LTIzLjM3LS4xMi0zNS0uNDUtOS4yOC0uMjctMTguMjQsMS4yNy0yNy4yNiwzLjE4LTIyLDQuNjgtNDQuMSw5LjA5LTY2LjE4LDEzLjU0YTMwLjY1LDMwLjY1LDAsMCwxLTcuNDYuNzFjLTEyLjYyLS42My0yNC44OCwxLjkyLTM3LjI4LDMuNTgtMTQuODksMi0yOS44OCwyLjgtNDQuNzktLjY5YTE4My4zOCwxODMuMzgsMCwwLDAtMjMuMzYtNC4zNyw3MSw3MSwwLDAsMS0xOS4zNC00LjUzLDc0LjI4LDc0LjI4LDAsMCwwLTM2LjgtNC45LDkzLjE1LDkzLjE1LDAsMCwxLTIzLjcxLS4wOGMtMjIuNjMtMy4xNi00NS0uNTgtNjcuMzIsMi4zQzEyMTIuMjIsMzEwNy45MywxMjAzLjE4LDMxMDksMTE5NCwzMTA4LjE1WiIgY2xhc3M9ImNscy0xMyIvPjxwYXRoIHRyYW5zZm9ybT0idHJhbnNsYXRlKDAgMC4wMikiIGQ9Ik0zNzg0LjQxLDMxOTAuODljLTEuNTcsMy44NC0yLjkxLDcuNzktNC43NCwxMS40OS0xOS42MSwzOS42Ny00MS41Myw3OC02NC40MiwxMTUuOTItMzAuNDksNTAuNDUtNjQuODIsOTguMTUtMTAxLjc2LDE0NC00NC44NSw1NS42NC05My45LDEwNy4zMS0xNDYuNDEsMTU1LjgyYTE0MTkuMywxNDE5LjMsMCwwLDEtMTU4LjMyLDEyNi4zNWMtNTMsMzYuNTItMTA4LjU2LDY4LjYzLTE2Niw5Ny41NC04Ny44OSw0NC4yMS0xNzkuNjksNzcuODctMjc0LjY2LDEwMy40MS01OC4xMiwxNS42NC0xMTcsMjYuNzctMTc2LjU5LDM0LjY1LTQwLjE0LDUuMy04MC40NCw4LjQzLTEyMC44OCwxMC4zMS0zMS42OSwxLjQ4LTYzLjM3LDIuNC05NS4wOCwxLjYxLTM1LS44Ni03MC0yLjY2LTEwNC44Ni02Ljc0LTMzLjEyLTMuODgtNjYuMy03LjUtOTkuMjItMTIuNzUtNjIuMjYtOS45My0xMjMuMjYtMjUuNC0xODMuNTgtNDMuODEtNzQtMjIuNTktMTQ1LjE1LTUyLTIxNC41Ni04Ni4wNS01OS0yOC45MS0xMTQuNzktNjIuODktMTY5LjE4LTk5LjVDMTY0OSwzNzA2LDE1OTcuNzUsMzY2NCwxNTQ4LjQzLDM2MTkuNTNjLTQ4LjQzLTQzLjctOTIuNjQtOTEuMzQtMTM0LjUzLTE0MS4yNi00Mi40Ni01MC42MS04MC4xNC0xMDQuNi0xMTUuMTEtMTYwLjU4LTI0LjEzLTM4LjYyLTQ1LjcxLTc4LjYtNjUuODItMTE5LjQxLTItNC4wOS0zLjU4LTguNC01LjM2LTEyLjYxLDYsMS43MywxMiwzLjIsMTcuODcsNS4yNyw0LDEuNDMsOCwyLjM4LDEyLjIxLDEuNzgsMTQuNDItMiwyOC44My00LjI0LDQzLjI3LTYuMDcsMTEuMTUtMS40MiwyMi4zNC0yLjQxLDMzLjUyLTMuNTIsNy40OS0uNzUsMTQsMSwxOSw3LjExLDMuNDgsNC4yMyw4LjE2LDUuNTYsMTMuNDQsNS4yM2E2OS4xMiw2OS4xMiwwLDAsMCw3LjQ3LS41NSwxMzcuOCwxMzcuOCwwLDAsMSw1NC42MSwxLjY5YzQuMDYuOTIsOC4yMywxLjM5LDEyLjI1LDIuNDhhMzcuNTQsMzcuNTQsMCwwLDAsMjIuMTgtLjYyYzE2LjItNS40MywzMi42Ny0xMC4yNCw0OC40Mi0xNi43NywxOS43Mi04LjE2LDQwLjI2LTEwLjIyLDYxLjEtMTAuOTRhNTQuMjEsNTQuMjEsMCwwLDEsMTYsMi4zOGMxMS4yNCwzLjEsMjIuMjksNi45MywzMy41LDEwLjE3LDguMzksMi40MiwxNi44Miw0LjgxLDI1Ljc1LDRxMTEuOC0xLDIzLjY0LTEuNzJjMTUuNzctLjksMzEuNTQtLjUzLDQ3LjMzLS4xNSwyNC41OS41OSw0OS4yMS4yMSw3My44MiwwYTUwLjQxLDUwLjQxLDAsMCwxLDIwLjY5LDMuNzVjOS41OCw0LjA4LDE5LjUxLDcuMzMsMjkuMywxMC45MmE1Mi4zOSw1Mi4zOSwwLDAsMCwxOC40LDNjMjYuMjgtLjA2LDUyLjU2LjE5LDc4LjgzLDBhNzQsNzQsMCwwLDAsMTcuMTgtMi42N2MxMi45My0zLjI1LDI1Ljc5LTYuODQsMzguNjEtMTAuNWE0Mi43MSw0Mi43MSwwLDAsMSwyMi4xOS0uMTljMTAuNTMsMi41LDIxLjE4LDQuNjQsMzEuODgsNi4yMSwxNS4zMiwyLjI1LDMwLjM1LDUuMjEsNDQuNDcsMTEuOTFhNTcuOTMsNTcuOTMsMCwwLDAsMTEuOSwzLjgyLDI4Ljc3LDI4Ljc3LDAsMCwwLDkuODYuOWM4LjY3LTEuMDgsMTcuMzQtMi4zNiwyNS44Ny00LjIxLDE0LjcxLTMuMTksMjkuNDItNS44Miw0NC41Ni01LjM5YTExOCwxMTgsMCwwLDAsMTIuNDctLjdjNi42My0uNTEsMTMuMjYtMS42LDE5Ljg4LTEuNTgsMTMuNDEuMDUsMjYuNTYtMi4xNywzOS43Ni0zLjg4YTE3Mi4zOCwxNzIuMzgsMCwwLDEsNDYuMTEtLjE4LDQ1LjQ4LDQ1LjQ4LDAsMCwwLDE4LjQ3LS45YzEzLjc2LTMuNjUsMjcuNzEtNS44OCw0Mi01LjI1YTM2LjQ2LDM2LjQ2LDAsMCwwLDEwLS41NWM4LjY1LTIsMTcuMzktMS44MSwyNi4xNC0xLjgxLDExLjY4LDAsMjMuMzYuMDYsMzUsLjFhMjUuOTQsMjUuOTQsMCwwLDEtNCwxNi42NWMtNS40Myw4Ljg5LTEwLjIyLDE4LjE2LTE1LjMzLDI3LjI1LTguNTMsMTUuMjItMjAuNzIsMjcuNDgtMzQuNSwzNy41LTE1LjE1LDExLTMyLjMzLDE5LjE4LTQ5Ljg0LDI2LTE5LDcuMzgtMzguNTQsMTMuNjItNTcuODUsMjAuMzFhODYuMjYsODYuMjYsMCwwLDEtMzAuNyw1LjA1Yy04LjMzLS4yMS0xNi43MS0uMjMtMjUsLjM0LTE4LjI3LDEuMjYtMzYuNSwzLTU0Ljc1LDQuNDctMTIsMS0yNC4xMiwxLjQ5LTM2LjA4LDMtMTAuNzEsMS4zOC0yMS4zMiwzLjctMzEuOSw2LTcuNzIsMS42NS0xNS4yMiw0LjQtMjMsNS43Ny0yNy41Myw0Ljg4LTU1LDkuNzYtODEuNjIsMTguNjlxLTEwLjA4LDMuMzktMjAuNDIsNmMtMTMsMy4xOC0yNS45Myw2LjM3LTM5LjQ2LDUuODhhNzUuMDYsNzUuMDYsMCwwLDAtOC43My42NGMtNi42My41Ni0xMy4yNSwxLjU3LTE5Ljg5LDEuNjMtMTMuNzQuMTItMjcuNTQuODgtNDEuMTYtMmEzNy41MywzNy41MywwLDAsMC03LjQ5LS4zMWMtMTMuMzUsMC0yNi43MS0uMS00MC4wNiwwYTc1LjIzLDc1LjIzLDAsMCwwLTExLjIyLjcsNTM5LjExLDUzOS4xMSwwLDAsMC02OS40LDE2LjA4Yy0xMC4xMywzLTE4LjY0LDguNDktMjcuMzEsMTcuMjksMy41Mi4wNyw1LjUuNTYsNy4xOC4wN3ExNy40LTUuMTYsMzQuNjgtMTAuNjdjMjItNy4wNyw0NC42NS05LjkxLDY3LjYzLTExLjExLDIyLjcxLTEuMTgsNDQuNzcsMy42OSw2Ny4wOSw2LjI4LDE0LjQ2LDEuNjgsMjguODcsNC41Miw0My41MiwzLjczLDcuODktLjQzLDE1Ljc2LTEuMjcsMjMuNjEtMi4yMywxNi45NC0yLjA4LDMzLjkzLTMuOTIsNTAuNzctNi42MywyNi43Ny00LjMxLDUzLjIyLTEwLjI5LDc5LjQyLTE3LjI1LDIwLjY1LTUuNDksNDEuNTMtOC45MSw2Mi45My04Ljk0YTMwLjY1LDMwLjY1LDAsMCwwLDcuNDYtLjY1YzktMi4yOCwxOC4yNS0xLjYzLDI3LjQxLTEuNywxLjUsMCwzLjQ1LS40Niw0LjI3LDIuNDctNi4yMiw1LjgxLTE0LDEwLTIxLjc3LDEzLjQ4LTIzLjI1LDEwLjMtNDYuODEsMTkuOTEtNzAuMjcsMjkuNzUtMTYuMTQsNi43Ny0zMi42MywxMi42My00Ny45MywyMS40My0yNC40NywxNC4wOC00NS43NCwzMS45NC02NSw1Mi4zNi0xNywxOC0zMC43MiwzOC4zNi00Mi42OCw1OS45NGE0My40Myw0My40MywwLDAsMC0zLjY4LDkuMjUsMy40OSwzLjQ5LDAsMCwwLDIsNC41LDMuNzUsMy43NSwwLDAsMCwxLC4yMmM0LjIxLTEuNTUsNS40OS01Ljg5LDgtOS4wNiwxMi0xNSwyMy4yNS0zMC41NCwzNS45My00NC44NiwxOC40LTIwLjc3LDQxLTM2LjY1LDY0LjQ5LTUxLjE0YTE1My40OSwxNTMuNDksMCwwLDEsMzguNjYtMTcuNTVjMTcuNjUtNSwzNS41NC05LjE4LDUzLjQ2LTEzLjE0LDIwLjQ1LTQuNTEsNDAuNTEtOS43Nyw1OS0yMC4xMiwxOS43NC0xMS4wOCw0MC44OS0xOC44OSw2Mi41Mi0yNS4zNiwyMi43Ny02LjgxLDQ1LjcxLTEzLjA4LDY4LjQ2LTIwLDE4LTUuNDUsMzYtMTAuNTksNTIuOTItMTksOS42OS00Ljg0LDE5LjcyLTksMjkuNjItMTMuNDQsMS45NC0uODcsNC0xLjQyLDYuMDcsMS4xNS0uMzksMS41Ni0uNTYsMy42OC0xLjQzLDUuNDUtNywxNC4yMS0xMy41OCwyOC43MS0yMS40Myw0Mi40Ni0xNS4xLDI2LjQyLTMwLjkxLDUyLjQ1LTQ2LjUxLDc4LjU5LTExLjE0LDE4LjY4LTIzLjY4LDM2LjI0LTM5LjYxLDUxLjMxLTEyLjcyLDEyLTI1LDI0LjU2LTM3LjIxLDM3LjE0YTM1Mi40MSwzNTIuNDEsMCwwLDEtNDEuMzYsMzYuMjFjLTE4LjYzLDE0LTM3LjE4LDI4LjEzLTU3Ljg3LDM5LjMxLTE0LjYyLDcuOTEtMjguNTIsMTcuMzItNDIuMDYsMjctMTIuMTgsOC43MS0yMy42OSwxOC4yOS0zMi42NiwzMC43MS01LjgzLDguMDctMTIuODUsMTUuMzMtMTkuNzUsMjIuNTZxLTE0LjI0LDE1LTI5LjE2LDI5LjI3YTE0MS42MiwxNDEuNjIsMCwwLDEtMTYuMzksMTMuNDRjLTkuODgsNy0yMC4yNiwxMy4yNS0zMC4xMSwyMC4yOC01LDMuNi05LjQ4LDguMDktMTQsMTIuMzktMS44NCwxLjc2LTMuMDYsNC4zMS0xLjE0LDYuN3M0LjU0LDIsNi45MywxYTY5LjQ1LDY5LjQ1LDAsMCwwLDktNC4zMWM5LTUuMjcsMTgtMTAuNiwyNi44Mi0xNi4xYTEzNy41NywxMzcuNTcsMCwwLDAsMjcuNDQtMjEuNjJjMTIuMzktMTMsMjUuMjctMjUuNDgsMzcuODYtMzguMjcsMi45Mi0zLDUuNTUtNi4yMSw4LjItOS40MywxNS45MS0xOS4zNywzNS42Mi0zMy43NSw1OC4xOC00NC4zOCwyMy40LTExLDQ3LTIxLjUyLDY4Ljg0LTM1LjY1LDguNzQtNS42NiwxOC0xMC40OSwyNy4xLTE1LjYsMS4yOS0uNzIsMi45MS0uODIsNS0xLjM4LDAsMy4yNC40NSw1Ljc2LS4wNyw4LjA1YTE5Mi40MiwxOTIuNDIsMCwwLDAtNC4yOCw0NC43MWMuMDgsNy40NS0xLDE0LjkzLTEuNywyMi4zOC0uOTQsOS41My0yLjYzLDE5LTMsMjguNTYtLjcsMTcuNS0xLjEzLDM1LjA4LDIuNzYsNTIuMzMsMi43NSwxMi4xNyw0LjQ1LDI0LjY2LDkuODcsMzYuMTEuNywxLjQ3LDEuNDgsMyw0LjI3LDEuNjFhMzMuNDksMzMuNDksMCwwLDAsMC00LjQ4Yy0yLjItMTcuMzQtNC41MS0zNC42Ny02LjY2LTUyYTMxLjkxLDMxLjkxLDAsMCwxLDAtOC43M2MxLjY4LTEwLjcsMi45Mi0yMS41NCw1LjY2LTMyYTQ0MC45Myw0NDAuOTMsMCwwLDAsOC44OS00NS4zNmMzLjA4LTIwLjA5LDkuMTctMzguOTMsMjIuMzMtNTQuOTJhMzcuNTQsMzcuNTQsMCwwLDAsMy40NC01LjIxYzkuMjctMTYuNDIsMjEuMzMtMzAuODMsMzIuNTYtNDUuODYsMTEuNS0xNS40LDI1LTI5LjA5LDM3LjE2LTQzLjg1LDEuMjEtMS40NiwzLjI3LTIuMjEsNS4yOS0zLjUxYTYzLjE1LDYzLjE1LDAsMCwxLDQuNjMsNC43N2M0LjA5LDUuMjUsOC41MywxMC4zMywxMiwxNmExNTIuMzIsMTUyLjMyLDAsMCwxLDEwLDIwYzEuNzYsNC4xNywyLjE4LDguODksMy40MSwxMy4zMSw4LjIyLDI5LjgsMTcuMzYsNTkuMywzMS42Myw4Ni44NSwxMS43NSwyMi42NywyNS42OSw0My44OSw0NC40Myw2MS42Myw5LjA5LDguNiwxNy44MiwxNy41OSwyNi42NiwyNi40NmE4Ni41MSw4Ni41MSwwLDAsMSw3LjYzLDguMjdjMTQuNDQsMTguODUsMjkuMjQsMzcuNDUsNDEuMzEsNTgsMTMuODMsMjMuNTMsMjUuNDUsNDcuOCwyOC42Niw3NS40NCwxLjE1LDkuODksMy43NywxOS42NCw2LjA5LDI5LjM2LjkzLDMuOTEsNCw2LjA5LDUuOTEsNS4xOCwyLjg2LTEuMzcsMi42My00LjE4LDIuNDQtNi41Mi0xLTEyLjQ0LTEuNy0yNC45NC0zLjQ4LTM3LjI4YTIyMS43NywyMjEuNzcsMCwwLDAtMTUuNzEtNTYuNDNjLTkuOTEtMjMtMTkuNjEtNDYtMzMuMTctNjcuMTctOS4yMi0xNC4zOS0xNy0yOS42OS0yNy42NS00My4xOC0yLjI2LTIuODUtMy40NS02LjU1LTUuMTQtOS44NmwuMTQtLjE0YzEwLjg0LDYuMTYsMjEuODIsMTIuMDgsMzIuNDksMTguNTMsMTcuMTQsMTAuMzYsMzMuMTQsMjIuMzgsNDkuMzYsMzQuMTEsMTguNTgsMTMuNDQsMzcuNzMsMjYsNTkuMywzNC41N2ExODYuNTcsMTg2LjU3LDAsMCwxLDQxLjQ2LDIzLjEyYzIyLjYyLDE2LjYxLDQxLjg5LDM2Ljg1LDYwLjQ5LDU3Ljc3LDYuMDgsNi44NCwxMi41MywxMy4zOCwxOS4wOCwxOS43OCwyLjI0LDIuMTksNSw0LjQ0LDguODYsMi43NywxLjA3LTQuNDgtMi03LTQuMjgtOS44Mi03LTguNzYtMTQuNzktMTctMjEuMTEtMjYuMjktMTIuMzMtMTgtMjcuNzItMzMuMzgtNDIuNjYtNDlhMjU0LjY0LDI1NC42NCwwLDAsMC00Ny41Ny0zOC40M2MtMTkuMTItMTIuMTQtMzYuMTQtMjYuNzItNTIuMzMtNDIuNDdhMzQ3LjIyLDM0Ny4yMiwwLDAsMC0yOS4zNy0yNS4yMWMtMTIuMTgtOS40NC0yNS0xOC0zNy40NS0yNy4xNmExMzkuNTQsMTM5LjU0LDAsMCwxLTE0LjU1LTExLjc5Yy0yNy4zNy0yNi40Ny01Mi4zNS01NC44NC03MS4yOC04OC4xOS01LjU5LTkuODQtMTAuODEtMTkuNTEtMTIuODctMzAuODUtMi42Ni0xNC41Ny04LjU0LTI3LjgzLTE4LjQxLTM5LjE2YTQxLjg2LDQxLjg2LDAsMCwxLTkuMTktMTguOTRjLTEuMjQtNS43LTIuNzQtMTEuMzUtNC4xMy0xN2EzNy4yNSwzNy4yNSwwLDAsMSwzLTI2Ljc5LDE0NC42MSwxNDQuNjEsMCwwLDEsMjcuMTItMzUuNTZjLjIyLS4yMS43OC0uMDgsMS45My0uMTYsMy44NywyLjI2LDUsNi44Niw2LjU4LDExLDcuMzMsMjAsMTQuMzIsNDAuMDUsMjEuNzYsNjAsNi4wOCwxNi4yOSwxNC40NSwzMSwzMC4yMyw0MC4wN2EyNy4xLDI3LjEsMCwwLDEsMTEuMzgsMTIuODljNS4xNCwxMS40MSwxMC44MiwyMi41OCwxNS41NywzNC4xNCw0LjIyLDEwLjI3LDExLjM1LDE2LjMsMjIuMTksMTcuNzksNiwuODIsMTEsMy41NywxNi4yMSw2LjI5LDguMSw0LjI2LDE2LjI3LDguNDIsMjQuNTgsMTIuMjYsMTEuMzcsNS4yNywyMi45NSwxMC4xLDMxLjI2LDIwLjExYTI4LjY4LDI4LjY4LDAsMCwwLDMuODIsMy4yMiwyOTMuNjMsMjkzLjYzLDAsMCwxLDM5LjcsMzkuNzZjNy45Myw5LjY2LDE1Ljc5LDE5LjM3LDIzLjc3LDI5LDMuMDgsMy43Miw2LjU2LDQuNjgsOC40NiwyLjU5LDIuNDItMi42NywxLjM5LTUuNDQtLjA5LTguMDdhMzQuMTQsMzQuMTQsMCwwLDAtMy40My01LjIzYy03LjIyLTguNjEtMTQuMTQtMTcuNTItMjEuOTMtMjUuNjFhMTQ0LjEsMTQ0LjEsMCwwLDEtMjAtMjUuNDhjLTguMjctMTMuNzItMTguMzgtMjUuNzMtMzQtMzItNS4zNS0yLjE0LTEwLjA2LTUuODgtMTUtOS0xMC41Ny02LjY5LTIwLjc5LTE0LTMxLjcyLTIwYTQwLjY1LDQwLjY1LDAsMCwxLTE4LjQtMTkuODNjLTEwLjY2LTIzLjU2LTIyLjA2LTQ2Ljc4LTMyLjM3LTcwLjQ4YTM1Ni40NCwzNTYuNDQsMCwwLDEtMjAuMi02MS43OGMtMi4zNC0xMC4xLTEuNDktMTkuODMsMS4zLTI5LjYyLDEuMS0zLjg2LDMuMjYtNi45Myw2LjgyLTguNTEsNi4wNy0yLjcxLDEyLjE3LTUuNjIsMTguNTctNy4yM2EzMy40MSwzMy40MSwwLDAsMSwxOS43NC44M2M3Ljg0LDIuODUsMTUuNzgsNS40NiwyMy41Myw4LjU0YTYwLjE2LDYwLjE2LDAsMCwxLDEwLjksNS45MmM5LDYsMTcuNDcsMTMsMjcsMTguMDcsMTQuNjUsNy44LDIzLjIyLDIwLjA2LDI4LjQ5LDM1LDkuNTYsMjcuMTMsMTguOTIsNTQuMzQsMjUuNCw4Mi40NCwzLjEyLDEzLjUyLDguMDksMjYuNDQsMTcuMjMsMzcuMTZzMTkuNjcsMjAuNDIsMzIuMDcsMjcuNjRjMTAuMDksNS44NywyMCwxMS45MiwyOC44NywxOS42Nyw3LjgzLDYuODcsMTUuNywxMy42OCwyMy41MiwyMC41NmExNS43NiwxNS43NiwwLDAsMSwyLjQsMi44OGM1LDcuMiwxMC4xMywxNC4yOCwxNC44MiwyMS42NywxNSwyMy41OCwyOS43Niw0Ny4yOSw0NC42NCw3MC45NC42NiwxLjA1LDEuNjUsMS45LDIuMjgsMywyLjc0LDQuNjUsNS44OCw5LjEzLDgsMTQuMDYsNywxNi4xNywxMC43MiwzMy4yNSwxMy44Nyw1MC41MmExNjAuMTUsMTYwLjE1LDAsMCwwLDUuNjYsMjEuNzVjMS4xMywzLjQsMy42NCw2LjQ4LDYsOS4yOSwxLjY5LDIsNC4yMiwyLjcyLDYuNDUsMC0yLjI3LTEwLjQ3LTQuNjUtMjEtNi44Mi0zMS41NC0zLTE0LjctNi41MS0yOS4zNC04LjU4LTQ0LjE4LTEuMjMtOC44LTMtMTcuMjgtNi40NC0yNS4zNC01Ljg1LTEzLjgtMTEuMTEtMjcuOTQtMjAuNDgtNDAtMS41Mi0yLTIuNC00LjM4LTMuNTgtNi41OGgwYzIuNDkuMiw1LjEyLDAsNy40NC42OCwxMi45Myw0LjEyLDI2LjIxLDUuMDgsMzkuNiw0LjI2LDEwLjUyLS42NCwxOS41MywyLjQ0LDI4LjEyLDguMzYsMTYuMTIsMTEuMSwzMi41NCwyMS43OSw0OC44NywzMi41OSwxNS40NiwxMC4yMywzMi41MywxNi44OCw1MC4xMywyMi4zLDEuNDcuNDUsMy4yMywxLjEsNC4xNy0xLjk0LTEuNDQtMS0zLTIuMjQtNC42Ny0zLjI3LTE1LjY2LTkuNTUtMzEuNTItMTguNzktNDctMjguNjgtMTcuMi0xMS0zNC4yMy0yMi4zMy01MC45My0zNC4wOWE1My4xLDUzLjEsMCwwLDAtMzEuNi0xMC4wOWMtMTUuNjguMDktMzAuNDYtNC40MS00NS40My04YTE4LjY2LDE4LjY2LDAsMCwxLTUuNjMtMi42Miw3OS4wOSw3OS4wOSwwLDAsMS0yMy4yLTIyLjQ2cS04LTEyLTE1LjU0LTI0LjIxYy01LjEyLTguMy0xMS45My0xNS4wNy0xOS40Ni0yMS05LjQ4LTcuNS0xOS4yOC0xNC41Ny0zMC40Mi0xOS42MWE0My4zMyw0My4zMywwLDAsMS0yMi4zMi0yMi42OWMtNS44Ni0xMy4zMS0xMS42Mi0yNi40Mi0xMy4zLTQxLjQtMi0xNy43My02LjYtMzUuMTgtMTAuMTEtNTIuNzQtLjY1LTMuMjMtMi4xNi02LjQ5LDEuNTUtOS43MWE0MC40Miw0MC40MiwwLDAsMSw1LjU5LjU3YzE1Ljg0LDMuNjUsMzEuNzUsNy4wOCw0Ny40NywxMS4yM2EyMzcuNDcsMjM3LjQ3LDAsMCwxLDI4LjQ0LDkuNTZjMjAuMDksOC4xNSwzOS45MywxNi45MSw1OS45MywyNS4yN2E3Myw3MywwLDAsMSwxOS4xNiwxMS41MWMxOS4wNiwxNiw0MS41LDIxLjA2LDY1LjY0LDE3LjIyLDE1LjcxLTIuNDksMzEuMzEtNC4zOCw0Ny4yMy00LDEyLjA5LjMyLDI0LjIuMjUsMzYuMy4wOWE2My41NSw2My41NSwwLDAsMSwyMSwyLjgzYzEwLjY4LDMuNTQsMjEuMjUsNy40MywzMS44MywxMS4yNmExOC44NiwxOC44NiwwLDAsMSw0LjM4LDIuNGM3LjEzLDUuMDgsMTQuMzEsMTAuMSwyMS4zLDE1LjM3LDEzLjYzLDEwLjI4LDI3LjI1LDIwLjYsNDAuNzEsMzEuMTIsMTQuNjIsMTEuNDMsMzEuNjgsMTYuMzcsNDkuNiwxOS4xLDQuNTIuNjksNy44OC0xLjYxLDguNjItNS4zMnMtMS03LjA2LTUuNC04LjY4YTYyLjM1LDYyLjM1LDAsMCwwLTEwLjg1LTIuODYsNjguNTcsNjguNTcsMCwwLDEtMjcuNTQtMTEuNDRjLTcuMTUtNS0xMy42My0xMS0yMC4xNS0xNi43OS0xMC41Ny05LjQzLTIwLjc1LTE5LjMxLTMxLjQ2LTI4LjU3YTEzNi4wNiwxMzYuMDYsMCwwLDAtMTkuMTYtMTRjLTE0LTguMzItMjguMzEtMTYuMjItNDQuOTQtMTgtMTIuNDEtMS4zNS0yNC44Mi0zLjA2LTM3LjI3LTMuNTgtMTUuNDEtLjY0LTMwLjg3LS40MS00Ni4zMS0uMTdhOTMuODQsOTMuODQsMCwwLDEtMjUuOTEtMy41OSwzMTAuNzQsMzEwLjc0LDAsMCwxLTQzLjUzLTE1LjU5LDE5NS4yMiwxOTUuMjIsMCwwLDEtMTktOS41OGMtMi42NS0xLjUxLTUuOTItMy4zNS01LjItOCwxLjYxLS4xNiwzLjMzLS43Nyw0LjgxLS40MSwxMS41MSwyLjgxLDIzLjIzLDEuNzIsMzQuODgsMi4yMiwxOSwuODEsMzcuMjEtMi43LDU1LjE3LTlzMzUuNjItMTQuMTUsNTQuMjItMTkuMjJjMTYuMTktNC40MiwzMi4xOC03LjUzLDQ5LjE1LTcuMzMsMjcuODkuMzMsNTUuODgsMS45NCw4My42OS0yLjA4LDkuMDctMS4zMSwxOC4yMS0yLjE3LDI3LjItMy44NCwxNy4yMS0zLjE5LDM0LjMyLTYuOTEsNTEuNTEtMTAuMjEsNi41NC0xLjI2LDEzLjE5LTIuNzUsMTkuNzctMi43YTEyNy4zNiwxMjcuMzYsMCwwLDEsMjMuNTIsMi42OGMyMC4yLDMuOTMsNDAuNTYsNC41NSw2MSwzLjgyLDEuMzQsMCwzLjYuNTcsMy40OC0yLjg0LTIuMTMtLjYyLTQuNC0xLjQ1LTYuNzQtMS45MS0yMC40NC00LTQxLTcuNTctNjEuMy0xMi4xMy0xNy44MS00LTM1LjU5LTQuMS01My40MS0xLjUxLTEzLjYzLDItMjcuMTcsMy45MS00MSwzLjYxLTE3LjUyLS4zOS0zNS0uMjUtNTIuNTctLjA2LTUuODEuMDYtMTEuNiwxLTE3LjM5LDEuNS0xNy44OSwxLjU1LTM1Ljg4LDIuNzktNTMuNTYtMS0xMy41Ni0yLjkxLTI3LjM4LTIuNC00MC45NS00LjZhMTEuNjQsMTEuNjQsMCwwLDAtMy43Mi4yN2MtMTMuMTQsMi4yNS0yNi4yNiw0LjI5LTM5LjA2LDguNDMtMjEuNTEsNy00My41MSwxMS40OC02Ni4zNiwxMC41NS0yNC41NS0xLTQ5LjE2LDEuMS03My43Mi0yLjI0LTkuODMtMS4zNC0xOS45NC0uOTItMjkuNzUtMy4yLTE4LjI3LTQuMjQtMzYuNjktNy45Mi01NC43OC0xMi44My0xNS42Ni00LjI1LTMwLjgyLTEwLjMzLTQ3LTEyLjY1YTIyLjE3LDIyLjE3LDAsMCwxLTctMi41MmMtNi42My0zLjUtMTMuMzEtNy0xOS42OS0xMC44OS0yMy40OC0xNC41LTQ0LjQyLTMyLjQ1LTY2LTQ5LjQ4YTU2LjEsNTYuMSwwLDAsMS0xNC42OC0xNi44OWMtNS42My0xMC4yMS0xMS45NC0yMC4wNS0xNy43OC0zMC4xNC0yLjA3LTMuNTctNC40NS03LjI3LTUuMjMtMTEuMi0xLjU0LTcuNzItMi4wNy0xNS42NS0zLTIzLjQ5LDEwLjU2LS4xNCwyMC41NiwzLjA3LDMwLjc3LDUuMDgsMy42Ny43Myw3LjU3LDIuNSwxMSwxLjg0LDcuNi0xLjQ4LDE0LjkuMTUsMjIuMzMuNDksNi4yNC4yOCwxMi43NSwxLDE4LjcyLS4zNiwxOC4xNi00LjA3LDM3LjU4LTIuNjcsNTQuNTEtMTIuMjJhMTcuMzgsMTcuMzgsMCwwLDEsNC43Ny0xLjQ4YzE4LjExLTMuODQsMzYuNDItMy45Miw1NC43OC0yLjc3LDguNzIuNTQsMTcuNDIsMS4zNSwyNi4xMywyLDIuNDkuMTksNS4xLS4xOSw3LjQ4LjM4LDExLjU0LDIuNzQsMjMuMjQsMS45MSwzNC45LDIsMTcuMSwwLDM0LjIxLjI2LDUxLjMxLDBhOTAuNjUsOTAuNjUsMCwwLDEsMzIsNC44Niw0OS44NSw0OS44NSwwLDAsMCwxOC40NCwyLjgyYzE1LjgtLjUyLDMxLjU1LjIyLDQ3LjQxLTIsMTMuNTctMS44NywyNy4yNi0zLjE2LDQwLjg1LTUuMnMyNy4yNy0zLjg1LDQxLjA4LTIuNzZjNi42NC41MiwxMy4yMywxLjg3LDE5Ljg2LDIuMDcsMTkuNi42MSwzOS4xNC43NCw1OC40OS0zLjY0LDE0LjY5LTMuMzIsMjkuNjctNC45MSw0NC43Mi0zLjA3LDExLjU3LDEuNDEsMjMuMTUsMywzNC41Nyw1LjM2YTk4LjYzLDk4LjYzLDAsMCwwLDMzLjYyLDEuMDZjMTYuNjYtMi40MSwzMy4yOC0xLjg1LDQ5LjkzLTEuODVhODAuNzcsODAuNzcsMCwwLDEsMTQuODgsMS41M2MxMS4wNSwyLjA4LDIyLjEyLDQuMTgsMzMsNi45MiwxNC4xNiwzLjU3LDI2LjM4LjMsMzcuMy05LDEuOS0xLjYxLDMuNTktMy40OCw1LjQ2LTUuMTVhNDUuMTMsNDUuMTMsMCwwLDEsMjcuMTMtMTEuNiwxMDEuNjcsMTAxLjY3LDAsMCwxLDIzLjY0LDEsMjM3LjcsMjM3LjcsMCwwLDAsNDIuMjcsMy42N2MyNC4xOS0uMjgsNDguMzkuMjYsNzIuNTktLjA4LDE1LjE1LS4yMiwyOS44NSwyLjE4LDQ0LjU2LDUuMywxMywyLjc1LDI2LDYsMzkuNDcsMi40OCwyLS41MSw0LjE2LS4yLDYuMjQtLjMxLDE2LjMzLS44NywzMi40LDIuMjEsNDguNTUsMy42OSw3LjIxLjY2LDEzLjcyLjg3LDIwLjc2LTEuNDksMTQuNDktNC44NCwyOS40Mi02LDQ0LjA5LS40NUMzNzUwLjYzLDMxODUuODcsMzc2Ny40OCwzMTg4LjQ5LDM3ODQuNDEsMzE5MC44OVoiIGNsYXNzPSJjbHMtMTQiLz48cGF0aCB0cmFuc2Zvcm09InRyYW5zbGF0ZSgwIDAuMDIpIiBkPSJNMzc4NC40MSwzMTkwLjg5Yy0xNi45My0yLjQtMzMuNzgtNS00OS45Mi0xMS4xMi0xNC42Ny01LjU0LTI5LjYtNC4zOS00NC4wOS40NS03LDIuMzYtMTMuNTUsMi4xNS0yMC43NiwxLjQ5LTE2LjE1LTEuNDgtMzIuMjItNC41Ni00OC41NS0zLjY5LTIuMDguMTEtNC4yNi0uMi02LjI0LjMxLTEzLjQ0LDMuNDctMjYuNDguMjctMzkuNDctMi40OC0xNC43MS0zLjEyLTI5LjQxLTUuNTItNDQuNTYtNS4zLTI0LjIuMzQtNDguNC0uMi03Mi41OS4wOEEyMzguNjMsMjM4LjYzLDAsMCwxLDM0MTYsMzE2N2ExMDEuNjcsMTAxLjY3LDAsMCwwLTIzLjY0LTEsNDUuMTMsNDUuMTMsMCwwLDAtMjcuMTMsMTEuNmMtMS44NywxLjY3LTMuNTYsMy41NC01LjQ2LDUuMTUtMTAuOTIsOS4yNS0yMy4xNCwxMi41Mi0zNy4zLDktMTAuODktMi43NC0yMi00Ljg0LTMzLTYuOTJhODAuNzcsODAuNzcsMCwwLDAtMTQuODgtMS41M2MtMTYuNjUsMC0zMy4yNy0uNTYtNDkuOTMsMS44NWE5OC42Myw5OC42MywwLDAsMS0zMy42Mi0xLjA2Yy0xMS40Mi0yLjMxLTIzLTQtMzQuNTctNS4zNi0xNS0xLjg0LTMwLS4yNS00NC43MiwzLjA3LTE5LjM1LDQuMzgtMzguODksNC4yNS01OC40OSwzLjY0LTYuNjMtLjItMTMuMjItMS41NS0xOS44Ni0yLjA3LTEzLjgxLTEuMDktMjcuNDguNzEtNDEuMDgsMi43NnMtMjcuMjgsMy4zMy00MC44NSw1LjJjLTE1Ljg2LDIuMTgtMzEuNjEsMS40NC00Ny40MSwyYTQ5Ljg1LDQ5Ljg1LDAsMCwxLTE4LjQ0LTIuODIsOTAuNjUsOTAuNjUsMCwwLDAtMzItNC44NmMtMTcuMS4yOC0zNC4yMS4wNy01MS4zMSwwLTExLjY2LDAtMjMuMzYuNzktMzQuOS0yLTIuMzgtLjU3LTUtLjE5LTcuNDgtLjM4LTguNzEtLjY0LTE3LjQxLTEuNDUtMjYuMTMtMi0xOC4zNi0xLjE1LTM2LjY3LTEuMDctNTQuNzgsMi43N2ExNy4zOCwxNy4zOCwwLDAsMC00Ljc3LDEuNDhjLTE2LjkzLDkuNTUtMzYuMzUsOC4xNS01NC41MSwxMi4yMi02LDEuMzQtMTIuNDguNjQtMTguNzIuMzYtNy40My0uMzQtMTQuNzMtMi0yMi4zMy0uNDktMy40Mi42Ni03LjMyLTEuMTEtMTEtMS44NC0xMC4yMS0yLTIwLjIxLTUuMjItMzAuNzctNS4wOC0yLjgtLjY3LTUuODMtMi4zNy04LjM2LTEuODItMTQuNDQsMy4xOS0yOSwxLjM5LTQzLjUyLDEuOC01LjQuMTYtMTEsLjY2LTE2LjE3LS40OS0xMC43NC0yLjM3LTIxLjQ5LTEuOTItMzIuMjktMS44My0xMS42OCwwLTIzLjM2LS4xLTM1LS4xLTguNzUsMC0xNy40OS0uMjMtMjYuMTQsMS44MWEzNi40NiwzNi40NiwwLDAsMS0xMCwuNTVjLTE0LjMyLS42My0yOC4yNywxLjYtNDIsNS4yNWE0NS40OCw0NS40OCwwLDAsMS0xOC40Ny45LDE3Mi4zOCwxNzIuMzgsMCwwLDAtNDYuMTEuMThjLTEzLjIsMS43MS0yNi4zNSwzLjkzLTM5Ljc2LDMuODgtNi42MiwwLTEzLjI1LDEuMDctMTkuODgsMS41OGExMTgsMTE4LDAsMCwxLTEyLjQ3LjdjLTE1LjE0LS40My0yOS44NSwyLjItNDQuNTYsNS4zOS04LjUzLDEuODUtMTcuMiwzLjEzLTI1Ljg3LDQuMjFhMjguNzcsMjguNzcsMCwwLDEtOS44Ni0uOSw1Ny45Myw1Ny45MywwLDAsMS0xMS45LTMuODJjLTE0LjEyLTYuNy0yOS4xNS05LjY2LTQ0LjQ3LTExLjkxLTEwLjctMS41Ny0yMS4zNS0zLjcxLTMxLjg4LTYuMjFhNDIuNzEsNDIuNzEsMCwwLDAtMjIuMTkuMTljLTEyLjgyLDMuNjYtMjUuNjgsNy4yNS0zOC42MSwxMC41YTc0LDc0LDAsMCwxLTE3LjE4LDIuNjdjLTI2LjI3LjI0LTUyLjU1LDAtNzguODMuMDVhNTIuMzksNTIuMzksMCwwLDEtMTguNC0zYy05Ljc5LTMuNTktMTkuNzItNi44NC0yOS4zLTEwLjkyYTUwLjQxLDUwLjQxLDAsMCwwLTIwLjY5LTMuNzVjLTI0LjYxLjE2LTQ5LjIzLjU0LTczLjgyLS4wNS0xNS43OS0uMzgtMzEuNTYtLjc1LTQ3LjMzLjE1cS0xMS44Mi42Ny0yMy42NCwxLjcyYy04LjkzLjgtMTcuMzYtMS41OS0yNS43NS00LTExLjIxLTMuMjQtMjIuMjYtNy4wNy0zMy41LTEwLjE3YTU0LjIxLDU0LjIxLDAsMCwwLTE2LTIuMzhjLTIwLjg0LjcyLTQxLjM4LDIuNzgtNjEuMSwxMC45NC0xNS43NSw2LjUzLTMyLjIyLDExLjM0LTQ4LjQyLDE2Ljc3YTM3LjU0LDM3LjU0LDAsMCwxLTIyLjE4LjYyYy00LTEuMDktOC4xOS0xLjU2LTEyLjI1LTIuNDhhMTM3LjgsMTM3LjgsMCwwLDAtNTQuNjEtMS42OSw2OS4xMiw2OS4xMiwwLDAsMS03LjQ3LjU1Yy01LjI4LjMzLTEwLTEtMTMuNDQtNS4yMy01LTYuMDYtMTEuNTUtNy44Ni0xOS03LjExLTExLjE4LDEuMTEtMjIuMzcsMi4xLTMzLjUyLDMuNTItMTQuNDQsMS44My0yOC44NSw0LTQzLjI3LDYuMDctNC4yNC42LTguMTgtLjM1LTEyLjIxLTEuNzgtNS44NS0yLjA3LTExLjktMy41NC0xNy44Ny01LjI3LTIuOC01LjU1LTUuNzktMTEtOC4zNi0xNi42OC03LjIxLTE1Ljg5LTE0LjM0LTMxLjgxLTIxLjI2LTQ3LjgzLTEuNzktNC4xNC0yLjY5LTguNjYtNC0xMyw5LjIuODIsMTguMjQtLjIyLDI3LjM5LTEuNCwyMi4zMy0yLjg4LDQ0LjY5LTUuNDYsNjcuMzItMi4zYTkzLjE1LDkzLjE1LDAsMCwwLDIzLjcxLjA4LDc0LjI4LDc0LjI4LDAsMCwxLDM2LjgsNC45LDcxLDcxLDAsMCwwLDE5LjM0LDQuNTMsMTgzLjM4LDE4My4zOCwwLDAsMSwyMy4zNiw0LjM3YzE0LjkxLDMuNDksMjkuOSwyLjY4LDQ0Ljc5LjY5LDEyLjQtMS42NiwyNC42Ni00LjIxLDM3LjI4LTMuNThhMzAuNjUsMzAuNjUsMCwwLDAsNy40Ni0uNzFjMjIuMDgtNC40NSw0NC4xNi04Ljg2LDY2LjE4LTEzLjU0LDktMS45MSwxOC0zLjQ1LDI3LjI2LTMuMTgsMTEuNjcuMzMsMjMuMzgtLjE0LDM1LC40NWEyNTIuNDEsMjUyLjQxLDAsMCwxLDI2LDMuMThjMy4yNS41LDYuNzgsMS4zOCw5LjQyLDMuMiw5LjA3LDYuMjcsMTkuNTIsNi43NCwyOS44Myw3LjkxcTE5LjI4LDIuMTksMzguNTUsNC4yMmM0LjE0LjQzLDguMzIuNTgsMTIuNDguODUsMy4zMi4yMSw2Ljc0LDAsMTAsLjczczYuMjIsMi4yNyw5Ljg4LDMuNjdjNS4wNy0uNjYsOS43MS0zLjYzLDE0LjA5LTYuNjcsMTMuNDYtOS4zNCwyOC4xLTkuNTQsNDMuMjEtNiw1LjY3LDEuMzIsMTEuMDksMy42NSwxNi43LDUuMjUsNC43OSwxLjM3LDkuNzIsMi4yNSwxNC41MywzLjUzYTc5LjU1LDc5LjU1LDAsMCwxLDExLjg3LDMuNjljNy41LDMuMjksMTUuMTgsNC4wNiwyMy4yNSwzLjQ4LDEzLjcyLTEsMjcuNDUtMS45MSw0MS4yLTIuMzMsOS43Ny0uMywxOS0xLjczLDI3LjQ1LTcuMDcsNy4zMy00LjYzLDE1LjUzLTUuODEsMjQuMDktNC42NSwxOSwyLjU1LDM4LDQuODcsNTcsNy43Nyw2LjE1Ljk0LDExLjQzLjUzLDE2LjU4LTMuMTQsOC01LjcxLDE3LjI0LTguMzMsMjYuOS05LjQyLDE3LjE1LTIsMzQuMTktMi45MSw1MCw2LjI0LDMuNzMsMi4xNiw3LjY5LDIuNjMsMTIsMi4zLDE5LjMxLTEuNDUsMzguMzIsMCw1Ni42NSw2LjgyLDIsLjczLDQsMS4xNyw1LjkzLDIsMTcuNTEsNy4zNiwzNSw1Ljc3LDUyLjU5LjIzLDUuNTQtMS43NSwxMS4zMS0yLjczLDE3LTQsMTIuMTktMi44LDI0LjQzLTUuNDEsMzYuNTctOC40MiwxNC4zNi0zLjU1LDI4LjctNCw0My40NC0yLjU0LDE1Ljc1LDEuNTQsMzEuNjYsMS41NSw0Ny41LDEuODQsMy4xNy4wNiw2LjQ3LTEuNDMsOS41NS0yLjYxYTM0Ljg2LDM0Ljg2LDAsMCwxLDIwLjg2LTEuNTJjNi4wOCwxLjM5LDEyLjMsMi4xMywxOC40NiwzLjE1LDQuOTMsNC43MSwxMC43NSw1Ljc1LDE3LjI4LDQuNDQsNC44Ni0xLDkuNzgtMS43LDE0LjY5LTIuNDMsMTkuMDktMi44NSwzOC0yLjI4LDU2LjMsNC4zMSw0LjIsMS41MSw4LjA2LDEuNTYsMTEuOTItLjcsNS44LjQ3LDExLjU5LDEsMTcuMzksMS4zOCwyLjkuMjEsNS45NC44NSw4LjY5LjI2LDcuNjgtMS42NSwxNC45My4xMiwyMi4yMSwyLDguNSwyLjE2LDE3LDQsMjUuODcsNC4xNiw1LjYxLjA3LDEwLjY2LS42MSwxNS4xOC00LjQsNS42Ni00Ljc1LDEyLjM1LTYuMDYsMTkuNzctNi4yMnEyNy41MS0uNTcsNTUtMi40NmMxMS4yMS0uNzksMjIuMzItMi4zNiwzMy42My0yLjM1YTEzNS4yLDEzNS4yLDAsMCwxLDMxLDMuMjMsNTMuODMsNTMuODMsMCwwLDAsMTcuMzMsMS42Myw0My40Nyw0My40NywwLDAsMSwyMC44LDMuM2MuMzkuMTYuNzkuMjgsMS4xNy40NSwyNC4xOCwxMC41Myw0OS40MSwxMC42NCw3NSw3LjU4YTIyLjE2LDIyLjE2LDAsMCwxLDMuNzItLjQ5YzE3LjA3Ljg0LDMyLjgyLTQuODYsNDguNjgtOS45MmE0MC43Myw0MC43MywwLDAsMCw5LTQuMDljOS4zLTUuNzUsMTkuMjYtNy4zNSwzMC02LjEyLDguNjcsMSwxNy40MywxLjI4LDI2LjE1LDIsNC4xNC4zMyw4LjI4LjczLDEyLjQsMS4zLDEyLDEuNjcsMjMuOSwzLjUzLDM1Ljg3LDUuMTEsMi40My4zMiw1LS4zMSw3LjQ2LS4zOCwzLjc1LS4xMSw3LjUtLjI0LDExLjI1LS4xNCwxNy40OS40OSwzNSwxLjE5LDUyLjQ4LDEuNDdhMjcuMTYsMjcuMTYsMCwwLDAsMTAuODUtMi4yM2MxMy4zOC01Ljc5LDI2Ljc1LTUuNDUsNDAuMjctLjg4LDE0LjY4LDUsMjkuMTUsNC41NSw0NC4wOS4yM2E3NC4wNyw3NC4wNywwLDAsMSw0MC44LS41NWM5LjgsMi43NiwxOC44MiwyLjIxLDI4LjE0LS43NSw3LjU2LTIuMzksMTUuMjItNC40NywyMi43MS03YTEwNi40NywxMDYuNDcsMCwwLDEsNjEuNi0yLjUzLDEyMy4yLDEyMy4yLDAsMCwwLDEzLjQzLDMsMTAxLjEsMTAxLjEsMCwwLDAsMTYuMTIsMWM2LjctLjIsMTMuMzUtLjY1LDE5LjgzLDEuNTFhMTUuNTUsMTUuNTUsMCwwLDAsMTIuMS0xLjA2YzExLjMyLTUuMzgsMjMuMTEtNS43NSwzNS40NS00LjI5LDEzLjM1LDEuNTksMjYuMzMsMy42NSwzOC42Miw5LjUzLDMuNTUsMS42OSw4LjE1LDEuNjIsMTIuMjYsMS42LDEzLjQ3LS4wNiwyNi42MywxLjU1LDM5LjQsNS45Myw4LjMsMi44NCwxNi45MywyLjkzLDI0LjMyLTEuNDYsMTguOTEtMTEuMjUsMzkuMTItMTAuNTgsNTkuNTItNy40NiwxMy41NywyLjA4LDI2Ljk0LDUuNDQsNDAuMzIsOC41NiwzLjczLjg3LDcuMTYsMS41MywxMSwuNjVhNDcuNDksNDcuNDksMCwwLDEsMjEuMDUuM2M3LjMsMS41OSwxNC44MywyLjIxLDIyLjI4LDMsNC43My41MSw5LjA5LS41MiwxMi41NC00LjI0LDYuMDktNi41NywxNC4xOC04LjU2LDIyLjYzLTkuMjVhMTg4LDE4OCwwLDAsMSw0Ni4xNCwxLjQ3YzMuMjUuNTMsNi4zOCwxLjg3LDkuNTYsMi44NC0uNjQsMi44LS45Miw1Ljc0LTIsOC4zNy05LjUzLDIzLjU5LTE5LjE3LDQ3LjE0LTMwLjgsNjkuODFBMTAuOTQsMTAuOTQsMCwwLDEsMzc4NC40MSwzMTkwLjg5WiIgY2xhc3M9ImNscy0xNSIvPjxwYXRoIHRyYW5zZm9ybT0idHJhbnNsYXRlKDAgMC4wMikiIGQ9Ik0yNTMzLjY1LDMxMTUuNzFjLTMuODYsMi4yNi03LjcyLDIuMjEtMTEuOTIuNy0xOC4zNS02LjU5LTM3LjIxLTcuMTYtNTYuMy00LjMxLTQuOTEuNzMtOS44MywxLjQ1LTE0LjY5LDIuNDMtNi41MywxLjMxLTEyLjM1LjI3LTE3LjI4LTQuNDQtLjUyLTI3LjUzLS42My01NS4wNy0xLjY1LTgyLjU4LTEuNDctMzkuNjEtMy4wNi03OS4yMi01LjYzLTExOC43Ni0yLjA3LTMyLTUuNDYtNjQtOC42Mi05NS45NS0zLjQxLTM0LjQ1LTYuOTMtNjguOS0xMS0xMDMuMjgtMi41Mi0yMS41My01Ljg0LTQzLTkuMjMtNjQuMzctMy4zNS0yMS4xMy0xMC4yNy00MS4yNy0xOC02MS4xMy05LjgtMjUuMi0yNC4yMi00Ny40Ny00Mi40LTY3LjQzLTE3LTE4LjYxLTM3LjkzLTI5LjY4LTYyLjU4LTM0LjA4YTE5LjUzLDE5LjUzLDAsMCwwLTMuNzQtLjIyLDEzLjgzLDEzLjgzLDAsMCwwLTIuNDYuNTNjLTMuNCwyLjgzLTIuNDYsNi44MS0yLjYxLDEwLjQ1LS42OCwxNy4xMy0yLjQyLDM0LjEzLTYuNjUsNTAuNzktMTEuOTEsNDctMzguNTIsODIuODYtODEuNTgsMTA1LjY0LTM1Ljg0LDE5LTc0LjA2LDMwLjQ5LTExNC42NiwzMi44My0yNC41NywxLjQxLTQ5LjIsMi4xNC03My44MSwyLjMzYTUwNSw1MDUsMCwwLDAtODcsOC42NGMtMzcuMSw2LjgxLTcyLjkyLDE3Ljc5LTEwOCwzMS4zOC03LDIuNzEtMTMuODIsNS44Ni0yMC43OCw4LjY3YTI5LjM2LDI5LjM2LDAsMCwxLTcuMTgsMiw1LjEzLDUuMTMsMCwwLDEtNS44OS0zLjYzYy0uNzgtMy4xMS0xLjQ2LTYuNzItLjYyLTkuNjZhODYuNDQsODYuNDQsMCwwLDEsNi45MS0xNy40YzktMTYuNDcsMTcuOTItMzMsMjcuODEtNDksMjItMzUuNDYsNDQuMzUtNzAuNzUsNjkuNzktMTAzLjg4LDI4LjI4LTM2LjgyLDU5LjQ2LTcxLDk0Ljc4LTEwMS4zLDI5LjY3LTI1LjQzLDYyLTQ2LjU4LDk4LjMtNjEuNDRhMjA1LjIsMjA1LjIsMCwwLDEsODMtMTUuNjNjMzAuMjMuNiw1Ni4xMiwxMS4wOSw3OS4xNSwyOS45MSwxMi42NiwxMC4zNSwyNC4yNiwyMS43OSwzMy44LDM1LjA2LDQsNS42NSw4LjY2LDcuOSwxNS41NCw4LjUyLDI2LjU2LDIuNCw1MS42Niw5LjY5LDczLjc1LDI1LjI0LDYuMTIsNC4zMSwxMS41OSw5LjUzLDE3LjQ3LDE0LjE4LDEuNDIsMS4xMywzLjMyLDEuNjQsNS43NCwyLjc5LjctNS43OS0uOTEtMTAuMTctMi4wNi0xNC40Ny02LjA2LTIyLjU3LTEyLjM0LTQ1LjA3LTE4LjU2LTY3LjU5LTkuNTYtMzQuNjUtMjEuOTMtNjguMzQtMzUuNDItMTAxLjYxLTEwLjIxLTI1LjE0LTIxLjQyLTQ5LjktMzUuNzgtNzMtNy40OC0xMi0xNi4zLTIzLjE5LTI0LjY2LTM0LjY0LTEuNjctMi4yOS00LTQuMDgtNi4yNi02LjI5LTEwLjcyLDMuNDctMTkuOTEsOS4yMi0yOC44OCwxNS4xNS00OS4xOCwzMi41My0xMDEuODgsNTYuNjItMTU5LjU2LDcwLjA3YTQ0NC40Nyw0NDQuNDcsMCwwLDEtMTIxLjcsMTEuNDljLTQ0LjQ2LTItODcuNDgtMTEuNDQtMTI5LjU5LTI2LjEtNTMuNi0xOC42Ny05OS00OS41OC0xMzguNjEtODkuNTFhNDE2LjQ5LDQxNi40OSwwLDAsMS00OC01Ny42OGMtMTYtMjMuMjgtMjcuNDItNDguNjEtMzUuNjQtNzUuNTZhMjczLjY0LDI3My42NCwwLDAsMS05LjI3LTQxLjQ3LDYzLjMyLDYzLjMyLDAsMCwxLS40OS0xMi40NmMuMjYtNC4yMywzLjM1LTYuOCw3LjY3LTYuNDdhNTcuODYsNTcuODYsMCwwLDEsMTEsMmMxNi4wNiw0LjM5LDMyLjI4LDMuODIsNDguNDQsMS4yMSwyMy45NC0zLjg3LDQ3LjE0LTEwLjgyLDcwLjIyLTE4LjE3LDI4LjYyLTkuMTIsNTcuMS0xOC43Myw4NS45Mi0yNy4xOCwyNi40LTcuNzUsNTMtMTUsODAuMTUtMTkuNzYsNzEuMjMtMTIuNSwxMzkuNTMtNC41NywyMDQuNzcsMjcuNjFhNDM3LjE0LDQzNy4xNCwwLDAsMSw2OS4xNCw0Mi42NGMzOC41NCwyOC45Miw2Ni44Nyw2Ni4xMSw4OC4xNywxMDlhNjIuNjIsNjIuNjIsMCwwLDAsNCw3Ljc3YzEuMDYsMS41NSwyLjksMy41MSw0LjQ3LDMuNTgsMy4wOS4xMywzLjQ1LTMsNC01LjM3LjI5LTEuMjEuNDMtMi40Ni42Mi0zLjcsNS0zMi4yOCwxNC4zOS02My40NCwyNC42Ni05NC4zNiwxMC0zMC4yLDIyLjc1LTU5LjI1LDM5LjIzLTg2LjQ3LDE2LTI2LjQ4LDM0LjU4LTUxLjExLDU3LjIxLTcyLjUyLDI5LjQ5LTI3LjkxLDYzLjctNDYuODEsMTAzLjM4LTU1LjczYTE1Ny4xMSwxNTcuMTEsMCwwLDEsNDIuMjUtMy44M2MxLjY3LjA4LDMuMzUuMDYsNSwuMywyLjkuNDEsNiwuODcsNy4zOCwzLjg4LDEuNDksMy4yNC0uNzUsNS41NC0yLjY5LDcuNzMtMi40OSwyLjgxLTUsNS42Ni03LjYzLDguMjgtMTYuMjksMTYtMjMuNDQsMzYuMS0yNi4zOCw1OC4xNWEzMDQuODcsMzA0Ljg3LDAsMCwwLTIuNjIsNDguNjlxMS4zOSw1MC42NywyLjMsMTAxLjM2Yy40LDIzLjM3LjI4LDQ2LjcyLTIuMTgsNzAtMi44NSwyNy05Ljc1LDUyLjQyLTI0LjkxLDc1LjI4LTE3LjM0LDI2LjE0LTQxLjE4LDQzLjI2LTcxLjEsNTIuMjRhMTE4LjExLDExOC4xMSwwLDAsMS03MS40NC0uNzFjLTMtLjkzLTUuOS0zLjM2LTkuODItLjU1YTQ5LjM1LDQ5LjM1LDAsMCwwLDMuMTgsNS4xNGMzMC45MywzOC44MSw1NC40NSw4MS44NCw3My43MiwxMjcuNDUsMjguNyw2Ny45Miw0OC44OCwxMzguNDIsNjUsMjEwLjIsNC43NCwyMS4xNyw4LjY3LDQyLjUxLDEzLDYzLjc3LjY1LDMuMjEuNjEsNi43NCw0LjU2LDkuMzYuODgtMS43OCwyLjI1LTMuMzgsMi40My01LjEsMS44OS0xNy40MiwzLjU5LTM0Ljg2LDUuMzItNTIuMjksNC43My00Ny43NSw5Ljc1LTk1LjQ2LDE2LjYzLTE0MywuMTgtMS4yNC4yNi0yLjUxLjU2LTMuNzIsMy4xNC0xMi42MiwxLjctMjQtNS40LTM1LjYtOC4zLTEzLjU3LTEyLjMtMjkuMTctMTQuMzUtNDUtMi43OS0yMS42MSwzLjQ2LTQxLjI4LDEzLjE2LTYwLjE5YTEzMy4yNywxMzMuMjcsMCwwLDEsMzEuMzUtNDAuMjRjNS42Ny00LjksOC43My0xMC43OCwxMC40NC0xNy45NCw4LjE0LTM0LjA4LDE2LTY4LjI1LDI1LTEwMi4xMSwxNC01Mi40NSwzMC40OC0xMDQuMSw1MS41Ni0xNTQuMjFhMTUzMC42MywxNTMwLjYzLDAsMCwxLDg5LjI3LTE3Ny43N3ExMi4zLTIxLjA3LDI0LjQxLTQyLjI3YzEuMjEtMi4xMiwyLjA4LTQuNDQsMy40MS03LjMxLTIuODItMS42OS01LjA3LTMuNDItNy42LTQuNWEzMTUuMzksMzE1LjM5LDAsMCwxLTQ0LjE5LTIzLjQzYy01Mi42Ni0zMy4xNy04NS41Mi04MS0xMDMuMjctMTM5LjgzLTUuMDYtMTYuNzYtOC44LTMzLjkyLTEzLjM4LTUwLjg0LTUtMTguNTItMTAtMzctMTUuNTgtNTUuNDJhMTQ3LDE0NywwLDAsMC05LTIyLDU5LjEzLDU5LjEzLDAsMCwwLTI0LjI4LTI2LjI1LDc3LjA4LDc3LjA4LDAsMCwxLTkuMjYtNi4zNiwzLjY5LDMuNjksMCwwLDEsLjgxLTYuMjMsMzguMjIsMzguMjIsMCwwLDEsOS40My0zYzE3LjQyLTIuNDgsMzQuOTItMy4xMyw1Mi4zNS0uMzYsMjMuNjQsMy43Niw0Ni4yNSwxMS4yOCw2Ny45MSwyMS4yMywzNi4xMywxNi42MSw3MC4zNCwzNi41LDEwMS4yOCw2MS43NWEyNjEuNDEsMjYxLjQxLDAsMCwxLDY4LjU5LDg1LjE3YzEuODUsMy42NCwzLjg2LDcuMTksNi4xMiwxMS4zNiwzLjgxLTEuMjUsNy0xLjk0LDkuOS0zLjMxYTI1MS4yMywyNTEuMjMsMCwwLDEsODIuNjYtMjMuNjdjMjAuNzItMi4xNCw0MS42Mi0yLjYyLDYyLjQ1LTMuNDYsMjYuMjctMS4wNiw1Mi42MS0uODgsNzguOC0yLjg0LDIxLjU4LTEuNjEsNDMtNS41Nyw2NC40OC04LjQ1LDEwLjQxLTEuNCwyMC41LTMuODMsMjkuODUtOC44MWEyMi4xMywyMi4xMywwLDAsMSw0LjY0LTEuODVjNS41NS0xLjUyLDEwLjUzLDEsMTEuMzIsNi42N2EzMS45NCwzMS45NCwwLDAsMS0uNzcsMTMuNTFjLTMuNTgsMTEuNTMtNy4zMiwyMy4xLTEyLjE4LDM0LjEzLTguMjMsMTguNzEtMTYuOSwzNy4yNi0yNi4yNyw1NS40Mi04LjgsMTctMTguNjUsMzMuNTUtMjguMTksNTAuMjEtMTUuMTUsMjYuNDMtMzAuMDgsNTMtNDcuOTIsNzcuNzdhMjc3LDI3NywwLDAsMS0zMywzNy42MWMtMTUuNDIsMTQuODQtMzQuMjYsMjMuNjEtNTQuNjYsMjkuMTctMzIuODUsOS02NS44Nyw5Ljc0LTk5LDEuNDctMjAuNzQtNS4xOC00MC43Ny0xMi01OS4xOC0yMy4yMS05LjM2LTUuNzItMTcuNDktMTIuODMtMjUuNDktMjAuMTEtNy4wOS02LjQ2LTEzLjY0LTEzLjUxLTIwLjQ0LTIwLjI4LTEuNzQtMS43Mi0zLjUzLTMuMzktNC45My00Ljc0LTQuNjEuMTgtNS4xNiwzLjUzLTYuMjEsNi03LDE2LjUxLTEzLjg0LDMzLjEtMjAuNzIsNDkuNjdxLTMzLjE1LDc5LjgyLTU5LjU4LDE2Mi4xMUExODUyLjUsMTg1Mi41LDAsMCwwLDI2MDMsMjE2NC4xMmMtLjUxLDIuMzgtLjU3LDQuODUtMSw4LjUyLDIuODEtLjk0LDQuNzUtMS4yMSw2LjI4LTIuMTVhNzgyLDc4MiwwLDAsMSwxNDQuMjgtNjljMTEtNCwyMi4wOS03LjU3LDMzLjIzLTExLjA4YTM1LjY3LDM1LjY3LDAsMCwxLDkuNzQtMS4zNWMyLjQzLS4wNiw0LjI3LDMuNjIsMi45Miw1LjcxYTMzLjYxLDMzLjYxLDAsMCwxLTUuNDEsNi43NmMtMTIuMTEsMTAuOTEtMTkuNzUsMjQuNjYtMjUuNTgsMzkuNTgtOS42MiwyNC42LTE1LjY2LDUwLjE2LTIwLDc2LjE0LTIuNjEsMTUuNjMtNC44MSwzMS4zMy03LjExLDQ3YTU1LjEsNTUuMSwwLDAsMCwwLDYuOGMzLjExLS4yMiw1LjU3LDAsNy43OS0uNjEsMjkuMDYtOCw1OC43NS0xMi40OCw4OC42OC0xNS4zOCwzMy42Ny0zLjI1LDY3LjQxLTUuNzIsMTAxLjIzLTMuMDcsNDAuNDIsMy4xNyw4MC41LDguNjYsMTE5LjI4LDIxLjEyLDI0LjIzLDcuNzksNDguODYsMTQuNyw3Mi4zMSwyNC40MSwzOS43OSwxNi40Nyw3OC4wOSwzNiwxMTEuMjIsNjQuMjZhMTI1LjY2LDEyNS42NiwwLDAsMSwxMC4xMyw5LjMxYzMuMjgsMy40OSw4LjksNi4yNiw3LDEyLjIyLTEuNjYsNS4xNi03LjI2LDQuOTQtMTEuNTgsNi0xMSwyLjU4LTIyLDQuODctMzMsNy4zNC0xMS4zOSwyLjU2LTIyLjc5LDUuMTMtMzQuMTYsNy44My0zLjYxLjg2LTcuMTEsMi4xNS0xMS4zOSwzLjQ3Ljg0LDIuNzUsMS4zNyw1LDIuMjYsNy4yMWEyNC40NiwyNC40NiwwLDAsMCwyLjYzLDQuMjVjMjUuMjMsMzYuNjksNDAuMjYsNzcuNjEsNDkuODMsMTIwLjc1LDcuMzQsMzMsMTMuMjQsNjYuMywxNC45MSwxMDAuMTQuODksMTcuOTEuNzIsMzUuODgsMSw1My44Mi4xMiw4Ljc2LjE4LDE3LjUzLjA5LDI2LjI5YTMwLjI1LDMwLjI1LDAsMCwxLTEsOC42M2MtMS40LDQuNTUtNi44OCw2LjgxLTExLjI3LDVhMTkuNjUsMTkuNjUsMCwwLDEtNC4yNS0yLjU5Yy0zOC43NS0yOS42My04Mi01MS4yLTEyNi4zNC03MC45LTIxLjcyLTkuNjYtNDMuNzMtMTguNjktNjUuMzUtMjguNTktMjQuMzUtMTEuMTQtNDctMjUuMjMtNjguODEtNDAuODEtMTQuNjMtMTAuNDgtMjguNDctMjEuODYtNDAtMzUuODRhMjIuMzksMjIuMzksMCwwLDAtMi43My0yLjQyYy00LjUyLS40OS02LjgxLDMtOS42MSw1LjIzLTIxLjQyLDE3LjM0LTQzLjEsMzQuMzItNjYuMTQsNDkuNDgtMTYuMDgsMTAuNTktMzIuODgsMTkuNzktNTEsMjYuNDktMzIuNzcsMTIuMTItNjIuOTEsOC41MS05MC4zOS0xNC4xMS0yMC0xNi41LTM4LjEyLTM1LTU1Ljg5LTUzLjc4LTYtNi4zNy0xMi4zMy0xMi40NS0xOC41OC0xOC41OWEzMS4xNiwzMS4xNiwwLDAsMC00LjQ3LTNjLTIsMS44NC0zLjg2LDMuMzgtNS40Niw1LjJhMTg4LjcsMTg4LjcsMCwwLDAtMjQuMjEsMzQuOTFjLTIzLjYxLDQzLjY4LTM5LDkwLjE3LTQ4Ljg0LDEzOC43OC00LjkxLDI0LjI5LTYuNTQsNDguNzItNy41NSw3My4zMy0yLjE3LDUyLjk0LTQuNiwxMDUuODctNi41OSwxNTguODItLjQ0LDExLjY0LjYzLDIzLjMzLjgsMzUsLjI5LDE5LjE5LjMzLDM4LjM5LjYxLDU3LjU5cS4zOSwyNi45MSwxLjExLDUzLjgyQzI1MzIuNywzMTA2LjU4LDI1MzMuMjgsMzExMS4xNCwyNTMzLjY1LDMxMTUuNzFabS03NDguMTUtNDIxaC0yLjQyYy0uOCwxLjY5LTEuNiwzLjM3LTIuNDEsNS4wNi0uMi42NC0uNDEsMS4yOC0uNjIsMS45Mi4xOS0uNjYuMzgtMS4zMS41Ni0yWm0tMTk3LjY2LTcwMS4xOWMzLjczLDYuMjEsOS4wOCwxMC44NywxNC45MSwxNC45MywyNSwxNy4zOSw1Mi43OSwyOC4zMiw4Mi4yNCwzNS4yOCwyMC43NSw0LjksNDEuODgsNi43NCw2My4xMyw3LjU1LDIuMDkuMDgsNC4xNi4yOSw2LjI0LjQ0LDguNzEuNjcsMTcuNDEsMS4zOSwyNi4xMiwyLDMuNzQuMjUsNy42LS4zNSwxMS4yNC4zNSwxNi41NCwzLjE4LDMzLjI1LDEuNzUsNDkuODksMi4yNiw1LC4xNSwxMCwuNDYsMTUsLjgxLDYuMjIuNDMsMTIuNDMsMS4zNSwxOC42NSwxLjM5LDM4LjM2LjIxLDc2LjczLjIyLDExNS4xLjMzLDMuNzUsMCw3LjUxLjA2LDExLjI1LjM2LDE4LjI0LDEuNDMsMzYuNDUsMy4zOSw1NC43Miw0LjMxYTQyNy44NCw0MjcuODQsMCwwLDEsNTMuMjgsNi4zM2MzMy4yNCw1LjkxLDY2LjM1LDEyLjcyLDk3LjYsMjYuMjNhMTUuNTYsMTUuNTYsMCwwLDAsNC43NSwxLjQ5YzEuOC4xMywzLjYzLS40MSw2LS43My0uNjYtMi41MS0uNzktNC4yMi0xLjUxLTUuNjItNC4yMS04LjEzLTguMTktMTYuNC0xMi45My0yNC4yMS04LjQ2LTEzLjk0LTE5LjQ1LTI1LjkzLTI5Ljg4LTM4LjQxLTEzLjUtMTYuMTYtMzAuMS0yOC43MS00NS4zMS00Mi44Ni0uMy0uMjgtLjY5LS40Ni0xLS43Mi0yMy4xMy0xOC40Mi00OS40OC0zMC43Ni03Ny4xLTQwLjYyYTI4NC4zMSwyODQuMzEsMCwwLDAtNjUuNTktMTUuMzVjLTE0LjQ1LTEuNTMtMjguODktMy44Mi00My41Ny0zLjIyLTE0LjE0LjU4LTI4LjIzLjcxLTQyLjM5LDIuMDYtMTYuNjQsMS41OS0zMy4yLDMuNTktNDkuMzYsNy40MS0yMy45LDUuNjUtNDcuNjEsMTIuMjgtNzEuMDksMTkuNDktMjUuNTEsNy44My01MC42NCwxNi44NS03NiwyNS4yNS0yNy44Nyw5LjI0LTU2Ljc5LDEzLTg1Ljg0LDE1LjcyLTUuMy41LTEwLjc2LS42Ni0xNi4xNC0xLjA5Wm0xMzE4LjI2LDI2Ny4yYy0xMi43LDEtMjUuNTUsMi45LTM4LjQxLDIuOTQtMjEuMzUuMDctNDIuNSwyLjQ0LTYzLjM4LDYtMzYuMjEsNi4xNC03MS45MiwxNC42MS0xMDYsMjguODUtMTkuMjksOC4wNi0zOC4yOSwxNi43Ni01Ni4xMiwyNy41Ni0zMC40MywxOC40My01OC4yOSw0MC4yOC04Mi40NCw2Ni42MmExMzUuMjgsMTM1LjI4LDAsMCwwLTIyLjc3LDM0LjI0LDIwLjI0LDIwLjI0LDAsMCwwLTEuNzIsNiw0LjgyLDQuODIsMCwwLDAsNC4zMSw1LjMsNC43MSw0LjcxLDAsMCwwLDIuMzctLjM1LDc4LDc4LDAsMCwwLDguNjMtNWMxMy40My04LjQxLDI2LjQ5LTE3LjQ4LDQwLjMxLTI1LjE3LDQxLjQ2LTIzLDg1LjgtMzksMTMxLjU4LTUwLjc5YTgxNS42NCw4MTUuNjQsMCwwLDEsMTE0LjI2LTIwLjcxLDc0OC40Nyw3NDguNDcsMCwwLDEsOTEuMDUtNC42YzEyLjkzLjE1LDI1Ljg4LS4yNiwzOC44LjIsMTcuMDYuNjEsMzQuMTIsMS41LDUxLjEzLDIuODcsMTMuNjgsMS4xLDI3LjMxLDMsNDAuOTMsNC43MiwxNC40NiwxLjg1LDI5LDMuNDYsNDMuMyw2YTEwNTcuNjksMTA1Ny42OSwwLDAsMSwxMDQuNjksMjQuNTEsMzQuNDcsMzQuNDcsMCwwLDAsOC41NSwxLjQ0LDUuMjYsNS4yNiwwLDAsMCw0LTIuMjJjLjY1LTEuMTcuNTgtMy42My0uMjUtNC41NGE0OC4wNSw0OC4wNSwwLDAsMC05LjE1LTguMzVjLTE1Ljc3LTEwLjE2LTMxLjQzLTIwLjU2LTQ3LjcyLTI5LjgzYTM1MS45NCwzNTEuOTQsMCwwLDAtNDIuNjEtMjEuMDZjLTMxLjM2LTEyLjYxLTYzLjQxLTIzLjM0LTk2LjY1LTMwLTE4LTMuNjEtMzUuOTItNy4xNy01NC4xOS05LjMyLTEwLjM5LTEuMjItMjAuNzYtMS41OC0zMS4xMy0yLjRzLTIwLjc1LTEuOTQtMzEuNC0yLjkxWm0yMzAuNzctNzE1Yy0yLjctMy4yNS01LTEuOTQtNy4zNS0xLjA5LTcuNDEsMi43NC0xNC42OCw2LTIyLjI0LDguMTYtMTguNTEsNS4zOS0zNy41MSw3LjQ3LTU2Ljc2LDcuNTMtNSwwLTEwLC4yOS0xNSwuNjMtNywuNDctMTQuMDcsMS4zOC0yMS4xMiwxLjYyLTkuMTYuMjktMTguMzQuMjEtMjcuNTEuMTFhNzYzLjg5LDc2My44OSwwLDAsMC05Niw0LjY1LDIxOS42MiwyMTkuNjIsMCwwLDAtNTMuMzEsMTIuNTQsMTA1LjE3LDEwNS4xNywwLDAsMC00NSwzMi41OSwzMTQuNDcsMzE0LjQ3LDAsMCwwLTI1LjQ3LDM3Yy0xNi43NCwyOC0yNC44Miw1OC4wOC0yMi4yMiw5MC43NS41OSw3LjQ4LDEuODUsMTQuOTMsNiwyMS40NCwxLjQsMi4xOSwzLjY2LDMuOSw2LjI5LDIuOWE4LjUzLDguNTMsMCwwLDAsNC4yNy00YzIuMDktNC41MSwzLjM4LTkuMzksNS40OC0xMy44OSw4Ljc0LTE4LjY4LDIzLjk0LTMyLDM5LjItNDQuODNhMjI2Ljc1LDIyNi43NSwwLDAsMSw1Mi43NS0zMy4yNWMxOC42MS04LjM4LDM3LjExLTE3LDU1LjkzLTI0LjkxLDMxLjU0LTEzLjE5LDYzLjcyLTI0LjY3LDk2LjA5LTM1LjY4LDE2LjU1LTUuNjMsMzMuMDgtMTEuNjEsNDktMTguODUsMjEuMjQtOS42Niw0MS44OS0yMC42Miw2Mi43LTMxLjJhNzMuMjMsNzMuMjMsMCwwLDAsMTEuNC03LjUzYzEuNDEtMS4xMiwyLTMuMjgsMi44NC00LjdabS04OTUsOTAxLjkyYzAtMS42Ny4zMy0yLjY5LDAtMy4yMy0xNC43NC0yMS4yNy0zMi40NC0zOS4wNi01Ny4yNS00OC40NS0xNi41OC02LjI3LTMzLjg4LTkuNTctNTEuNC04LjcxYTIwMS4yMiwyMDEuMjIsMCwwLDAtNTIuNjIsMTBjLTI3LjU2LDktNTIuOTQsMjIuMzctNzcuMSwzOC4wOS0yNy4zMSwxNy43OC01MS44MSwzOS4xNy03NS42NSw2MS4yNWEzOTIuMzQsMzkyLjM0LDAsMCwwLTM2Ljk0LDM5Yy0xMC41NywxMi44Ny0yMiwyNS4wNi0zMiwzOC4zNy0yMS4yMiwyOC4zNy00MS4zNyw1Ny41Mi01OS4wNiw4OC4yOC00LjE1LDcuMjItOC4yNSwxNC40Ny0xMi4yNCwyMS43OC0uNzksMS40My0xLDMuMTgsMS42NCw0LjEsNC0xLjQzLDUuNTctNS42OCw4LTguODMsMTYuNzgtMjEuODMsMzQuNTMtNDIuNzgsNTQuMzctNjEuOTIsOC40LTguMSwxNi40NS0xNi41NywyNC44MS0yNC43MiwxMC40My0xMC4xOCwyMC43Mi0yMC40NSwzMi4wOS0yOS42OSwzNy4zMS0zMC4zNSw3Ni42MS01Ny40MiwxMTkuOTEtNzguNzFhNDQyLjg0LDQ0Mi44NCwwLDAsMSw5MS40Ni0zMy4yM2MxOC42Ni00LjUzLDM3LjctNi44Myw1Ni43My04Ljg0LDE1Ljg0LTEuNjcsMzEuNTYsMS4yNSw0Ny4yMiwzLjQ0LDYsLjg0LDExLjkzLDIsMTgsMlptOTgyLjksMjYzLjUxYzEuMDktMTEuMjUsMi4yMS0yMi4yMSwzLjE3LTMzLjJhNDIuNTEsNDIuNTEsMCwwLDAtLjMzLTcuNDhjLS4xNS0xLjY1LS42Ni0zLjI2LS45LTQuOTFhNTMuODUsNTMuODUsMCwwLDEtLjY5LTYuMjFjLS40My0xNi42NC4yNS0zMy4zMS0yLjYxLTQ5Ljg2LTItMTEuNDYtMi4yMy0yMy4yNS00LjYzLTM0LjYxLTQuNDgtMjEuMTgtOS42Ni00Mi4yMi0xNS4wOS02My4xOGEyNzMsMjczLDAsMCwwLTI2LjMtNjYsMjA0LjQ4LDIwNC40OCwwLDAsMC0xNy43OC0yNS42MWMtNS42Mi03LjEyLTEyLjg2LTkuODYtMjIuMi02LjEtOS42NSwzLjg4LTE5Ljc2LDYuNi0yOS42MSwxMGEyNjEuMDcsMjYxLjA3LDAsMCwwLTUyLjY4LDI1Ljc3Yy03LjQxLDQuNjQtNy43NSw3LjUyLTIsMTMuNjUsMi44NiwzLDUuODMsNiw4Ljg4LDguODFhMjcwLjEyLDI3MC4xMiwwLDAsMSwzMi41MywzNi4yM2MxNy44OCwyNC4wOCwzNS4yMyw0OC41Niw1Mi4yOCw3My4yNSwxMi4wNywxNy40OSwyMy40MSwzNS40OCwzNC44MSw1My40MiwxNS4yMSwyMy45MywzMC4xLDQ4LDQwLjYzLDc0LjU0LjIxLjU3LDEuMjQuOCwyLjQ4LDEuNTNabS03MjQuOTMtOTEzLjg2Yy00LTIuNDEtNy44LTEuODEtMTEuNDQtMS4yMmExNzMsMTczLDAsMCwwLTQxLjkxLDEyLjI5Yy00MC4yNSwxNy42NS03Mi45LDQ0Ljk0LTk5LjUzLDc5LjU5YTM2OS40MSwzNjkuNDEsMCwwLDAtNDcuMTIsODAuODRjLTIwLjUyLDQ4LjI0LTM1LjMzLDk4LTQxLjU0LDE1MC4xMy0uMzQsMi44LTIsNS43My43LDguMjEsMS43LDEuNTgsNS4wNi4yMiw4LjUyLTMuNCwxLjE0LTEuMjEsMi4xOC0yLjUyLDMuMjItMy44MmEyODIuODMsMjgyLjgzLDAsMCwwLDI3Ljg3LTQzYzExLjYxLTIxLjY5LDIyLjgzLTQzLjU5LDM0LTY1LjVhODIwLDgyMCwwLDAsMSw1NC42OC05Mi41NSw1MjQuNyw1MjQuNywwLDAsMSwxMDcuNTUtMTE0LjNDMjQ5NywxODAyLjksMjUwMC4yMywxODAxLjkzLDI0OTkuODQsMTc5Ny4yOVpNMjUyNCwxNDEyLjk0Yy43Miw0LjU0LDQuOCw1LjQzLDgsNyw5LjM3LDQuNTYsMTkuMSw4LjQzLDI4LjI1LDEzLjM3LDEwLjI2LDUuNTUsMTkuOTIsMTIuMTgsMzAsMTgsMjQuNDMsMTQsNDUuMTEsMzIuODIsNjUuNjIsNTEuNzQsOS40Niw4LjcyLDE3LjYzLDE4Ljg1LDI2LjM4LDI4LjM0YTM0OC44LDM0OC44LDAsMCwxLDMyLjQ0LDQxLjI0YzEyLjYzLDE4LjY2LDI0Ljg2LDM3LjU2LDM1LDU3LjcxYTMyLDMyLDAsMCwwLDMuMzYsNS4yNCw0Ljc1LDQuNzUsMCwwLDAsNi43MS4yN2gwYTE2Ljg3LDE2Ljg3LDAsMCwwLDIuNDUtMi44MmM4LjI4LTEyLjUyLDE2LjUzLTI1LjA3LDI3LTM2YTYuMzUsNi4zNSwwLDAsMCwxLjUtN2MtNC42Mi0xMi04LjE4LTI0LjU2LTE1LjM5LTM1LjUtOS4xOS0xNC0xOC44NS0yNy41Mi0zMS4xMS0zOS01Ljc4LTUuNDItMTEuMjgtMTEuMTQtMTYuODYtMTYuNzhhMjg2LDI4NiwwLDAsMC00Ni41Ny0zNy42OWMtMjkuNDItMTkuMzItNjAuNjgtMzQuOTQtOTQuODMtNDQuMzMtMTcuODEtNC44OS0zNS44My03Ljc2LTU0LjM1LTYuNzQtMi43LjE3LTUuOTItLjQ2LTcuNTYsM1ptNjQuNTksODU0YzUuMTkuMzUsNi43Mi0yLjkzLDguNS01LjU4LDE0LTIwLjgsMzAuNTItMzkuNTUsNDcuMzItNTgsMTcuMTEtMTguODEsMzYuMjMtMzUuNTksNTYuNDYtNTEsMTMuMjMtMTAuMTEsMjYuNTYtMjAsNDEuNDEtMjcuODYsMTIuNTEtNi41OSwyNC40Ny0xNC4yNCwzNi42NC0yMS40OCwxLjIyLS43MiwzLjE4LTEuMywxLjc4LTRhMjAuODUsMjAuODUsMCwwLDAtNC41OC42N3EtMjQuNTQsOS4yNC00OSwxOC42NWMtNDMuNTYsMTYuNjUtODIuNzgsNDEtMTIwLjM1LDY4LjE4LTYuMDcsNC40LTEwLDkuODUtMTEuNTUsMTcuMTMtLjk0LDQuNDktMi41LDguOTQtMi42OCwxMy40Ni0uNDksMTEuNzEtMi44LDIzLjEyLTQuNzMsMzQuNjEtLjg1LDQuOTItMS41Myw5LjkyLjc4LDE1LjI1Wm0tODYuMzIsMTEzLjM1YzMuMTItNSwzLjcyLTkuODgsNC41LTE0LjcxLDMuMTItMTkuMzIsNi4xMi0zOC42Nyw5LjQtNTgsMi4zLTEzLjU1LDUtMjcsNy40Ny00MC41Ny40Ni0yLjQ4LjgyLTUtMy02LjQ4YTQyLjM5LDQyLjM5LDAsMCwwLTUuNSw0LjEyLDEwMi41NSwxMDIuNTUsMCwwLDAtMjUuODYsNDVjLTQsMTQuMzctMy4xLDI5LTEuNjIsNDMuNS44OSw4LjczLDUsMTYuNzcsMTAuNDgsMjMuNzlDMjQ5OSwyMzc4LjE3LDI1MDAuNDgsMjM3OC45MSwyNTAyLjI1LDIzODAuMjlabTUxLjU5LDE3OS43YzguODYtOC4xLDM1LTM4LDM4Ljg1LTQ0LjMyLTcuNi05LjMyLTE3LjI0LTE2LjUzLTI2LjkzLTIzLjY2LS44LS41OS0yLjIyLS4zMy0zLjI4LS40NkMyNTU5LjYsMjUwMC4zNSwyNTU0Ljg5LDI1MzcuNDMsMjU1My44NCwyNTYwWiIgY2xhc3M9ImNscy0xNiIvPjxwYXRoIHRyYW5zZm9ybT0idHJhbnNsYXRlKDAgMC4wMikiIGQ9Ik0yNDM2LjU3LDMxODguMjljMTAuOC0uMDksMjEuNTUtLjU0LDMyLjI5LDEuODMsNS4xNywxLjE1LDEwLjc3LjY1LDE2LjE3LjQ5LDE0LjUtLjQxLDI5LjA4LDEuMzksNDMuNTItMS44LDIuNTMtLjU1LDUuNTYsMS4xNSw4LjM2LDEuODIuOTQsNy44NCwxLjQ3LDE1Ljc3LDMsMjMuNDkuNzgsMy45MywzLjE2LDcuNjMsNS4yMywxMS4yLDUuODQsMTAuMDksMTIuMTUsMTkuOTMsMTcuNzgsMzAuMTRhNTYuMSw1Ni4xLDAsMCwwLDE0LjY4LDE2Ljg5YzIxLjU5LDE3LDQyLjUzLDM1LDY2LDQ5LjQ4LDYuMzgsMy45MywxMy4wNiw3LjM5LDE5LjY5LDEwLjg5YTIyLjE3LDIyLjE3LDAsMCwwLDcsMi41MmMxNi4yMSwyLjMyLDMxLjM3LDguNCw0NywxMi42NSwxOC4wOSw0LjkxLDM2LjUxLDguNTksNTQuNzgsMTIuODMsOS44MSwyLjI4LDE5LjkyLDEuODYsMjkuNzUsMy4yLDI0LjU2LDMuMzQsNDkuMTcsMS4yNSw3My43MiwyLjI0LDIyLjg1LjkzLDQ0Ljg1LTMuNiw2Ni4zNi0xMC41NSwxMi44LTQuMTQsMjUuOTItNi4xOCwzOS4wNi04LjQzYTExLjY0LDExLjY0LDAsMCwxLDMuNzItLjI3YzEzLjU3LDIuMiwyNy4zOSwxLjY5LDQxLDQuNiwxNy42OCwzLjc5LDM1LjY3LDIuNTUsNTMuNTYsMSw1Ljc5LS41LDExLjU4LTEuNDQsMTcuMzktMS41LDE3LjUyLS4xOSwzNS0uMzMsNTIuNTcuMDYsMTMuODUuMywyNy4zOS0xLjY0LDQxLTMuNjEsMTcuODItMi41OSwzNS42LTIuNDgsNTMuNDEsMS41MSwyMC4zMSw0LjU2LDQwLjg2LDguMSw2MS4zLDEyLjEzLDIuMzQuNDYsNC42MSwxLjI5LDYuNzQsMS45MS4xMiwzLjQxLTIuMTQsMi44LTMuNDgsMi44NC0yMC40Ni43My00MC44Mi4xMS02MS0zLjgyYTEyNy4zNiwxMjcuMzYsMCwwLDAtMjMuNTItMi42OGMtNi41OCwwLTEzLjIzLDEuNDQtMTkuNzcsMi43LTE3LjE5LDMuMy0zNC4zLDctNTEuNTEsMTAuMjEtOSwxLjY3LTE4LjEzLDIuNTMtMjcuMiwzLjg0LTI3LjgxLDQtNTUuOCwyLjQxLTgzLjY5LDIuMDgtMTctLjItMzMsMi45MS00OS4xNSw3LjMzLTE4LjYsNS4wNy0zNi4xMiwxMi45LTU0LjIyLDE5LjIycy0zNi4xMyw5Ljc5LTU1LjE3LDljLTExLjY1LS41LTIzLjM3LjU5LTM0Ljg4LTIuMjItMS40OC0uMzYtMy4yLjI1LTQuODEuNDEtLjcyLDQuNjYsMi41NSw2LjUsNS4yLDhhMTk1LjIyLDE5NS4yMiwwLDAsMCwxOSw5LjU4LDMxMC43NCwzMTAuNzQsMCwwLDAsNDMuNTMsMTUuNTksOTMuODQsOTMuODQsMCwwLDAsMjUuOTEsMy41OWMxNS40NC0uMjQsMzAuOS0uNDcsNDYuMzEuMTcsMTIuNDUuNTIsMjQuODYsMi4yMywzNy4yNywzLjU4LDE2LjYzLDEuODIsMzAuOTQsOS43Miw0NC45NCwxOGExMzYuMDYsMTM2LjA2LDAsMCwxLDE5LjE2LDE0YzEwLjcxLDkuMjYsMjAuODksMTkuMTQsMzEuNDYsMjguNTcsNi41Miw1LjgzLDEzLDExLjgyLDIwLjE1LDE2Ljc5YTY4LjU3LDY4LjU3LDAsMCwwLDI3LjU0LDExLjQ0LDYyLjM1LDYyLjM1LDAsMCwxLDEwLjg1LDIuODZjNC4zNSwxLjYyLDYuMTUsNC45MSw1LjQsOC42OHMtNC4xLDYtOC42Miw1LjMyYy0xNy45Mi0yLjczLTM1LTcuNjctNDkuNi0xOS4xLTEzLjQ2LTEwLjUyLTI3LjA4LTIwLjg0LTQwLjcxLTMxLjEyLTctNS4yNy0xNC4xNy0xMC4yOS0yMS4zLTE1LjM3YTE4Ljg2LDE4Ljg2LDAsMCwwLTQuMzgtMi40Yy0xMC41OC0zLjgzLTIxLjE1LTcuNzItMzEuODMtMTEuMjZhNjMuNTUsNjMuNTUsMCwwLDAtMjEtMi44M2MtMTIuMS4xNi0yNC4yMS4yMy0zNi4zLS4wOS0xNS45Mi0uNDEtMzEuNTIsMS40OC00Ny4yMyw0LTI0LjE0LDMuODQtNDYuNTgtMS4yNC02NS42NC0xNy4yMmE3Myw3MywwLDAsMC0xOS4xNi0xMS41MWMtMjAtOC4zNi0zOS44NC0xNy4xMi01OS45My0yNS4yN2EyMzcuNDcsMjM3LjQ3LDAsMCwwLTI4LjQ0LTkuNTZjLTE1LjcyLTQuMTUtMzEuNjMtNy41OC00Ny40Ny0xMS4yM2E0MC40Miw0MC40MiwwLDAsMC01LjU5LS41N2MtMy43MSwzLjIyLTIuMiw2LjQ4LTEuNTUsOS43MSwzLjUxLDE3LjU2LDguMTIsMzUsMTAuMTEsNTIuNzQsMS42OCwxNSw3LjQ0LDI4LjA5LDEzLjMsNDEuNGE0My4zMyw0My4zMywwLDAsMCwyMi4zMiwyMi42OWMxMS4xNCw1LDIwLjk0LDEyLjExLDMwLjQyLDE5LjYxLDcuNTMsNiwxNC4zNCwxMi43MywxOS40NiwyMXMxMC4yMSwxNi4yNCwxNS41NCwyNC4yMWE3OS4wOSw3OS4wOSwwLDAsMCwyMy4yLDIyLjQ2LDE4LjY2LDE4LjY2LDAsMCwwLDUuNjMsMi42MmMxNSwzLjYzLDI5Ljc1LDguMTMsNDUuNDMsOGE1My4xLDUzLjEsMCwwLDEsMzEuNiwxMC4wOWMxNi43LDExLjc2LDMzLjczLDIzLjA3LDUwLjkzLDM0LjA5LDE1LjQ0LDkuODksMzEuMywxOS4xMyw0NywyOC42OCwxLjY4LDEsMy4yMywyLjI2LDQuNjcsMy4yNy0uOTQsMy0yLjcsMi4zOS00LjE3LDEuOTQtMTcuNi01LjQyLTM0LjY3LTEyLjA3LTUwLjEzLTIyLjMtMTYuMzMtMTAuOC0zMi43NS0yMS40OS00OC44Ny0zMi41OS04LjU5LTUuOTItMTcuNi05LTI4LjEyLTguMzYtMTMuMzkuODItMjYuNjctLjE0LTM5LjYtNC4yNi0yLjMyLS43My01LS40OC03LjQ0LS42OGwtLjQtLjQ1LjQzLjQyYzEuMTgsMi4yLDIuMDYsNC42MywzLjU4LDYuNTgsOS4zNywxMiwxNC42MywyNi4xNywyMC40OCw0MCwzLjQxLDguMDYsNS4yMSwxNi41NCw2LjQ0LDI1LjM0LDIuMDcsMTQuODQsNS41NiwyOS40OCw4LjU4LDQ0LjE4LDIuMTcsMTAuNTYsNC41NSwyMS4wNyw2LjgyLDMxLjU0LTIuMjMsMi43My00Ljc2LDItNi40NSwwLTIuMzgtMi44MS00Ljg5LTUuODktNi05LjI5YTE2MC4xNSwxNjAuMTUsMCwwLDEtNS42Ni0yMS43NWMtMy4xNS0xNy4yNy02LjkxLTM0LjM1LTEzLjg3LTUwLjUyLTIuMTItNC45My01LjI2LTkuNDEtOC0xNC4wNi0uNjMtMS4wNy0xLjYyLTEuOTItMi4yOC0zLTE0Ljg4LTIzLjY1LTI5LjY3LTQ3LjM2LTQ0LjY0LTcwLjk0LTQuNjktNy4zOS05Ljg1LTE0LjQ3LTE0LjgyLTIxLjY3YTE1Ljc2LDE1Ljc2LDAsMCwwLTIuNC0yLjg4Yy03LjgyLTYuODgtMTUuNjktMTMuNjktMjMuNTItMjAuNTYtOC44Mi03Ljc1LTE4Ljc4LTEzLjgtMjguODctMTkuNjctMTIuNC03LjIyLTIyLjgzLTE2LjgyLTMyLjA3LTI3LjY0cy0xNC4xMS0yMy42NC0xNy4yMy0zNy4xNmMtNi40OC0yOC4xLTE1Ljg0LTU1LjMxLTI1LjQtODIuNDQtNS4yNy0xNC45NC0xMy44NC0yNy4yLTI4LjQ5LTM1LTkuNS01LjA2LTE3LjkzLTEyLjExLTI3LTE4LjA3YTYwLjE2LDYwLjE2LDAsMCwwLTEwLjktNS45MmMtNy43NS0zLjA4LTE1LjY5LTUuNjktMjMuNTMtOC41NGEzMy40MSwzMy40MSwwLDAsMC0xOS43NC0uODNjLTYuNCwxLjYxLTEyLjUsNC41Mi0xOC41Nyw3LjIzLTMuNTYsMS41OC01LjcyLDQuNjUtNi44Miw4LjUxLTIuNzksOS43OS0zLjY0LDE5LjUyLTEuMywyOS42MmEzNTYuNDQsMzU2LjQ0LDAsMCwwLDIwLjIsNjEuNzhjMTAuMzEsMjMuNywyMS43MSw0Ni45MiwzMi4zNyw3MC40OGE0MC41OSw0MC41OSwwLDAsMCwxOC4zMiwxOS42NWMxMC45Myw2LDIxLjE1LDEzLjM0LDMxLjcyLDIwLDQuOTMsMy4xMyw5LjY0LDYuODcsMTUsOSwxNS42Myw2LjI3LDI1Ljc0LDE4LjI4LDM0LDMyYTE0NC4xLDE0NC4xLDAsMCwwLDIwLDI1LjQ4YzcuNzksOC4wOSwxNC43MSwxNywyMS45MywyNS42MWEzMy44NywzMy44NywwLDAsMSwzLjQ4LDUuMzhjMS40OCwyLjYzLDIuNTEsNS40LjA5LDguMDctMS45LDIuMDktNS4zOCwxLjEzLTguNDYtMi41OS04LTkuNjEtMTUuODQtMTkuMzItMjMuNzctMjlBMjkzLjYzLDI5My42MywwLDAsMCwyNjM2LDM1ODhhMjguNjgsMjguNjgsMCwwLDEtMy44Mi0zLjIyYy04LjMxLTEwLTE5Ljg5LTE0Ljg0LTMxLjI2LTIwLjExLTguMzEtMy44NC0xNi40OC04LTI0LjU4LTEyLjI2LTUuMTktMi43Mi0xMC4yNC01LjQ3LTE2LjIxLTYuMjktMTAuODQtMS40OS0xOC03LjUyLTIyLjE5LTE3Ljc5LTQuNzUtMTEuNTYtMTAuNDMtMjIuNzMtMTUuNTctMzQuMTRhMjcuMSwyNy4xLDAsMCwwLTExLjM4LTEyLjg5Yy0xNS43OC05LTI0LjE1LTIzLjc4LTMwLjIzLTQwLjA3LTcuNDQtMTkuOTMtMTQuNDMtNDAtMjEuNzYtNjAtMS41My00LjE3LTIuNzEtOC43Ny02LjU4LTExLTEuMTUuMDgtMS43MSwwLTEuOTMuMTZhMTQ0LjYxLDE0NC42MSwwLDAsMC0yNy4xMiwzNS41NiwzNy4yNSwzNy4yNSwwLDAsMC0zLDI2Ljc5YzEuMzksNS42OCwyLjg5LDExLjMzLDQuMTMsMTdhNDEuODYsNDEuODYsMCwwLDAsOS4xOSwxOC45NGM5Ljg3LDExLjMzLDE1Ljc1LDI0LjU5LDE4LjQxLDM5LjE2LDIuMDYsMTEuMzQsNy4yOCwyMSwxMi44NywzMC44NSwxOC45MywzMy4zNSw0My45MSw2MS43Miw3MS4yOCw4OC4xOWExMzkuNTQsMTM5LjU0LDAsMCwwLDE0LjU1LDExLjc5YzEyLjQ0LDkuMTMsMjUuMjcsMTcuNzIsMzcuNDUsMjcuMTZhMzQ3LjIyLDM0Ny4yMiwwLDAsMSwyOS4zNywyNS4yMWMxNi4xOSwxNS43NSwzMy4yMSwzMC4zMyw1Mi4zMyw0Mi40N2EyNTUsMjU1LDAsMCwxLDQ3LjU3LDM4LjQzYzE0Ljk0LDE1LjYsMzAuMzMsMzEsNDIuNjYsNDksNi4zMiw5LjI1LDE0LjA2LDE3LjUzLDIxLjExLDI2LjI5LDIuMjcsMi44MSw1LjM1LDUuMzQsNC4yOCw5LjgyLTMuODIsMS42Ny02LjYyLS41OC04Ljg2LTIuNzctNi41NS02LjQtMTMtMTIuOTQtMTkuMDgtMTkuNzgtMTguNi0yMC45Mi0zNy44Ny00MS4xNi02MC40OS01Ny43N2ExODYuNTcsMTg2LjU3LDAsMCwwLTQxLjQ2LTIzLjEyYy0yMS41Ny04LjU2LTQwLjcyLTIxLjEzLTU5LjMtMzQuNTctMTYuMjItMTEuNzMtMzIuMjItMjMuNzUtNDkuMzYtMzQuMTEtMTAuNjctNi40NS0yMS42NS0xMi4zNy0zMi40OS0xOC41MmwtLjYyLS40Ny40OC42YzEuNjksMy4zMSwyLjg4LDcsNS4xNCw5Ljg2LDEwLjY3LDEzLjQ5LDE4LjQzLDI4Ljc5LDI3LjY1LDQzLjE4LDEzLjU2LDIxLjE2LDIzLjI2LDQ0LjE2LDMzLjE3LDY3LjE3YTIyMS43NywyMjEuNzcsMCwwLDEsMTUuNzEsNTYuNDNjMS43OCwxMi4zNCwyLjQ5LDI0Ljg0LDMuNDgsMzcuMjguMTksMi4zNC40Miw1LjE1LTIuNDQsNi41Mi0xLjkuOTEtNS0xLjI3LTUuOTEtNS4xOC0yLjMyLTkuNzItNC45NC0xOS40Ny02LjA5LTI5LjM2LTMuMjEtMjcuNjQtMTQuODMtNTEuOTEtMjguNjYtNzUuNDQtMTIuMDctMjAuNTUtMjYuODctMzkuMTUtNDEuMzEtNThhODYuNTEsODYuNTEsMCwwLDAtNy42My04LjI3Yy04Ljg0LTguODctMTcuNTctMTcuODYtMjYuNjYtMjYuNDYtMTguNzQtMTcuNzQtMzIuNjgtMzktNDQuNDMtNjEuNjMtMTQuMjctMjcuNTUtMjMuNDEtNTctMzEuNjMtODYuODUtMS4yMy00LjQyLTEuNjUtOS4xNC0zLjQxLTEzLjMxYTE1Mi4zMiwxNTIuMzIsMCwwLDAtMTAtMjBjLTMuNDUtNS42Ni03Ljg5LTEwLjc0LTEyLTE2YTYzLjE1LDYzLjE1LDAsMCwwLTQuNjMtNC43N2MtMiwxLjMtNC4wOCwyLTUuMjksMy41MS0xMi4yMSwxNC43Ni0yNS42NiwyOC40NS0zNy4xNiw0My44NS0xMS4yMywxNS0yMy4yOSwyOS40NC0zMi41Niw0NS44NmEzNy41NCwzNy41NCwwLDAsMS0zLjQ0LDUuMjFjLTEzLjE2LDE2LTE5LjI1LDM0LjgzLTIyLjMzLDU0LjkyYTQ1Mi41LDQ1Mi41LDAsMCwxLTguODksNDUuMzZjLTIuNzQsMTAuNDMtNCwyMS4yNy01LjY2LDMyYTMxLjkxLDMxLjkxLDAsMCwwLDAsOC43M2MyLjE1LDE3LjM1LDQuNDYsMzQuNjgsNi42Niw1MmEzMy40OSwzMy40OSwwLDAsMSwwLDQuNDhjLTIuNzksMS4zNi0zLjU3LS4xNC00LjI3LTEuNjEtNS40Mi0xMS40NS03LjEyLTIzLjk0LTkuODctMzYuMTEtMy44OS0xNy4yNS0zLjQ2LTM0LjgzLTIuNzYtNTIuMzMuMzgtOS41NCwyLjA3LTE5LDMtMjguNTYuNzMtNy40NSwxLjc4LTE0LjkzLDEuNy0yMi4zOGExOTIuNDIsMTkyLjQyLDAsMCwxLDQuMjgtNDQuNzFjLjUyLTIuMjkuMDctNC44MS4wNy04LjA1LTIuMDkuNTYtMy43MS42Ni01LDEuMzgtOS4wOSw1LjExLTE4LjM2LDkuOTQtMjcuMSwxNS42LTIxLjgxLDE0LjEzLTQ1LjQ0LDI0LjY0LTY4Ljg0LDM1LjY1LTIyLjU2LDEwLjYzLTQyLjI3LDI1LTU4LjE4LDQ0LjM4LTIuNjUsMy4yMi01LjI4LDYuNDctOC4yLDkuNDMtMTIuNTksMTIuNzktMjUuNDcsMjUuMjktMzcuODYsMzguMjdhMTM3LjU3LDEzNy41NywwLDAsMS0yNy40NCwyMS42MmMtOC44NSw1LjUtMTcuODIsMTAuODMtMjYuODIsMTYuMWE2OS40NSw2OS40NSwwLDAsMS05LDQuMzFjLTIuMzksMS01LjEyLDEuMjUtNi45My0xcy0uNy00Ljk0LDEuMTQtNi43YzQuNTEtNC4zLDktOC43OSwxNC0xMi4zOSw5Ljg1LTcsMjAuMjMtMTMuMywzMC4xMS0yMC4yOGExNDEuNjIsMTQxLjYyLDAsMCwwLDE2LjM5LTEzLjQ0cTE0LjkyLTE0LjMsMjkuMTYtMjkuMjdjNi45LTcuMjMsMTMuOTItMTQuNDksMTkuNzUtMjIuNTYsOS0xMi40MiwyMC40OC0yMiwzMi42Ni0zMC43MSwxMy41NC05LjY4LDI3LjQ0LTE5LjA5LDQyLjA2LTI3LDIwLjY5LTExLjE4LDM5LjI0LTI1LjI2LDU3Ljg3LTM5LjMxYTM1Mi40MSwzNTIuNDEsMCwwLDAsNDEuMzYtMzYuMjFjMTIuMjEtMTIuNTgsMjQuNDktMjUuMSwzNy4yMS0zNy4xNCwxNS45My0xNS4wNywyOC40Ny0zMi42MywzOS42MS01MS4zMSwxNS42LTI2LjE0LDMxLjQxLTUyLjE3LDQ2LjUxLTc4LjU5LDcuODUtMTMuNzUsMTQuNC0yOC4yNSwyMS40My00Mi40Ni44Ny0xLjc3LDEtMy44OSwxLjQzLTUuNDUtMi4xMi0yLjU3LTQuMTMtMi02LjA3LTEuMTUtOS45LDQuNDMtMTkuOTMsOC42LTI5LjYyLDEzLjQ0LTE2LjkxLDguNDYtMzUsMTMuNi01Mi45MiwxOS0yMi43NSw2LjkxLTQ1LjY5LDEzLjE4LTY4LjQ2LDIwLTIxLjYzLDYuNDctNDIuNzgsMTQuMjgtNjIuNTIsMjUuMzYtMTguNDcsMTAuMzUtMzguNTMsMTUuNjEtNTksMjAuMTItMTcuOTIsNC0zNS44MSw4LjE1LTUzLjQ2LDEzLjE0YTE1My40OCwxNTMuNDgsMCwwLDAtMzguNjUsMTcuNTdjLTIzLjQ4LDE0LjQ5LTQ2LjA5LDMwLjM3LTY0LjQ5LDUxLjE0LTEyLjY4LDE0LjMyLTI0LDI5Ljg5LTM1LjkzLDQ0Ljg2LTIuNTQsMy4xNy0zLjgyLDcuNTEtOCw5LjA2YTMuNDksMy40OSwwLDAsMS0zLjIyLTMuNzQsMy41OCwzLjU4LDAsMCwxLC4yMi0xLDQzLjQzLDQzLjQzLDAsMCwxLDMuNjgtOS4yNWMxMi0yMS41OCwyNS42NS00MS45Myw0Mi42OC01OS45NCwxOS4zMS0yMC40Miw0MC41OC0zOC4yOCw2NS01Mi4zNiwxNS4zLTguOCwzMS43OS0xNC42Niw0Ny45My0yMS40MywyMy40Ni05Ljg0LDQ3LTE5LjQ1LDcwLjI3LTI5Ljc1LDcuODItMy40NiwxNS41NS03LjY3LDIxLjc3LTEzLjQ4LS44Mi0yLjkzLTIuNzctMi40OC00LjI3LTIuNDctOS4xNi4wNy0xOC4zNi0uNTgtMjcuNDEsMS43YTMwLjY1LDMwLjY1LDAsMCwxLTcuNDYuNjVjLTIxLjQsMC00Mi4yOCwzLjQ1LTYyLjkzLDguOTRhODAxLjIyLDgwMS4yMiwwLDAsMS03OS40MiwxNy4yNWMtMTYuODQsMi43MS0zMy44Myw0LjU1LTUwLjc3LDYuNjMtNy44NSwxLTE1LjcyLDEuOC0yMy42MSwyLjIzLTE0LjY1Ljc5LTI5LjA2LTItNDMuNTItMy43My0yMi4zMi0yLjU5LTQ0LjM4LTcuNDYtNjcuMDktNi4yOC0yMywxLjItNDUuNjMsNC02Ny42MywxMS4xMS0xMS41MSwzLjctMjMuMDgsNy4yMy0zNC42OCwxMC42Ny0xLjY4LjQ5LTMuNjYsMC03LjE4LS4wNyw4LjY3LTguOCwxNy4xOC0xNC4yOCwyNy4zMS0xNy4yOWE1MzkuMTEsNTM5LjExLDAsMCwxLDY5LjQtMTYuMDgsNzUuMjMsNzUuMjMsMCwwLDEsMTEuMjItLjdjMTMuMzUtLjA2LDI2LjcxLDAsNDAuMDYsMGEzNy41MywzNy41MywwLDAsMSw3LjQ5LjMxYzEzLjYyLDIuOSwyNy40MiwyLjE0LDQxLjE2LDIsNi42NC0uMDYsMTMuMjYtMS4wNywxOS44OS0xLjYzYTc1LjA2LDc1LjA2LDAsMCwxLDguNzMtLjY0YzEzLjUzLjQ5LDI2LjUtMi43LDM5LjQ2LTUuODhxMTAuMzItMi41NCwyMC40Mi02YzI2LjYtOC45Myw1NC4wOS0xMy44MSw4MS42Mi0xOC42OSw3Ljc1LTEuMzcsMTUuMjUtNC4xMiwyMy01Ljc3LDEwLjU4LTIuMjYsMjEuMTktNC41OCwzMS45LTYsMTItMS41NCwyNC0yLDM2LjA4LTMsMTguMjUtMS41LDM2LjQ4LTMuMjEsNTQuNzUtNC40Nyw4LjMxLS41NywxNi42OS0uNTUsMjUtLjM0YTg2LjI2LDg2LjI2LDAsMCwwLDMwLjctNWMxOS4zMS02LjY5LDM4LjgtMTIuOTMsNTcuODUtMjAuMzEsMTcuNTEtNi43OSwzNC42OS0xNC45NCw0OS44NC0yNiwxMy43OC0xMCwyNi0yMi4yOCwzNC41LTM3LjUsNS4xMS05LjA5LDkuOS0xOC4zNiwxNS4zMy0yNy4yNUEyNiwyNiwwLDAsMCwyNDM2LjU3LDMxODguMjlaIiBjbGFzcz0iY2xzLTE3Ii8+PHBhdGggdHJhbnNmb3JtPSJ0cmFuc2xhdGUoMCAwLjAyKSIgZD0iTTE1ODcuODQsMTk5My41M2M0LjEzLjM3LDguMjcuNzcsMTIuNDEsMS4xMSw1LjM4LjQzLDEwLjg0LDEuNTksMTYuMTQsMS4wOSwyOS0yLjczLDU4LTYuNDgsODUuODQtMTUuNzIsMjUuMzQtOC40LDUwLjQ3LTE3LjQyLDc2LTI1LjI1LDIzLjQ4LTcuMjEsNDcuMTktMTMuODQsNzEuMDktMTkuNDksMTYuMTYtMy44MiwzMi43Mi01LjgyLDQ5LjM2LTcuNDEsMTQuMTYtMS4zNSwyOC4yNS0xLjQ4LDQyLjM5LTIuMDYsMTQuNjgtLjYsMjkuMTIsMS42OSw0My41NywzLjIyYTI4NC4zMSwyODQuMzEsMCwwLDEsNjUuNTksMTUuMzVjMjcuNjIsOS44Niw1NCwyMi4yLDc3LjEsNDAuNjJhMTEuMTQsMTEuMTQsMCwwLDEsMSwuNzJjMTUuMjEsMTQuMTUsMzEuODEsMjYuNyw0NS4zMSw0Mi44NiwxMC40MywxMi40OCwyMS40MiwyNC40NywyOS44OCwzOC40MSw0Ljc0LDcuODEsOC43MiwxNi4wOCwxMi45MywyNC4yMS43MiwxLjQuODUsMy4xMSwxLjUxLDUuNjItMi4zOS4zMi00LjIyLjg2LTYsLjczYTE1LjU2LDE1LjU2LDAsMCwxLTQuNzUtMS40OWMtMzEuMjUtMTMuNTEtNjQuMzYtMjAuMzItOTcuNi0yNi4yM2E0MjcuODQsNDI3Ljg0LDAsMCwwLTUzLjI4LTYuMzNjLTE4LjI3LS45Mi0zNi40OC0yLjg4LTU0LjcyLTQuMzEtMy43NC0uMy03LjUtLjM1LTExLjI1LS4zNi0zOC4zNy0uMTEtNzYuNzQtLjEyLTExNS4xLS4zMy02LjIyLDAtMTIuNDMtMS0xOC42NS0xLjM5LTUtLjM1LTEwLS42Ni0xNS0uODEtMTYuNjQtLjUxLTMzLjM1LjkyLTQ5Ljg5LTIuMjYtMy42NC0uNy03LjUtLjEtMTEuMjQtLjM1LTguNzEtLjU3LTE3LjQxLTEuMjktMjYuMTItMi0yLjA4LS4xNS00LjE1LS4zNi02LjI0LS40NC0yMS4yNS0uODEtNDIuMzgtMi42NS02My4xMy03LjU1LTI5LjQ1LTctNTcuMjYtMTcuODktODIuMjQtMzUuMjgtNS44My00LjA2LTExLjE4LTguNzItMTQuOTEtMTQuOTNaIiBjbGFzcz0iY2xzLTE4Ii8+PHBhdGggdHJhbnNmb3JtPSJ0cmFuc2xhdGUoMCAwLjAyKSIgZD0iTTI5MDYuMDcsMjI2MC43MmMxMC42NSwxLDIxLDIsMzEuMzYsMi44MnMyMC43NCwxLjE4LDMxLjEzLDIuNGMxOC4yNywyLjE1LDM2LjIyLDUuNzEsNTQuMTksOS4zMiwzMy4yNCw2LjY4LDY1LjI5LDE3LjQxLDk2LjY1LDMwYTM1MS45NCwzNTEuOTQsMCwwLDEsNDIuNjEsMjEuMDZjMTYuMjksOS4yNywzMS45NSwxOS42Nyw0Ny43MiwyOS44M2E0OC4wNSw0OC4wNSwwLDAsMSw5LjE1LDguMzVjLjgzLjkxLjksMy4zNy4yNSw0LjU0YTUuMjYsNS4yNiwwLDAsMS00LDIuMjIsMzQuNDcsMzQuNDcsMCwwLDEtOC41NS0xLjQ0LDEwNTUuMjcsMTA1NS4yNywwLDAsMC0xMDQuNzQtMjQuNTNjLTE0LjM0LTIuNTQtMjguODQtNC4xNS00My4zLTYtMTMuNjItMS43NC0yNy4yNS0zLjYyLTQwLjkzLTQuNzItMTctMS4zNy0zNC4wNy0yLjI2LTUxLjEzLTIuODctMTIuOTItLjQ2LTI1Ljg3LDAtMzguOC0uMmE3NDguNDcsNzQ4LjQ3LDAsMCwwLTkxLDQuNiw4MTUuNjQsODE1LjY0LDAsMCwwLTExNC4yNiwyMC43MWMtNDUuNzgsMTEuOC05MC4xMiwyNy43NC0xMzEuNTgsNTAuNzktMTMuODIsNy42OS0yNi44OCwxNi43Ni00MC4zMSwyNS4xN2E3OCw3OCwwLDAsMS04LjYzLDUsNC44NCw0Ljg0LDAsMCwxLTYuMzMtMi41Nyw1LDUsMCwwLDEtLjM1LTIuMzgsMjAuMjQsMjAuMjQsMCwwLDEsMS43Mi02LDEzNS4yOCwxMzUuMjgsMCwwLDEsMjIuNzctMzQuMjRjMjQuMTUtMjYuMzQsNTItNDguMTksODIuNDQtNjYuNjIsMTcuODMtMTAuOCwzNi44My0xOS41LDU2LjEyLTI3LjU2LDM0LjEtMTQuMjQsNjkuODEtMjIuNzEsMTA2LTI4Ljg1LDIwLjg4LTMuNTQsNDItNS45MSw2My4zOC02QzI4ODAuNTIsMjI2My42MiwyODkzLjM3LDIyNjEuNzUsMjkwNi4wNywyMjYwLjcyWiIgY2xhc3M9ImNscy0xOSIvPjxwYXRoIHRyYW5zZm9ybT0idHJhbnNsYXRlKDAgMC4wMikiIGQ9Ik0zMTM2Ljg0LDE1NDUuNzFjLS44MywxLjQyLTEuNDMsMy41OC0yLjg1LDQuNjhhNzMuMjMsNzMuMjMsMCwwLDEtMTEuNCw3LjUzYy0yMC44MSwxMC41OC00MS40NiwyMS41NC02Mi43LDMxLjItMTUuODksNy4yNC0zMi40MiwxMy4yMi00OSwxOC44NS0zMi4zNywxMS02NC41NSwyMi40OS05Ni4wOSwzNS42OC0xOC44Miw3Ljg3LTM3LjMyLDE2LjUzLTU1LjkzLDI0LjkxYTIyNi43NSwyMjYuNzUsMCwwLDAtNTIuNzUsMzMuMjVjLTE1LjI2LDEyLjgxLTMwLjQ2LDI2LjE1LTM5LjIsNDQuODMtMi4xLDQuNS0zLjM5LDkuMzgtNS40OCwxMy44OWE4LjQ5LDguNDksMCwwLDEtNC4yNyw0Yy0yLjYzLDEtNC44OS0uNzEtNi4yOS0yLjktNC4xNi02LjUxLTUuNDItMTQtNi0yMS40NC0yLjYtMzIuNjcsNS40OC02Mi43NiwyMi4yMi05MC43NWEzMTQuNDcsMzE0LjQ3LDAsMCwxLDI1LjQ3LTM3LDEwNS4xNywxMDUuMTcsMCwwLDEsNDUtMzIuNTksMjE5LjYyLDIxOS42MiwwLDAsMSw1My4zMS0xMi41NCw3NjMuODksNzYzLjg5LDAsMCwxLDk2LTQuNjVjOS4xNy4xLDE4LjM1LjE4LDI3LjUxLS4xMSw3LS4yNCwxNC4wOC0xLjE1LDIxLjEyLTEuNjIsNS0uMzQsMTAtLjYxLDE1LS42MywxOS4yNS0uMDYsMzguMjUtMi4xNCw1Ni43Ni03LjUzLDcuNTYtMi4yLDE0LjgzLTUuNDIsMjIuMjQtOC4xNkMzMTMxLjg0LDE1NDMuNzcsMzEzNC4xNCwxNTQyLjQ2LDMxMzYuODQsMTU0NS43MVoiIGNsYXNzPSJjbHMtMTkiLz48cGF0aCB0cmFuc2Zvcm09InRyYW5zbGF0ZSgwIDAuMDIpIiBkPSJNMjI0MS44NCwyNDQ3LjYzYy02LjA2LDAtMTItMS4xNy0xOC0yLTE1LjY2LTIuMTktMzEuMzgtNS4xMS00Ny4yMi0zLjQ0LTE5LDItMzguMDcsNC4zMS01Ni43Myw4Ljg0YTQ0Mi44NCw0NDIuODQsMCwwLDAtOTEuNDYsMzMuMjNjLTQzLjMsMjEuMjktODIuNiw0OC4zNi0xMTkuOTEsNzguNzEtMTEuMzcsOS4yNC0yMS42NiwxOS41MS0zMi4wOSwyOS42OS04LjM2LDguMTUtMTYuNDEsMTYuNjItMjQuODEsMjQuNzItMTkuODQsMTkuMTQtMzcuNTksNDAuMDktNTQuMzcsNjEuOTItMi40MiwzLjE1LTQsNy40LTgsOC44My0yLjU5LS45Mi0yLjQzLTIuNjctMS42NC00LjFxNi0xMSwxMi4yNC0yMS43OGMxNy42OS0zMC43NiwzNy44NC01OS45MSw1OS4wNi04OC4yOCwxMC0xMy4zMSwyMS40LTI1LjUsMzItMzguMzdhMzkyLjM0LDM5Mi4zNCwwLDAsMSwzNi45NC0zOWMyMy44NC0yMi4wOCw0OC4zNC00My40Nyw3NS42NS02MS4yNSwyNC4xNi0xNS43Miw0OS41NC0yOS4wOCw3Ny4xLTM4LjA5YTIwMC44MSwyMDAuODEsMCwwLDEsNTIuNjItMTBjMTcuNTItLjg2LDM0LjgyLDIuNDQsNTEuNCw4LjcxLDI0LjgxLDkuMzksNDIuNTEsMjcuMTgsNTcuMjUsNDguNDVDMjI0Mi4xNiwyNDQ0Ljk0LDIyNDEuODQsMjQ0NiwyMjQxLjg0LDI0NDcuNjNaIiBjbGFzcz0iY2xzLTE5Ii8+PHBhdGggdHJhbnNmb3JtPSJ0cmFuc2xhdGUoMCAwLjAyKSIgZD0iTTMyMjQuNzMsMjcxMS4xNGMtMS4yNC0uNzMtMi4yNy0xLTIuNS0xLjUyLTEwLjUzLTI2LjQ5LTI1LjQyLTUwLjYxLTQwLjYzLTc0LjU0LTExLjQtMTcuOTQtMjIuNzQtMzUuOTMtMzQuODEtNTMuNDJxLTI1LjUtMzctNTIuMjgtNzMuMjVhMjcwLjEyLDI3MC4xMiwwLDAsMC0zMi41My0zNi4yM2MtMy0yLjg0LTYtNS43OC04Ljg4LTguODEtNS43Ny02LjEzLTUuNDMtOSwyLTEzLjY1YTI2MS4wNywyNjEuMDcsMCwwLDEsNTIuNjgtMjUuNzdjOS44NS0zLjQyLDIwLTYuMTQsMjkuNjEtMTAsOS4zNC0zLjc2LDE2LjU4LTEsMjIuMiw2LjFhMjA0LjQ4LDIwNC40OCwwLDAsMSwxNy43OCwyNS42MSwyNzMsMjczLDAsMCwxLDI2LjMsNjYuMDVjNS40MywyMSwxMC42MSw0MiwxNS4wOSw2My4xOCwyLjQsMTEuMzYsMi42NSwyMy4xNSw0LjYzLDM0LjYxLDIuODYsMTYuNTUsMi4xOCwzMy4yMiwyLjYxLDQ5Ljg2YTUzLjg1LDUzLjg1LDAsMCwwLC42OSw2LjIxYy4yNCwxLjY1Ljc1LDMuMjYuOSw0LjkxYTQyLjUxLDQyLjUxLDAsMCwxLC4zMyw3LjQ4QzMyMjYuOTQsMjY4OC45MywzMjI1Ljg0LDI2OTkuODksMzIyNC43MywyNzExLjE0WiIgY2xhc3M9ImNscy0xOSIvPjxwYXRoIHRyYW5zZm9ybT0idHJhbnNsYXRlKDAgMC4wMikiIGQ9Ik0yNDk5Ljg0LDE3OTcuMjljLjM5LDQuNjEtMi44NCw1LjU4LTUsNy4yOGE1MjQuNyw1MjQuNywwLDAsMC0xMDcuNTUsMTE0LjMsODIwLDgyMCwwLDAsMC01NC42OCw5Mi41NWMtMTEuMiwyMS45MS0yMi40Miw0My44MS0zNCw2NS41YTI4Mi44MywyODIuODMsMCwwLDEtMjcuODcsNDNjLTEsMS4zLTIuMDgsMi42MS0zLjIyLDMuODItMy40NiwzLjYyLTYuODIsNS04LjUyLDMuNC0yLjY3LTIuNDgtMS01LjQxLS43LTguMjEsNi4yMS01Mi4xNiwyMS0xMDEuODksNDEuNTQtMTUwLjEzQTM2OS4zMiwzNjkuMzIsMCwwLDEsMjM0NywxODg4YzI2LjYzLTM0LjY1LDU5LjI4LTYxLjk0LDk5LjUzLTc5LjU5YTE3MywxNzMsMCwwLDEsNDEuOTEtMTIuMjlDMjQ5MiwxNzk1LjUxLDI0OTUuODQsMTc5NC45MSwyNDk5Ljg0LDE3OTcuMjlaIiBjbGFzcz0iY2xzLTE5Ii8+PHBhdGggdHJhbnNmb3JtPSJ0cmFuc2xhdGUoMCAwLjAyKSIgZD0iTTI1MjQsMTQxM2MxLjY0LTMuNDUsNC44NS0yLjgyLDcuNjQtMywxOC41Mi0xLDM2LjU0LDEuODUsNTQuMzUsNi43NCwzNC4xNSw5LjM5LDY1LjQxLDI1LDk0LjgzLDQ0LjMzYTI4NiwyODYsMCwwLDEsNDYuNTcsMzcuNjljNS41OCw1LjY0LDExLjA4LDExLjM2LDE2Ljg2LDE2Ljc4LDEyLjI2LDExLjUyLDIxLjkyLDI1LjA4LDMxLjExLDM5LDcuMjEsMTAuOTQsMTAuNzcsMjMuNDUsMTUuMzksMzUuNWE2LjM1LDYuMzUsMCwwLDEtMS41LDdjLTEwLjQyLDEwLjkzLTE4LjY3LDIzLjQ4LTI2Ljk1LDM2YTE2Ljg3LDE2Ljg3LDAsMCwxLTIuNDUsMi44Miw0Ljc1LDQuNzUsMCwwLDEtNi43MS0uMjVoMGEzMiwzMiwwLDAsMS0zLjM2LTUuMjRjLTEwLjE3LTIwLjE1LTIyLjQtMzktMzUtNTcuNzFhMzQ4LjgsMzQ4LjgsMCwwLDAtMzIuNDQtNDEuMjRjLTguNzUtOS40OS0xNi45Mi0xOS42Mi0yNi4zOC0yOC4zNC0yMC41MS0xOC45Mi00MS4xOS0zNy43Mi02NS42Mi01MS43NC0xMC4xMi01LjgxLTE5Ljc4LTEyLjQ0LTMwLTE4LTkuMTUtNC45NC0xOC44OC04LjgxLTI4LjI1LTEzLjM3QzI1MjguNzgsMTQxOC40LDI1MjQuNywxNDE3LjUxLDI1MjQsMTQxM1oiIGNsYXNzPSJjbHMtMTkiLz48cGF0aCB0cmFuc2Zvcm09InRyYW5zbGF0ZSgwIDAuMDIpIiBkPSJNMjU4OC41NywyMjY3Yy0yLjMxLTUuMzMtMS42My0xMC4zMy0uODEtMTUuMjIsMS45My0xMS40OSw0LjI0LTIyLjksNC43My0zNC42MS4xOC00LjUyLDEuNzQtOSwyLjY4LTEzLjQ2LDEuNTItNy4yOCw1LjQ4LTEyLjczLDExLjU1LTE3LjEzLDM3LjU3LTI3LjIzLDc2Ljc5LTUxLjUzLDEyMC4zNS02OC4xOHEyNC40OS05LjM3LDQ5LTE4LjY1YTIwLjg1LDIwLjg1LDAsMCwxLDQuNTgtLjY3YzEuNCwyLjY4LS41NiwzLjI2LTEuNzgsNC0xMi4xNyw3LjI0LTI0LjEzLDE0Ljg5LTM2LjY0LDIxLjQ4LTE0Ljg1LDcuODItMjguMTgsMTcuNzUtNDEuNDEsMjcuODYtMjAuMjMsMTUuNDMtMzkuMzUsMzIuMjEtNTYuNDYsNTEtMTYuOCwxOC40NS0zMy4zNCwzNy4yLTQ3LjMyLDU4QzI1OTUuMjksMjI2NCwyNTkzLjc2LDIyNjcuMjksMjU4OC41NywyMjY3WiIgY2xhc3M9ImNscy0xOSIvPjxwYXRoIHRyYW5zZm9ybT0idHJhbnNsYXRlKDAgMC4wMikiIGQ9Ik0yNTAyLjI1LDIzODAuMjljLTEuNzctMS4zNy0zLjIyLTIuMTEtNC4xNC0zLjI4LTUuNTMtNy05LjU5LTE1LjA2LTEwLjQ4LTIzLjc5LTEuNDgtMTQuNDgtMi40LTI5LjEzLDEuNjItNDMuNWExMDIuNDksMTAyLjQ5LDAsMCwxLDI1Ljg2LTQ1LDQyLjM5LDQyLjM5LDAsMCwxLDUuNS00LjEyYzMuODMsMS40MywzLjQ3LDQsMyw2LjQ4LTIuNDcsMTMuNTMtNS4xNywyNy03LjQ3LDQwLjU3LTMuMjgsMTkuMy02LjI4LDM4LjY1LTkuNCw1OEMyNTA2LDIzNzAuNCwyNTA1LjM3LDIzNzUuMjksMjUwMi4yNSwyMzgwLjI5WiIgY2xhc3M9ImNscy0xOSIvPjxwYXRoIHRyYW5zZm9ybT0idHJhbnNsYXRlKDAgMC4wMikiIGQ9Ik0yNTUzLjg0LDI1NjBjMS0yMi41Niw1LjczLTU5LjY0LDguNjQtNjguNDQsMS4wNi4xMywyLjQ4LS4xMywzLjI4LjQ2LDkuNjksNy4xMywxOS4zMywxNC4zNCwyNi45MywyMy42NkMyNTg4Ljg0LDI1MjIsMjU2Mi43MywyNTUxLjg5LDI1NTMuODQsMjU2MFoiIGNsYXNzPSJjbHMtMjAiLz48cGF0aCB0cmFuc2Zvcm09InRyYW5zbGF0ZSgwIDAuMDIpIiBkPSJNMTc4MC42NywyNjk5Ljc5Yy44MS0xLjY5LDEuNjEtMy4zNywyLjQxLTUuMDZoMi40MmwtNC44OSw1WiIgY2xhc3M9ImNscy0xOSIvPjxwYXRoIHRyYW5zZm9ybT0idHJhbnNsYXRlKDAgMC4wMikiIGQ9Ik0xNzgwLjYxLDI2OTkuNzRjLS4xOC42Ni0uMzcsMS4zMS0uNTYsMiwuMjEtLjY0LjQyLTEuMjguNjItMS45MloiIGNsYXNzPSJjbHMtMTkiLz48cGF0aCB0cmFuc2Zvcm09InRyYW5zbGF0ZSgwIDAuMDIpIiBkPSJNMTc4NS41LDI2OTQuNzVoMFoiIGNsYXNzPSJjbHMtMTkiLz48cG9seWdvbiBwb2ludHM9IjI4MzIuNTIgMzYzOC45MyAyODMyLjA5IDM2MzguNTIgMjgzMi40OSAzNjM4Ljk3IDI4MzIuNTIgMzYzOC45MyIgY2xhc3M9ImNscy0xNCIvPjxwb2x5Z29uIHBvaW50cz0iMjUxNC4zNiAzNjY2LjU2IDI1MTMuODggMzY2NS45NiAyNTE0LjUgMzY2Ni40MiAyNTE0LjM2IDM2NjYuNTYiIGNsYXNzPSJjbHMtMTQiLz48ZyBjbGFzcz0iY2xzLTIxIj48cGF0aCB0cmFuc2Zvcm09InRyYW5zbGF0ZSgwIDAuMDIpIiBkPSJNMjAzOC4wOSwzMjY5LjU2SDE5NzV2LTIxLjI1YTY1Ljc0LDY1Ljc0LDAsMCwwLTIyLjQxLDQuMTUsNjkuNDcsNjkuNDcsMCwwLDAtMjEuNDIsMTIuNjIsNzkuNjksNzkuNjksMCwwLDAtMTcuNDMsMjEuNThxLTcuNDcsMTMuMTMtMTAuNzksMzEuMDV2MTY2aDU4LjQ0djU3LjExSDE3OTAuNzJ2LTU3LjExaDQ3LjQ4bC4zNC0yMjkuNzZoLTQ3Ljgydi01Ny4xMWgxMDkuOTF2NDcuNDhhMTM3LjI4LDEzNy4yOCwwLDAsMSwxMy40NC0xOS43Niw5My45Miw5My45MiwwLDAsMSwxNi42LTE1Ljk0LDcyLjkyLDcyLjkyLDAsMCwxLDQ0LjMzLTE0LjQ0aDMyLjU0cTE1LjI3LDAsMzAuNTUuNjZaIiBjbGFzcz0iY2xzLTIyIi8+PHBhdGggdHJhbnNmb3JtPSJ0cmFuc2xhdGUoMCAwLjAyKSIgZD0iTTIxNjcuOTEsMzM3Ni44MWExNTIuNzksMTUyLjc5LDAsMCwwLDIuMTYsMjYuNzMsMTM4LjkxLDEzOC45MSwwLDAsMCw2LjE0LDIzLjA3cTEyLjI4LDMzLjIxLDM5LjM1LDUwdDYxLjI2LDE2Ljc3YTE4NC4zMywxODQuMzMsMCwwLDAsNTIuMjktNy40N3EyNS40MS03LjQ3LDUzLjI5LTIzLjQxbDI0LjkxLDQyLjE3cS0zMy44NywyMy4yNC02OC4wNywzNC41M2EyMjUuNDIsMjI1LjQyLDAsMCwxLTcxLjA2LDExLjI5cS0zNC44NiwwLTY0LjU4LTExLjYyYTEzNy43OSwxMzcuNzksMCwwLDEtNTEuMTMtMzQuNTNxLTIxLjQyLTIyLjkyLTMzLjUzLTU3LjExdC0xMi4xMi03OS42OWEyMzAuNDUsMjMwLjQ1LDAsMCwxLDEwLjI5LTY5LjU2cTEwLjI5LTMyLjcsMzAuNzEtNTcuMTFhMTQ2LjgzLDE0Ni44MywwLDAsMSw1MC42NC0zOC42OHEzMC4yMS0xNC4yOCw3MC4zOS0xNC4yOCwzOC44NSwwLDY0LjkxLDExLjc5dDQyLjUsMzEuMjFhMTM1LjIsMTM1LjIsMCwwLDEsMjQuOSw0NC4zM0EyNjAuMjEsMjYwLjIxLDAsMCwxLDI0MTMsMzMyNnExLjY1LDEyLjYxLDIuMTYsMjUuNTZ0LjUsMjUuMjRabTk2LjYyLTEzNy4xM3EtMjEuNTksMC0zNy42OCw2LjE0YTc1Ljg2LDc1Ljg2LDAsMCwwLTI3LjQsMTcuNiw4NS43LDg1LjcsMCwwLDAtMTguMDksMjgsMTY4LjY1LDE2OC42NSwwLDAsMC0xMC4xMywzNy4xOWgxNzguM2ExNjUuNTIsMTY1LjUyLDAsMCwwLTYuMTQtMzUuNTMsNzguMTksNzguMTksMCwwLDAtMTQuNzgtMjguMjIsNjYuNTMsNjYuNTMsMCwwLDAtMjUuNTYtMTguNTlRMjI4Ny40MywzMjM5LjY4LDIyNjQuNTMsMzIzOS42OFoiIGNsYXNzPSJjbHMtMjIiLz48cGF0aCB0cmFuc2Zvcm09InRyYW5zbGF0ZSgwIDAuMDIpIiBkPSJNMjcyNi4wNSwzNDgzLjcyaDQ4LjQ4di0xNTdxMC0zOS41MS0yMC4wOS01OS45M3QtNTcuNi0yMC40MnEtMjEuNTksMC00My41LDEwLjI5YTIxOCwyMTgsMCwwLDAtNDEuNSwyNS41N3YyMDEuNTRoNDguNDd2NTcuMTFoLTE2MC43di01Ny4xMWg0Ny44MVYzMjU0aC00Ny44MXYtNTcuMTFoMTA5LjU3djQwLjVoLjY2YTI2Mi4xOSwyNjIuMTksMCwwLDEsMjMuNDEtMTguMjYsMTc0Ljg5LDE3NC44OSwwLDAsMSwyNi4wNy0xNC45NCwxNTcuMzIsMTU3LjMyLDAsMCwxLDI4LjM5LTEwLDEyOS4wNywxMjkuMDcsMCwwLDEsMzEtMy42NXEyNy41NSwwLDQ5LjgsNy42M2E5Ny40OCw5Ny40OCwwLDAsMSwzNy44NiwyMy4yNXExNS42LDE1LjYsMjQuMDcsNDBUMjgzOSwzMzE5djE2NC42OWg0Ny44MXY1Ny4xMUgyNzI2LjA1WiIgY2xhc3M9ImNscy0yMiIvPjxwYXRoIHRyYW5zZm9ybT0idHJhbnNsYXRlKDAgMC4wMikiIGQ9Ik0yOTI2LjYsMzE5Ni44NWgxMTguODdWMzI1NGgtMzIuMjFsODUsMjM3LjA3LDgzLTIzNy4wN2gtMjAuOTJ2LTU3LjExaDEwOC45MVYzMjU0aC0yOS41NWwtMTEyLjU2LDI5Mi4xOGgtNjEuMUwyOTUzLjgzLDMyNTRIMjkyNi42WiIgY2xhc3M9ImNscy0yMiIvPjwvZz48L2c+PHBvbHlnb24gcG9pbnRzPSI0NDczLjgzIDM3MTguNDMgMjUwNy4yMSA0ODU1LjYzIDUzOS4wNSAzNzIxLjA5IDUzNy41MiAxNDQ5LjM1IDI1MDQuMTQgMzEyLjE0IDQ0NzIuMyAxNDQ2LjY4IDQ0NzMuODMgMzcxOC40MyIgY2xhc3M9ImNscy0yMyIvPjxnIGNsYXNzPSJjbHMtMjEiPjxnIGNsYXNzPSJjbHMtMjEiPjxwYXRoIHRyYW5zZm9ybT0idHJhbnNsYXRlKDAgMC4wMikiIGQ9Ik0yNDg2LjE3LDQ3MTQuNTRsMTAuMTYtNS45MiwyOC41MSwyOC45M2M0LjU3LDQuNzksOC43Niw5LjQ4LDEzLDE0LjI5bC40OS0uMjhjLTEuODQtNi4yMi0zLjgtMTIuMzctNS41Mi0xOC42NmwtMTAuNzItMzkuMjgsOS42OC01LjY0LDI5LDI4LjY1YzQuNjksNC43Miw5LjEyLDkuMjcsMTMuNjIsMTMuOTNsLjQ5LS4yOGMtMS44NC02LjIyLTMuODUtMTIuMTctNS44OC0xOC40NGwtMTEuMjEtMzksOS40NC01LjUsMTguNTEsNjgtMTIuMSw3LTI2Ljg2LTI2LjY0Yy00LjY5LTQuNzItOS05LjUzLTEzLjg1LTE0LjYybC0uNDkuMjljMi4xMyw2LjcsNC4xNiwxMyw1LjgyLDE5LjQ1bDEwLjA5LDM2LjI1LTExLjYxLDYuNzZaIiBjbGFzcz0iY2xzLTI0Ii8+PHBhdGggdHJhbnNmb3JtPSJ0cmFuc2xhdGUoMCAwLjAyKSIgZD0iTTI1NzMsNDY2NGwxMC4xNy01LjkyLDI4LjUsMjguOTNjNC41Nyw0Ljc5LDguNzYsOS40OCwxMywxNC4yOWwuNDktLjI4Yy0xLjg0LTYuMjItMy44LTEyLjM3LTUuNTItMTguNjZMMjYwOSw0NjQzbDkuNjgtNS42NCwyOSwyOC42NWM0LjY5LDQuNzIsOS4xMiw5LjI3LDEzLjYyLDEzLjk0bC40OC0uMjhjLTEuODQtNi4yMi0zLjg1LTEyLjE4LTUuODgtMTguNDVsLTExLjItMzksOS40My01LjUsMTguNTEsNjgtMTIuMSw3LjA1LTI2Ljg1LTI2LjY1Yy00LjY5LTQuNzItOS05LjUzLTEzLjg2LTE0LjYxbC0uNDguMjhjMi4xMiw2LjcsNC4xNSwxMyw1LjgyLDE5LjQ1bDEwLjA5LDM2LjI1LTExLjYyLDYuNzZaIiBjbGFzcz0iY2xzLTI0Ii8+PC9nPjxnIGNsYXNzPSJjbHMtMjEiPjxwYXRoIHRyYW5zZm9ybT0idHJhbnNsYXRlKDAgMC4wMikiIGQ9Ik0yNjU5LjksNDYxMy4zOGwxMC4xNy01LjkyLDI4LjUsMjguOTNjNC41Nyw0Ljc5LDguNzYsOS40OCwxMywxNC4yOWwuNDktLjI4Yy0xLjg0LTYuMjItMy44LTEyLjM3LTUuNTItMTguNjZsLTEwLjcyLTM5LjI4LDkuNjgtNS42MywyOSwyOC42NGM0LjcsNC43Miw5LjEzLDkuMjcsMTMuNjMsMTMuOTRsLjQ4LS4yOWMtMS44NC02LjIxLTMuODUtMTIuMTctNS44OC0xOC40NGwtMTEuMi0zOSw5LjQzLTUuNSwxOC41MSw2OC0xMi4xLDctMjYuODUtMjYuNjVjLTQuNjktNC43Mi04Ljk1LTkuNTMtMTMuODYtMTQuNjFsLS40OC4yOGMyLjEyLDYuNyw0LjE1LDEzLDUuODIsMTkuNDVsMTAuMDksMzYuMjUtMTEuNjIsNi43NloiIGNsYXNzPSJjbHMtMjQiLz48L2c+PGcgY2xhc3M9ImNscy0yMSI+PHBhdGggdHJhbnNmb3JtPSJ0cmFuc2xhdGUoMCAwLjAyKSIgZD0iTTI3NzcuNDksNDYxNS41NWMtMi42OC00LjU5LTEuMjUtOS42NCwyLjc1LTEyczktMSwxMS42NCwzLjU5YTguMzMsOC4zMywwLDEsMS0xNC4zOSw4LjM4WiIgY2xhc3M9ImNscy0yNCIvPjwvZz48ZyBjbGFzcz0iY2xzLTIxIj48cGF0aCB0cmFuc2Zvcm09InRyYW5zbGF0ZSgwIDAuMDIpIiBkPSJNMjc3OSw0NTQ0LjA3bDguMjMtNC43OSw3LjA1LDEwLjE1LjM2LS4yMWMtLjMtOS43MSwzLTE3Ljk1LDkuNjUtMjEuODJhMTYuNzUsMTYuNzUsMCwwLDEsNy0yLjQ1bDMuMTMsOS44M2ExOS4yOSwxOS4yOSwwLDAsMC02LjI1LDIuMzVjLTUsMi44OC04Ljc3LDEwLTcsMjIuMjFsMjIsMzcuNzUtOS45Miw1Ljc4WiIgY2xhc3M9ImNscy0yNCIvPjwvZz48ZyBjbGFzcz0iY2xzLTIxIj48cGF0aCB0cmFuc2Zvcm09InRyYW5zbGF0ZSgwIDAuMDIpIiBkPSJNMjg0NC4yOCw0NTc1Ljg1bDEuMDktOS41NGM3LjQ3LDEuMTUsMTQuMzcsMSwyMS4zOC0zLjA2LDcuNzUtNC41LDkuMjItMTAuODcsNi4yNi0xNS45NS0zLjUyLTYuMDUtMTIuMDktNC42My0xOS45MS0zLjMyLTEwLjEsMS44NC0yMS42MiwzLjItMjcuNC02LjcyLTUuNS05LjQzLTIuMjItMjEuMDYsMTAuNDgtMjguNDZhMzMuOTIsMzMuOTIsMCwwLDEsMjIuMTUtNGwtMS4wNiw5Yy01Ljc1LS43LTExLjI2LS40MS0xNi40NiwyLjYxLTcuMzgsNC4zLTguNDQsMTAuMjctNS44MywxNC43NCwzLjI0LDUuNTcsMTAuODUsMy44OSwxOSwyLjU2LDEwLjMtMS43OSwyMS43OC0zLjc3LDI4LjI2LDcuMzYsNS41Nyw5LjU1LDIuNTksMjItMTEuMzIsMzAuMDhBNDEsNDEsMCwwLDEsMjg0NC4yOCw0NTc1Ljg1WiIgY2xhc3M9ImNscy0yNCIvPjwvZz48ZyBjbGFzcz0iY2xzLTIxIj48cGF0aCB0cmFuc2Zvcm09InRyYW5zbGF0ZSgwIDAuMDIpIiBkPSJNMjg5NC4wOSw0NTMxLjQ2bC0xOS0zMi41NC04LjcxLDUuMDctNC4zNy03LjUsOC44NC02LTguMzctMTcuMTYsOC4zNS00Ljg2LDkuNTgsMTYuNDUsMTUuODUtOS4yMyw0LjcyLDguMTEtMTUuODUsOS4yMywxOSwzMi42N2M0LjIzLDcuMjYsOC45MiwxMCwxNS43LDYuMDlhMjUuMTMsMjUuMTMsMCwwLDAsNS43NC01LjQ1bDYuMyw2LjM3YTQxLjg5LDQxLjg5LDAsMCwxLTkuNjIsOC41MkMyOTA5Ljc0LDQ1NDguNTksMjkwMC44NSw0NTQzLjA4LDI4OTQuMDksNDUzMS40NloiIGNsYXNzPSJjbHMtMjQiLz48cGF0aCB0cmFuc2Zvcm09InRyYW5zbGF0ZSgwIDAuMDIpIiBkPSJNMjkzMC40Nyw0NTA1Ljc0bC0yMS43LTM3LjI2LDEwLTUuODUsMjAuOTMsMzUuOTRjNi40MSwxMSwxMi40MiwxMy44MiwyMC4xNiw5LjMxLDYtMy41Miw4LjUzLTksMTAuMDgtMTkuMTVMMjk0NS42Nyw0NDQ3bDkuOTItNS43NywzNC4yNCw1OC44LTguMjMsNC43OS02LjItOC43LS4zNi4yMWMtMS43MSw5LjU4LTUuMDUsMTcuMTktMTMuMTYsMjEuOTFDMjk0OS40Miw0NTI1LjQ5LDI5MzkuMiw0NTIwLjc1LDI5MzAuNDcsNDUwNS43NFoiIGNsYXNzPSJjbHMtMjQiLz48cGF0aCB0cmFuc2Zvcm09InRyYW5zbGF0ZSgwIDAuMDIpIiBkPSJNMjk4OC4zOSw0NDYxLjY1Yy0xMS4xMy0xOS4xMS01Ljk0LTM4LDcuNDktNDUuODMsNi43OC0zLjk1LDEyLjczLTQsMjAuNC0yLjgxbC02LjMzLTkuNzYtMTMuMTctMjIuNjIsMTAtNS44NSw1MC4xNiw4Ni4xNC04LjIzLDQuNzktNC44Ni02LjQtLjM3LjIxYy0yLDcuMTUtNiwxNC42OS0xMi45MiwxOC43QzMwMTUuODQsNDQ4Ni44MiwyOTk5LjgsNDQ4MS4yNSwyOTg4LjM5LDQ0NjEuNjVabTQ5LjgxLTkuODhMMzAyMC4zMSw0NDIxYy03LjU3LTEuNTktMTMtLjY4LTE3Ljg3LDIuMTQtOS40NCw1LjQ5LTExLjY2LDE4LjkzLTMuODQsMzIuMzYsOC4xNywxNCwxOSwxOS4wNSwyOS4zMiwxMy4wN0MzMDMzLjM2LDQ0NjUuNDQsMzAzNi41Myw0NDYwLDMwMzguMiw0NDUxLjc3WiIgY2xhc3M9ImNscy0yNCIvPjxwYXRoIHRyYW5zZm9ybT0idHJhbnNsYXRlKDAgMC4wMikiIGQ9Ik0zMDMwLDQzNzMuMTJjLTIuMjYtMy44OC0uNzEtOC4xOCwzLjE2LTEwLjQzczguMzgtMS40OCwxMC42MywyLjM5LjcxLDguMTgtMy4xNiwxMC40M1MzMDMyLjE3LDQzNzYuODcsMzAzMCw0MzczLjEyWm0xMi41OSwxNy40NSw5LjkyLTUuNzgsMzQuMjQsNTguOC05LjkyLDUuNzhaIiBjbGFzcz0iY2xzLTI0Ii8+PC9nPjxnIGNsYXNzPSJjbHMtMjEiPjxwYXRoIHRyYW5zZm9ybT0idHJhbnNsYXRlKDAgMC4wMikiIGQ9Ik0zMDg1LjE3LDQ0MDUuM2MtMTEuNDgtMTkuNzItNS4yMS0zOC40NCw5LjE5LTQ2LjgyczMzLjc3LTQuNiw0NS4yNSwxNS4xMmMxMS4zNSwxOS40OCw1LjA3LDM4LjItOS4zMyw0Ni41OFMzMDk2LjUxLDQ0MjQuNzgsMzA4NS4xNyw0NDA1LjNabTQ0LjE2LTI1LjcxYy03Ljg5LTEzLjU1LTIwLTE4LjgtMzAuMTgtMTIuODhzLTExLjU5LDE5LjA1LTMuNywzMi42LDIwLDE4LjQ5LDMwLjA1LDEyLjY0UzMxMzcuMTUsNDM5MywzMTI5LjMzLDQzNzkuNTlaIiBjbGFzcz0iY2xzLTI0Ii8+PC9nPjxnIGNsYXNzPSJjbHMtMjEiPjxwYXRoIHRyYW5zZm9ybT0idHJhbnNsYXRlKDAgMC4wMikiIGQ9Ik0zMTY1LjM2LDQzODkuNzFjLTIuNjgtNC41OS0xLjI0LTkuNjQsMi43NS0xMnM5LTEsMTEuNjUsMy41OGE4LjM0LDguMzQsMCwxLDEtMTQuNCw4LjM4WiIgY2xhc3M9ImNscy0yNCIvPjwvZz48ZyBjbGFzcz0iY2xzLTIxIj48cGF0aCB0cmFuc2Zvcm09InRyYW5zbGF0ZSgwIDAuMDIpIiBkPSJNMzE3OC4zMyw0MzUxLjA2Yy0xMS40OC0xOS43Mi00Ljg1LTM4LjY1LDEwLjI4LTQ3LjQ2LDcuNzQtNC41MSwxNC44OS00LjQ2LDIxLjE5LTMuMWwtMS4yOCw5LjQ5Yy01LjE0LTEuMDUtMTAtMS4xMi0xNC43NiwxLjYzLTEwLjY1LDYuMi0xMywxOS45LTUuMTUsMzMuNDVzMjAuNDksMTguMjEsMzEuMjUsMTEuOTRjNS40NS0zLjE3LDguNjItOC41OCwxMC4zNC0xNGw4LjIzLDQuMTJhMzMuMTksMzMuMTksMCwwLDEtMTQuNjIsMTguNTZDMzIwOC4yLDQzNzQuODEsMzE4OS42Nyw0MzcwLjU0LDMxNzguMzMsNDM1MS4wNloiIGNsYXNzPSJjbHMtMjQiLz48L2c+PGcgY2xhc3M9ImNscy0yMSI+PHBhdGggdHJhbnNmb3JtPSJ0cmFuc2xhdGUoMCAwLjAyKSIgZD0iTTMyMzEsNDMyMC40MmMtMTEuNDgtMTkuNzItNS4yMS0zOC40NCw5LjE5LTQ2LjgzczMzLjc3LTQuNTksNDUuMjUsMTUuMTNjMTEuMzQsMTkuNDgsNS4wNywzOC4xOS05LjMzLDQ2LjU4UzMyNDIuMyw0MzM5Ljg5LDMyMzEsNDMyMC40MlptNDQuMTYtMjUuNzJjLTcuODktMTMuNTUtMjAtMTguOC0zMC4xOC0xMi44OHMtMTEuNTksMTkuMDYtMy43LDMyLjYxLDIwLDE4LjQ5LDMwLDEyLjY0UzMyODIuOTQsNDMwOC4xMywzMjc1LjEyLDQyOTQuN1oiIGNsYXNzPSJjbHMtMjQiLz48cGF0aCB0cmFuc2Zvcm09InRyYW5zbGF0ZSgwIDAuMDIpIiBkPSJNMzI4My43LDQyNTAuMThsOC4yMy00Ljc5LDUuNzcsOCwuMzctLjIxYzEuODQtOC41Miw1LjQ3LTE2LjQ3LDEyLjQ5LTIwLjU1LDktNS4yMiwxNi4yNi0zLjgsMjIuNzYsMS44MSwyLjMtMTAuMjUsNS42Ny0xOC4zNywxMi44MS0yMi41MiwxMi4xLTcuMDUsMjIuNTUtMi40NCwzMS4yOSwxMi41NmwyMS43LDM3LjI2LTkuOTIsNS43OC0yMC45My0zNS45NGMtNi40MS0xMS0xMi42Ni0xMy42OC0yMC05LjM4LTQuNiwyLjY3LTcuNTYsOC40NS05LjQ4LDE3LjY2bDI0LjgsNDIuNTktOS45Myw1Ljc4LTIwLjkyLTM1Ljk0Yy02LjQxLTExLTEyLjY2LTEzLjY4LTIwLjE2LTkuMzEtNC4zNiwyLjUzLTcuNTYsOC40NS05LjQ4LDE3LjY3bDI0LjgsNDIuNTgtOS45Myw1Ljc4WiIgY2xhc3M9ImNscy0yNCIvPjwvZz48L2c+PC9zdmc+;" vertex="1" parent="1">
          <mxGeometry x="369.99999999999994" y="284.36" width="84.5" height="84.5" as="geometry" />
        </mxCell>
        <mxCell id="PB-LY1mBNskSgPcxwGSi-73" value="" style="shape=image;verticalLabelPosition=bottom;labelBackgroundColor=default;verticalAlign=top;aspect=fixed;imageAspect=0;image=data:image/png,iVBORw0KGgoAAAANSUhEUgAAAvoAAAPUCAMAAADrEG0VAAAABGdBTUEAALGPC/xhBQAAAAFzUkdCAK7OHOkAAAAgY0hSTQAAeiYAAICEAAD6AAAAgOgAAHUwAADqYAAAOpgAABdwnLpRPAAAAvRQTFRF////6OjooqKiZWVlOjo6FxcXCgoKAAAABAQEERERKysrVFRUiYmJzs7O/v7+tLS0SUlJAwMDJSUliIiI8PDwxMTEMjIy+vr69/f3a2trAQEBLi4u0tLS5+fnCwsLqamp4ODgIiIiAgICmpqa6+vrJycnn5+f/f39RkZGra2ti4uLxcXF4uLiEhIS1NTUZGRkGhoa5eXlBgYGKSkp7OzsNTU18/Pz7e3tWlpat7e3c3NzkJCQd3d3nZ2dBQUFtbW1ZmZmCQkJw8PDDw8P0dHRGxsbKioqNjY29PT0S0tL+/v7W1tbdnZ2jIyMtra2ExMT1tbWHBwc4eHhNzc3TExMXFxcVVVVeHh4cHBwjY2NXV1doKCgR0dH8vLyMzMzxsbGFBQU19fX3t7eGRkZLCws7u7uwMDACAgIODg49fX1sbGxTU1NmZmZf39/e3t7bm5uj4+PoaGh+fn5RUVFuLi48fHx6urqJiYm2NjY3NzcGBgYISEh5ubmEBAQvr6+BwcHPz8/r6+vTk5OlpaWICAgMTExYmJipKSk7+/vfn5+m5ubLy8vWFhYzc3Nq6urHh4eUVFR/Pz8U1NT9vb2Pj4+ubm52dnZaGhoMDAwDQ0N09PTFhYWFRUV29vbOTk5y8vLDAwMLS0tenp6vb29QEBASEhIpqamT09PwcHBlZWVZ2dngICA5OTkkZGRlJSUqqqqPDw8urq6s7OzDg4OHx8fdXV12traIyMjampq0NDQycnJzMzMQUFB+Pj4UFBQgoKCYGBgkpKSu7u74+Pjx8fHNDQ0hYWFaWlpcXFxXl5erKyswsLCz8/P39/fJCQkQkJCh4eHnJyc3d3d6enpREREl5eXfHx8bGxsioqKp6enY2NjUlJSpaWlYWFhyMjIo6OjhoaGjo6OHR0dgYGBb29vfX19VlZWv7+/sLCwbW1teXl5PT09ysrKk5OTdHR0SkpKOzs71dXVcnJyX19fKCgosrKyQ0NDrq6umJiYnp6eg4OD////wAyOVQAAAAF0Uk5TAEDm2GYAAAABYktHRACIBR1IAAAACXBIWXMAAABIAAAASABGyWs+AAAZc0lEQVR42u3de7zm12Dv8ZWS2UmwZQgTOxGTcRmXScgkxKXmiCQICUJQIa2mYiRu7RAkFSkNVZSMaIgRl6KtipYgSVtFtdFqS0i0RRTN0SJOWz2n1/PXsYNjIntmnrVnP8/6rd/3/f5bHr/1/X14jWR5nlK2t8dP3Ozme66aI95ee+9zi1vear5kmL/1vqtbL86g3Oa2+7WuchZud/vWQzM8e992Teswp23/Oyy0XplBOuDA1m1O1x39Vz47cNCdWtc5TWsPbr0vw7Xuzq37nJ673LX1ugzZwt1aFzot6+/eeluGbfU9Wjc6JfdsvSxDt+perSOdig0HtR6WwTvk0NaZTsO9W89KB+6ztnWnK++wja1XpQeHH9G61BV329ab0of73q91qivNP8xiMvuO7E7DketaL0ov7r++da0r6gGt96QfD2xd64p6UOs56cg9W+e6kn6y9Zp0ZOHBrXtdQXdovSY92fQ/Wge7ch7Seky6ctRDWxcrfdo4+pjWyUqfNo5d27pZ6dPGw45sHa30aePhj2hdrfRp47hHts5W+rTxqDF8OZX0WYbjW3crfRo5oXW40qeNEXxLg/RZlk2Pbp2u9Gmj+29pkD7L9JjHto5X+rRx4uNa1yt92tin6ysN0mf5Ht/zlQbpsxtO6vhKg/TZHU/o90rDZOmf9EQSLOM7t5/UuuApp39Y68dkNn6qvv0nt37m5ZI+25k/uTr9hae0fuhlkj7bW/PU6vY3PaD1Qy+P9LmRU366uv1VP9P6oZdF+tzYMn5Z7Wk/2/qhl0P6/JhTf666/RM3tH7oZZA+P+7Avavbf/pprR+6nvS5iWdsrm7/mae3fuhq0uemztiruv1ndXelQfos4dnV6c+d3NuVBumzlOfUt//c1s9cSfos6Xn17f9862euI32WtP6J1ekv/ELrh64ifZa25fnV7W96QeuHriF9duDM+t+V7epKg/TZkRe+qLr9p7249UNPTvrs0FlnV7f/iy9p/dATkz47dsw51e33c6VB+uzES8+tbv+X9m/90BOSPjvzstXV7b+8kysN0g+z/rQj71fzr//l6vTnHtL6jJORfpBjbnnceeu+9zpXveKVv/KqSf+i59a3/6utDzoR6afY8urXbP9KN7/21yb76+bvXd/+g1ofdhLSD/G619/krZ4/2dfFbn1Ddfrr7tT6uBOQfoTTzl/qtR402U+jXPDG6vY3/nrrE++a9BNcePAOXuybtk7yl5/55ur2L5rwj1MNST/AW7bt8M0+caL2Dzuvuv23Dv5Kg/THb+2xO3m1N5voIy7es7r9g+/Y+ty7IP3RW/O2nb7bZ0/0IW9/R3X775z475+2If3R+42dv9ujLp7oU95Vf6Xh3cO+0iD9sXvxxl283PdM9jm/ua66/d+a6H9ItCL9sXvtLt/ub0/2Qe+tTn/ud1offmekP3Kn7vr+2b4TftRP1rf/vtbH3wnpj9wE3yqy7pLJPmr+lfXtv7/1+XdM+iO3zwSv93cn/Kyt50/wYT/2H6vfaz3ADkl/3PZYmOD1nj/pp13wger2N36w9QQ7Iv1xu3SS13vixB+33wHV7X9oqFcapD9uJ0zyehcm/+XnSz5c3f5bL2w9wtKkP24fmej9njr5B162baJP3N7lw7zSIP1xu2Ki9/v7FZ/4BwdVt3/AIK80SH/cJnu/f1jzkbfeVN3+R/+o9Q7Lnkb6vZpC+uVXJvm7Rjf2sQFeaZD+uE0j/XLL6vTn3tR6iOVOI/1eTSX98sD69j/eeollTiP9Xk0n/flP1Lf/x62nWN400u/VdNIva/atTn/161pvsaxppN+rKaVfTr95dfsbP9l6jOVMI/1eTSv9csTh1e1/6Fat11jGNNLv1dTSL3/y+ok+envbLms9R/000u/V9NIvhx5S3f7le7Teo3oa6fdqiumXP62/0nDlKa0HqZ1G+r2aZvrl0r2q2x/QlQbpj9tU0y8/UX+l4bXrW09SN430ezXd9MunqtOf+7PWk9RNI/1eTTn98uf17X+q9SZV00i/V9NOf/7T1ekvvLr1KDXTSL9X006/rHlqdfur/6L1KhXTSL9XU0+/nP62if4ttrf5L1vPMvk00u/V9NMvd7lrdftH/1XrXSaeRvq9mkH65dSfq27/Pp9pPYz0x24W6Ze37F3d/mfbX2mQ/rjNJP3yjM3V7V9Z9cPV7aaRfq9mk345o/5Kw1WtrzRIf9xmlH55dnX6za80SH/cZpV+eV99+1f0MI30ezWz9Mvz6tv/XAfTSL9Xs0t//ROr01/4/PCnkX6vZpd+2fL86vZX32Pw00i/VzNMv5x5++r2j3ro0KeRfq9mmX554Yuq2z+65kueW0wj/V7NNP1y9dnV7d9n7bCnkX6vZpt+Oeac6vZvc82gp5F+r2acfnnpudXt37fRlQbpj9us0y8v2/VPVP+4L2wZ8DTS79XM0y9/XZ3+3P2bXGmQ/rjNPv3yN/Xt/+1wp5F+rxqkX/62vv0vDnYa6feqRfpb31Cd/sKDhzqN9HvVIv2y/xur21/9soFOI/1eNUm/nPnm6vZnf6VB+uPWJv1y2HnV7R99zCCnkX6vGqVfLt6zuv1j1w5xGun3qlX65e3vqG7/YUcOcBrp96pZ+uVd9VcaHv6I4U0j/V61S798aV11+8c9cnDTSL9XDdMv761Of+5R80ObRvq9apl+eVJ9+8cPbRrp96pp+vNfrm//hIFNI/1eNU2/bL22Ov2Fuw1rGun3qm365YIPVLe/6dGDmkb6vWqcftnvNdXtr7rXkKaRfq9ap18u+XB1+4957ICmkX6vmqdfLttW3f6JjxvONNLvVfv0yx/UX2nYZxZXGqQ/bgNIv3xyY3X7j5/BlQbpj9sQ0i9fqb/ScNL0rzRIf9wGkX75YnX6c0+Y+pUG6Y/bMNIvD6xv/0nDmEb6vRpI+vN/V9/+kwcxjfR7NZD0y5p9q9NfeMoQppF+r4aSfjn95tXtb3rAAKaRfq8Gk3454vDq9qd7pUH64zac9MufvL66/af9bPNppN+rAaVfDj2kuv0TN7SeRvq9GlL65asHVbe/z2mNp5F+rwaVfrl0r+r2nzm1Kw3SH7dhpV++tlDd/tSuNEh/3AaWfvl6dfpzJ0/pSoP0x21o6Zc/r2//uS2nkX6vBpf+/Kfr2//7htNIv1eDS7+seU91+gu/0G4a6fdqeOmX099W3f6mFzSbRvq9GmD65S53rW5/1c+0mkb6vRpi+mXDddXtP+3FjaaRfq8GmX55y97V7V+34lcapD9uw0y//Pbm6vafvtJXGqQ/bgNNv5xRf6Xhjfu3mEb6vRpq+uXZ1enPvXxlrzRIf9wGm375n/Xt36zBNNLv1XDTL9+ob/8fZj+N9Hs14PTX/2N9+w+a+TTS79WA0y9b7l6d/ro7zXoa6fdqyOmXU25f3f7GX5/xNNLv1aDTLy98UXX7F63Ys0p/3Iadfrn67Or237pSVxqkP24DT78ceE51+we/ZJbTSL9XQ0+/fHNzdfvvfNUMp5F+rwaffvnW6ur2370iVxqkP27DT7/8dXX6cy/fOrNppN+rDtIv/1Df/u/MbBrp96qH9Mu369t/zqymkX6vukh/6y3q23//jKaRfq+6SL9s+UJ1+ut+bzbTSL9XfaRfznxFdfsbPziTaaTfq07SLy/5xer2P/Rrs5hG+r3qJf1y1p7V7b/1whlMI/1edZN+eftF1e0ffMfpTyP9XvWTfnnXudXtH7A7VxqkP24dpV++tK66/Xf/0bSnkX6vekq/vLc6/bmPLf9Kg/THrav0y/X17b9pytNIv1d9pT//5fr2Pz7daaTfq77SL1uvrW//j6c6jfR71Vn65YLvVKe/+nXTnEb6veot/bLfa6rb3/jJKU4j/V51l3457MPV7X/oVtObRvq96i/9ctm26va3XTa1aaTfqw7TL//rHdXtX77HtKaRfq96TL98cmN1+1eeMqVppN+rLtMvX6m/0vDR6isN0h+3PtMv/1Sd/txr109lGun3qtP0yz/Xt/9nU5lG+r3qNf35v6tv/1PTmEb6veo1/bLmX6rTX3j1FKaRfq+6Tb9c8N3q9lf/xcpPI/1e9Zt+OeLw6vY3/+WKTyP9XnWcfrnk9dXtH/1XKz2N9HvVc/rlXw+pbv8+n1nhaaTfq67TL189qLr9z058pUH649Z3+uXSvarbv/J+KzqN9HvVefrlawvV7V814ZUG6Y9b7+mXr1enP+mVBumPW/fpl/9d3/4VKziN9HvVf/rz/6e+/c+t3DTS71X/6Zc176lOf+HzKzaN9Hs1gvTL6W+rbn/1PVZqGun3agzpl7v8W3X7R+36SoP0x20U6ZcN11W3f/Tvr8w00u/VONIvb9m7uv1dXmmQ/riNJP3yp6uq2//sNSsxjfR7NZb0y7/XX2m4786vNEh/3EaTfrlzdfpz/7Fl96eRfq/Gk375eH3799/ZlQbpj9uI0i/fqG//Drs9jfR7Nab01/9jfftf3N1ppN+rMaVftty9Ov2FB+/mNNLv1ajSL6fcvrr91f+5e9NIv1fjSr+88EXV7R/10N2aRvq9Gln65eqzq9s/+pjdmUb6vRpb+uXAc6rbP3btbkwj/V6NLv3yzc3V7d9mySsN0h+38aVfvrW6uv2HP2LZ00i/VyNMv/xXdfpzx61Z7jTS79UY0y+/Wt/+o+aXOY30ezXK9Mu369v/yDKnkX6vxpn++lvUt3/C8qaRfq/GmX7Z8oXq9Bf+e1nTSL9XI02/nPmK6vY3PXo500i/V2NNv1xzm+r2V91uGdNIv1ejTb+ctWd1+495bP000u/VeNMvb7+ouv0TH1c9jfR7NeL0y7vOrW7/YUfWTiP9Xo05/fKlddXtP/5HVxqkP26jTr+8tzr9ueMeWTeN9Hs17vTL9fXtP+GHVxqkP24jT3/+y/XtP6lqGun3auTpl0e+vL79n6+ZRvq9Gnv65YLvVKe/7lsV00i/V6NPv5z29Or2Lzpr8mmk36vxp18u+XB1+x+Yn3ga6fcqIP1y8bbq9r8y8TTS71VC+uWrB9Wmf/lW6Y9dRPrl0Ztq23+Z9McuI/3yldorDddKf+xC0i8nVKZ/1P7SH7mU9MtHKtt/qPRHLib9+U/Xpf9+6Y9cTPplzb9Upf886Y9cTvrlgu/WpP8o6Y9cUPrliMMr0v8t6Y9cUvpVVxqeJf2Ri0q//Osh0ucHstKvuNIg/bELS7/cei/pc4O09MvXFqTPorj0y+ekz6K89Ms3pE+JTP8PpU+RvvRjSV/6oaQv/VDSl34o6Us/lPSlH0r60g812fu99iFd+Pb1//WM03d5ZOmzaLL325GNH73zfjs/svRZNLr0v+fo61+1syNLn0VjTH9ubs/f3MmRpc+icaY/N/eJ/Xd4ZOmzaKzpz/3SDv/EL30WjTb97X8G9Makz6Lxpj93ix0cWfosGnH6c/+09JGlz6Ixp79q7ZJHlj6Lxpz+3MlLHln6LBp1+ntdvNSRpc+iUac/d/xSR5Y+i8ad/rHzSxxZ+iwad/pzBy5xZOmzaOTp/+4SR5Y+i0ae/h2WOLL0WTTy9I9b4sjSZ9HI0//OEkeWPouuaB3ndD1+iSNLn0XHt45zup6/xJGlz6Int45zup6wxJGlz6JLW8c5Xf93iSNLn0XXTPgjI516wRJHlj43eHrrOqfp3KX+n1rS5wbva53nNJ2/1Imlzw0+s7p1n1N0xlInlj7fd//WfU7Pw9YvdWDp830Xntu60Kn51pIHlj4/8DetC52Wk5Y+r/T5gTU3b93odOz5kqXPK31+aMOJrSudhqNut4PjSp//79BtrTtdeef++45OK31+5OLLW5e60s556Q4PK32286o3tG51Zd336h2fVfrcyH+e1zrXlbP3+7fu5KTS58a2fP7NrZNdGed9/cydHlT63MSh9zzp4L7vNRx71XPuNb+LU0qfpZ224epOnXra1kkOKH1CSZ9Q0ieU9AklfUJJn1DSJ5T0CSV9QkmfUNInlPQJJX1CSZ9Q0ieU9AklfUJJn1DSJ5T0CSV9QkmfUNInlPQJJX1CSZ9Q0ieU9AklfUJJn1DSJ5T0CSV9QkmfUNInlPQJJX1CSZ9Q0ieU9AklfUJJn1DSJ5T0CSV9QkmfUNInlPQJJX1CSZ9Q0ieU9AklfUJJn1DSJ5T0CSV9QkmfUNInlPQJJX1CSZ9Q0ieU9AklfUJJn1DSJ5T0CSV9QkmfUNInlPQJJX1CSZ9Q0ieU9AklfUJJn1DSJ5T0CSV9QkmfUNInlPQJJX1CSZ9Q0ieU9AklfUJJn1DSJ5T0CSV9QkmfUNInlPQJJX1CSZ9Q0ieU9AklfUJJn1DSJ5T0CSV9QkmfUNInlPQJJX1CSZ9Q0ieU9AklfUJJn1DSJ5T0CSV9QkmfUNInlPQJJX1CSZ9Q0ieU9AklfUJJn1DSJ5T0CSV9QkmfUNInlPQJJX1CSZ9Q0ieU9AklfUJJn1DSJ5T0CSV9QkmfUNInlPQJJX1CSZ9Q0ieU9AklfUJJn1DSJ5T0CSV9QkmfUNInlPQJJX1CSZ9Q0ieU9AklfUJJn1DSJ5T0CSV9QkmfUNInlPQJJX1CSZ9Q0ieU9AklfUJJn1DSJ5T0CSV9QkmfUNInlPQJJX1CSZ9Q0ieU9AklfUJJn1DSJ5T0CSV9QkmfUNInlPQJJX1CSZ9Q0ieU9AklfUJJn1DSJ5T0CSV9QkmfUNInlPQJJX1CSZ9Q0ieU9AklfUJJn1DSJ5T0CSV9QkmfUNInlPQJJX1CSZ9Q0ieU9AklfUJJn1DSJ5T0CSV9QkmfUNInlPQJJX1CSZ9Q0ieU9AklfUJJn1DSJ5T0CSV9QkmfUNInlPQJJX1CSZ9Q0ieU9AklfUJJn1DSJ5T0CSV9QkmfUNInlPQJJX1CSZ9Q0ieU9AklfUJJn1DSJ5T0CSV9QkmfUNInlPQJJX1CSZ9Q0ieU9AklfUJJn1DSJ5T0CSV9QkmfUNInlPQJJX1CSZ9Q0ieU9AklfUJJn1DSJ5T0CSV9QkmfUNInlPQJJX1CSZ9Q0ieU9AklfUJJn1DSJ5T0CSV9QkmfUNInlPQJJX1CSZ9Q0ieU9AklfUJJn1DSJ5T0CSV9QkmfUNInlPQJJX1CSZ9Q0ieU9AklfUJJn1DSJ5T0CSV9QkmfUNInlPQJJX1CSZ9Q0ieU9AklfUJJn1DSJ5T0CSV9QkmfUNInlPQJJX1CSZ9Q0ieU9AklfUJJn1DSJ5T0CSV9QkmfUNInlPQJJX1CSZ9Q0ieU9AklfUJJn1DSJ5T0CSV9QkmfUNInlPQJJX1CSZ9Q0ieU9AklfUJJn1DSJ5T0CSV9QkmfUNInlPQJJX1CSZ9Q0ieU9AklfUJJn1DSJ5T0CSV9QkmfUNInlPQJJX1CSZ9Q0ieU9AklfUJJn1DSJ5T0CSV9QkmfUNInlPQJJX1CSZ9Q0ieU9AklfUJJn1DSJ5T0CSV9QkmfUNInlPQJJX1CSZ9Q0ieU9AklfUJJn1DSJ5T0CSV9QkmfUNInlPQJJX1CSZ9Q0ieU9AklfUJJn1DSJ5T0CSV9QkmfUNInlPQJJX1CSZ9Q0ieU9AklfUJJn1DSJ5T0CSV9QkmfUNInlPQJJX1CSZ9Q0ieU9AklfUJJn1DSJ5T0CSV9QkmfUNInlPQJJX1CSZ9Q0ieU9AklfUJJn1DSJ5T0CSV9QkmfUNInlPQJJX1CSZ9Q0ieU9AklfUJJn1DSJ5T0CSV9QkmfUNInlPQJJX1CSZ9Q0ieU9AklfUJJn1DSJ5T0CSV9QkmfUNInlPQJJX1CSZ9Q0ieU9AklfUJJn1DSJ5T0CSV9QkmfUNInlPQJJX1CSZ9Q0ieU9AklfUJJn1DSJ5T0CSV9QkmfUNInlPQJJX1CSZ9Q0ieU9AklfUJJn1DSJ5T0CSV9QkmfUNInlPQJJX1CSZ9Q0ieU9AklfUJJn1DSJ5T0CSV9QkmfUNInlPQJJX1CSZ9Q0ieU9AklfUJJn1DSJ5T0CSV9QkmfUNInlPQJJX1CSZ9Q0ieU9AklfUJJn1DSJ5T0CSV9QkmfUNInlPQJJX1CSZ9Q0ieU9AklfUJJn1DSJ5T0CSV9QkmfUNInlPQJJX1CSZ9Q0ieU9AklfUJJn1DSJ5T0CSV9QkmfUNInlPQJJX1CSZ9Q0ieU9AklfUJJn1DSJ5T0CSV9QkmfUNInlPQJJX1CSZ9Q0ieU9AklfUJJn1DSJ5T0CSV9QkmfUNInlPQJJX1CSZ9Q0ieU9AklfUJJn1DSJ5T0CSV9QkmfUNInlPQJJX1CSZ9Q0ieU9AklfUJJn1DSJ5T0CSV9QkmfUNInlPQJJX1CSZ9Q0ieU9Am1sukf8NPQicNXNH0YGekTSvqEkj6hpE8o6RNK+oSSPqGkTyjpE0r6hJI+oaRPKOkTSvqEkj6hpE8o6RPqWeWK1o8ALVxbjm/9CNDCJ8qTWz8CtHB9uXXrR4AWnlKuWWj9DNDAhaW8s/UzwOxdV0r5eOuHgNn75++lv3av1k8Bs7Zw6OJXFJ7c+jFg1j52w7dznrW59XPAbG069PvfTOtP+4Q5/gdfyrz1qtZPArN05ZYffiH5HQ9u/SwwOydu+NGX8V98XeungVk5+9Dtf4hig3+wRYh/O/XGP8Jy+r1daCDBp+93k18g+uZrWj8UTNs+H1zq17fmz3jq6tZPBtOz7qrXrd/Rb8/t8bWbfffsg1o/Iay0Vdue+cq73fh3QP8f+KjZ4EIqEfsAAAAldEVYdGRhdGU6Y3JlYXRlADIwMTctMDYtMTJUMDM6MzQ6MjMrMDg6MDAZwBsGAAAAJXRFWHRkYXRlOm1vZGlmeQAyMDE2LTA0LTE2VDE1OjI3OjMwKzA4OjAwNSHNZwAAAFR0RVh0c3ZnOmJhc2UtdXJpAGZpbGU6Ly8vaG9tZS9kYi9zdmdfaW5mby9zdmcvM2EvNzQvM2E3NDg2NGM1OTNkNzFhYTVlZWM0ZGEyN2YxMTc2OGYuc3ZnQMb87gAAAABJRU5ErkJggg==;" vertex="1" parent="1">
          <mxGeometry x="417.59" y="344.36" width="70.79" height="91.04" as="geometry" />
        </mxCell>
      </root>
    </mxGraphModel>
  </diagram>
</mxfile>
